<svg id="e9132ac9-0ebd-419d-9811-844b4d88d8cc" width="403.43" height="279.55" data-name="Layer 1" version="1.1" viewBox="0 0 403.43 279.55" xmlns="http://www.w3.org/2000/svg" xmlns:xlink="http://www.w3.org/1999/xlink">
 <title>fireworks</title>
 <g transform="translate(-316.83 -.02035)" fill="#386ede" opacity=".6">
  <path transform="translate(-28,-78.56)" d="m672.46 95.46a2 2 0 0 0-3.25 2.32c0.37 0.56 0.78 1.11 1.17 1.63 4.69 6.33 7.12 14 9.22 21.63 0.51 1.87 1 3.86 0.42 5.71a35.59 35.59 0 0 0-1-14.9 92.28 92.28 0 0 0-5.27-14.06 12.23 12.23 0 0 0-1.29-2.33z" opacity=".5"/>
  <path transform="translate(-28,-78.56)" d="m642 108.79c-3.17-0.1-3.57 4.7-0.42 5 0.83 0.06 1.66 0.08 2.46 0.1 9.7 0.27 18.86 3.79 27.67 7.56 2.17 0.93 4.44 2 5.7 4a41.55 41.55 0 0 0-14.76-10.46 108.23 108.23 0 0 0-17.42-5.62 14.32 14.32 0 0 0-3.23-0.58z"/>
  <path transform="translate(-28,-78.56)" d="m642.88 120.59c-2 0.08-1.55 2.92 0.47 2.94h1.55c6.12-0.25 12.38 1.44 18.46 3.29a9.61 9.61 0 0 1 4.15 2.09 33.5 33.5 0 0 0-10.79-5.54 83.72 83.72 0 0 0-11.72-2.62 11.3 11.3 0 0 0-2.12-0.16z" opacity=".2"/>
  <path transform="translate(-28,-78.56)" d="m683.8 173.42c0.57 1.92 3.21 0.78 2.73-1.17-0.13-0.52-0.28-1-0.43-1.5-1.75-5.86-1.67-12.35-1.38-18.7a9.43 9.43 0 0 1 1-4.53 33.33 33.33 0 0 0-2.72 11.82 82.86 82.86 0 0 0 0.41 12 11.09 11.09 0 0 0 0.39 2.08z" opacity=".5"/>
  <path transform="translate(-28,-78.56)" d="m646.53 92.8c-1.21-0.21-1.3 1.54-0.1 1.81 0.32 0.07 0.63 0.12 0.93 0.17 3.69 0.63 7.21 2.43 10.61 4.31a5.69 5.69 0 0 1 2.21 1.78 20.28 20.28 0 0 0-5.74-4.68 49.43 49.43 0 0 0-6.68-3 6 6 0 0 0-1.23-0.39z" opacity=".2"/>
  <path transform="translate(-28,-78.56)" d="m627.94 139.27c-3.05 1.57-0.47 5.88 2.67 4.45 0.82-0.37 1.62-0.79 2.38-1.19 9.34-4.84 20.18-6.62 30.84-8 2.62-0.33 5.41-0.63 7.83 0.41a52.8 52.8 0 0 0-20.42-1.23 133.4 133.4 0 0 0-19.93 4.29 17.15 17.15 0 0 0-3.37 1.27z"/>
  <path transform="translate(-28,-78.56)" d="m636.67 156.06c-2.2 2.05 1.23 4.47 3.53 2.5 0.6-0.51 1.18-1.06 1.72-1.57 6.69-6.28 15.53-10.75 24.33-14.87 2.16-1 11-2 13.43-2-6.2 0.55-18.87 2.49-24.5 5.05a135.79 135.79 0 0 0-16 9 17 17 0 0 0-2.51 1.89z" opacity=".5"/>
  <path transform="translate(-28,-78.56)" d="m652.32 182.87c-0.64 2.93 3.55 3 4.33 0 0.2-0.77 0.37-1.54 0.53-2.28 1.93-9 6.66-17.67 11.56-26.06 1.2-2.05 7.93-8 9.92-9.26-4.79 4-14.11 12.77-17.28 18.08a135.13 135.13 0 0 0-8 16.45 18.15 18.15 0 0 0-1.06 3.07z"/>
  <path transform="translate(-28,-78.56)" d="m683.84 79.94c-1.5-3-5.77-0.54-4.41 2.59 0.35 0.82 0.75 1.62 1.13 2.38 4.6 9.31 6.19 20.08 7.37 30.67 0.29 2.6 0.54 5.36-0.52 7.75a53 53 0 0 0 1.52-20.22 134.09 134.09 0 0 0-3.93-19.82 17.83 17.83 0 0 0-1.16-3.35z"/>
  <path transform="translate(-28,-78.56)" d="m660 85.13a0.57 0.57 0 0 0 0.25 0.08 0.46 0.46 0 0 0 0.35-0.32c0.38-0.81 0.16-1.86 0.74-2.55a8.78 8.78 0 0 1 1.39 2.34l2.27-0.68a3.29 3.29 0 0 1-0.42 2.52 3.23 3.23 0 0 1 1 0.7 1.14 1.14 0 0 1 0.26 1.16 5.71 5.71 0 0 1-1.55 0.15 9.93 9.93 0 0 1-0.16 2.88 0.54 0.54 0 0 1-0.19 0.37 0.52 0.52 0 0 1-0.53-0.09 5 5 0 0 1-1.81-1.91l-0.81 2a0.82 0.82 0 0 1-0.37 0.48 0.57 0.57 0 0 1-0.68-0.23 1.7 1.7 0 0 1-0.24-0.74l-0.31-1.86a0.42 0.42 0 0 0-0.1-0.26 0.45 0.45 0 0 0-0.32-0.09h-2.32c-0.14-0.41 0.27-0.8 0.67-1s0.86-0.3 1.06-0.69c0.41-0.78-0.64-1.87-0.19-2.55s1.36-0.04 2.01 0.29z"/>
  <path transform="translate(-28,-78.56)" d="m702.36 95.46a2.0006 2.0006 0 0 1 3.26 2.32c-0.38 0.56-0.78 1.11-1.17 1.63-4.69 6.33-7.13 14-9.22 21.63-0.52 1.87-1 3.86-0.43 5.71a35.6 35.6 0 0 1 1-14.9 91.23 91.23 0 0 1 5.27-14.06 12.18 12.18 0 0 1 1.29-2.33z" opacity=".5"/>
  <path transform="translate(-28,-78.56)" d="m732.82 108.79c3.16-0.1 3.57 4.7 0.41 5-0.82 0.06-1.66 0.08-2.45 0.1-9.7 0.27-18.87 3.79-27.68 7.56-2.16 0.93-4.43 2-5.69 4a41.55 41.55 0 0 1 14.76-10.46 108.44 108.44 0 0 1 17.41-5.62 14.5 14.5 0 0 1 3.24-0.58z"/>
  <path transform="translate(-28,-78.56)" d="m732 120.59c2 0.08 1.54 2.92-0.47 2.94h-1.55c-6.12-0.25-12.38 1.44-18.46 3.29a9.55 9.55 0 0 0-4.15 2.09 33.4 33.4 0 0 1 10.79-5.54 83.72 83.72 0 0 1 11.74-2.58 11.3 11.3 0 0 1 2.1-0.2z" opacity=".5"/>
  <path transform="translate(-28,-78.56)" d="m728.3 92.8c1.21-0.21 1.3 1.54 0.1 1.81-0.32 0.07-0.63 0.12-0.94 0.17-3.68 0.63-7.21 2.43-10.6 4.31a5.69 5.69 0 0 0-2.21 1.78 20.24 20.24 0 0 1 5.73-4.68 50.12 50.12 0 0 1 6.69-3 5.79 5.79 0 0 1 1.23-0.39z" opacity=".2"/>
  <path transform="translate(-28,-78.56)" d="m697 177.06c-0.27 1.19-1.92 0.6-1.7-0.61 0-0.32 0.13-0.63 0.2-0.93 0.84-3.64 0.53-7.59 0.11-11.45a5.78 5.78 0 0 0-0.79-2.72 20.23 20.23 0 0 1 2.1 7.1 51.4 51.4 0 0 1 0.23 7.33 6.13 6.13 0 0 1-0.15 1.28z" opacity=".2"/>
  <path transform="translate(-28,-78.56)" d="m727.53 169.14c0.94 1.59-1.37 1.48-2.38-0.11-0.27-0.42-0.51-0.84-0.75-1.24-2.86-4.87-7.22-9.69-11.61-14.34a16.07 16.07 0 0 0-3.59-3.11 56.94 56.94 0 0 1 9.43 8.07c2.82 2.94 5.3 6 7.74 9.08a15.94 15.94 0 0 1 1.16 1.65z" opacity=".5"/>
  <path transform="translate(-28,-78.56)" d="m643.89 169.14c-0.94 1.59 1.37 1.48 2.39-0.11 0.26-0.42 0.51-0.84 0.74-1.24 2.86-4.87 7.22-9.69 11.61-14.34a16.12 16.12 0 0 1 3.6-3.11 57 57 0 0 0-9.44 8.07c-2.81 2.94-5.3 6-7.74 9.08a15.94 15.94 0 0 0-1.16 1.65z" opacity=".2"/>
  <path transform="translate(-28,-78.56)" d="m674.48 177.06c0.27 1.19 1.92 0.6 1.71-0.61-0.06-0.32-0.13-0.63-0.2-0.93-0.84-3.64-0.54-7.59-0.11-11.45a5.66 5.66 0 0 1 0.78-2.72 20.23 20.23 0 0 0-2.1 7.1 50 50 0 0 0-0.22 7.33 6.87 6.87 0 0 0 0.14 1.28z" opacity=".2"/>
  <path transform="translate(-28,-78.56)" d="m718.67 104.76c1.2-0.21 1.29 1.55 0.09 1.81-0.31 0.07-0.63 0.12-0.93 0.18-3.69 0.62-7.21 2.43-10.61 4.31a5.83 5.83 0 0 0-2.21 1.77 20.25 20.25 0 0 1 5.74-4.67 49.49 49.49 0 0 1 6.68-3 6.54 6.54 0 0 1 1.24-0.4z" opacity=".2"/>
  <path transform="translate(-28,-78.56)" d="m707.42 81.27c1-0.64 1.78 1 0.77 1.64l-0.8 0.51c-3.18 2-5.78 5-8.23 8a5.69 5.69 0 0 0-1.38 2.47 20.15 20.15 0 0 1 3.57-6.48 49.88 49.88 0 0 1 5.06-5.31 6.46 6.46 0 0 1 1.01-0.83z" opacity=".2"/>
  <path transform="translate(-28,-78.56)" d="m746.89 139.27c3.05 1.57 0.47 5.88-2.67 4.45-0.82-0.37-1.62-0.79-2.39-1.19-9.33-4.84-20.17-6.62-30.83-8-2.62-0.33-5.41-0.63-7.83 0.41a52.76 52.76 0 0 1 20.41-1.23 133.26 133.26 0 0 1 19.94 4.29 17.64 17.64 0 0 1 3.37 1.27z"/>
  <path transform="translate(-28,-78.56)" d="m738.16 156.06c2.2 2.05-1.23 4.47-3.53 2.5-0.6-0.51-1.18-1.06-1.73-1.57-6.69-6.28-15.52-10.75-24.33-14.87-2.15-1-11.05-2-13.42-2 6.2 0.55 18.86 2.49 24.49 5.05a135.12 135.12 0 0 1 16 9 17 17 0 0 1 2.52 1.89z" opacity=".5"/>
  <path transform="translate(-28,-78.56)" d="m712.3 186.22c0.27 3-3.9 2.5-4.3-0.5-0.1-0.78-0.17-1.57-0.24-2.32-0.79-9.14-4.4-18.37-8.21-27.3-0.93-2.2-6.87-8.9-8.67-10.44 4.25 4.55 12.39 14.44 14.88 20.1a136.38 136.38 0 0 1 5.92 17.34 16.58 16.58 0 0 1 0.62 3.12z"/>
  <path transform="translate(-28,-78.56)" d="m714.8 85.13a0.61 0.61 0 0 1-0.26 0.08c-0.16 0-0.28-0.17-0.35-0.32-0.37-0.81-0.16-1.86-0.73-2.55a8.81 8.81 0 0 0-1.4 2.34l-2.19-0.68a3.24 3.24 0 0 0 0.42 2.52 3.23 3.23 0 0 0-1 0.7 1.14 1.14 0 0 0-0.27 1.16 5.79 5.79 0 0 0 1.55 0.15 10.3 10.3 0 0 0 0.17 2.88 0.54 0.54 0 0 0 0.19 0.37 0.52 0.52 0 0 0 0.53-0.09 5 5 0 0 0 1.81-1.91l0.81 2a0.85 0.85 0 0 0 0.36 0.48 0.58 0.58 0 0 0 0.69-0.23 1.7 1.7 0 0 0 0.24-0.74l0.31-1.86a0.42 0.42 0 0 1 0.1-0.26 0.45 0.45 0 0 1 0.32-0.09h2.32c0.14-0.41-0.28-0.8-0.67-1s-0.87-0.3-1.07-0.69c-0.4-0.78 0.65-1.87 0.2-2.55s-1.4-0.04-2.08 0.29z"/>
  <path transform="translate(-28,-78.56)" d="m721.42 175.46a0.61 0.61 0 0 1-0.26 0.08c-0.17 0-0.28-0.17-0.35-0.32-0.37-0.81-0.16-1.86-0.73-2.55a8.71 8.71 0 0 0-1.4 2.34l-2.19-0.68a3.28 3.28 0 0 0 0.41 2.52 3.48 3.48 0 0 0-1 0.7 1.14 1.14 0 0 0-0.27 1.16 5.79 5.79 0 0 0 1.55 0.15 10.37 10.37 0 0 0 0.16 2.89 0.53 0.53 0 0 0 0.19 0.36c0.16 0.1 0.37 0 0.54-0.09a5.08 5.08 0 0 0 1.8-1.91l0.82 1.95a0.86 0.86 0 0 0 0.36 0.49 0.58 0.58 0 0 0 0.68-0.24 1.71 1.71 0 0 0 0.25-0.74l0.3-1.85a0.58 0.58 0 0 1 0.1-0.27 0.46 0.46 0 0 1 0.33-0.09h2.32c0.13-0.41-0.28-0.8-0.67-1s-0.87-0.3-1.07-0.69c-0.4-0.78 0.64-1.87 0.2-2.55s-1.39 0.01-2.07 0.34z" opacity=".2"/>
  <path transform="translate(-28,-78.56)" d="m740 114.91a0.65 0.65 0 0 1-0.26 0.08c-0.17 0-0.28-0.17-0.35-0.32-0.38-0.81-0.16-1.86-0.74-2.55a8.94 8.94 0 0 0-1.39 2.34l-2.2-0.68a3.29 3.29 0 0 0 0.42 2.52 3.19 3.19 0 0 0-1 0.7 1.14 1.14 0 0 0-0.27 1.16 5.75 5.75 0 0 0 1.55 0.15 10.37 10.37 0 0 0 0.16 2.89 0.53 0.53 0 0 0 0.19 0.36 0.52 0.52 0 0 0 0.53-0.09 5 5 0 0 0 1.81-1.91l0.82 2a0.86 0.86 0 0 0 0.36 0.49 0.58 0.58 0 0 0 0.68-0.24 1.58 1.58 0 0 0 0.24-0.74l0.31-1.85a0.43 0.43 0 0 1 0.1-0.27 0.45 0.45 0 0 1 0.32-0.09h2.33c0.13-0.41-0.28-0.8-0.68-1s-0.86-0.3-1.06-0.69c-0.41-0.78 0.64-1.87 0.2-2.55s-1.39-0.04-2.07 0.29z"/>
  <path transform="translate(-28,-78.56)" d="m665.69 184.52a0.66 0.66 0 0 1-0.36 0.11c-0.23 0-0.39-0.23-0.49-0.44-0.52-1.14-0.22-2.6-1-3.55a12.08 12.08 0 0 0-1.94 3.26l-3.06-1a4.54 4.54 0 0 0 0.58 3.5 4.77 4.77 0 0 0-1.44 1 1.61 1.61 0 0 0-0.38 1.62 7.89 7.89 0 0 0 2.16 0.21 14.65 14.65 0 0 0 0.23 4 0.76 0.76 0 0 0 0.27 0.51c0.22 0.14 0.51 0 0.74-0.12a7.18 7.18 0 0 0 2.5-2.62l1.13 2.71a1.19 1.19 0 0 0 0.51 0.68 0.8 0.8 0 0 0 1-0.33 2.29 2.29 0 0 0 0.34-1l0.42-2.58a0.71 0.71 0 0 1 0.15-0.37 0.69 0.69 0 0 1 0.45-0.13h3.23c0.19-0.57-0.39-1.1-0.94-1.35s-1.2-0.42-1.48-0.95c-0.56-1.1 0.89-2.62 0.27-3.56-0.77-1.12-1.94-0.07-2.89 0.4z"/>
  <path transform="translate(-28,-78.56)" d="m634.77 116.72a0.76 0.76 0 0 1-0.36 0.11c-0.23 0-0.39-0.24-0.49-0.45-0.52-1.13-0.22-2.59-1-3.55a12.24 12.24 0 0 0-1.94 3.26l-3.06-0.94a4.54 4.54 0 0 0 0.58 3.5 4.6 4.6 0 0 0-1.44 1 1.57 1.57 0 0 0-0.37 1.61 7.42 7.42 0 0 0 2.15 0.22 14.56 14.56 0 0 0 0.23 4 0.76 0.76 0 0 0 0.27 0.52c0.22 0.14 0.51 0 0.74-0.13a7.23 7.23 0 0 0 2.52-2.66l1.13 2.71a1.23 1.23 0 0 0 0.51 0.68 0.8 0.8 0 0 0 0.95-0.33 2.29 2.29 0 0 0 0.34-1l0.42-2.58a0.71 0.71 0 0 1 0.15-0.37 0.69 0.69 0 0 1 0.45-0.13h3.23c0.19-0.57-0.38-1.11-0.94-1.35s-1.2-0.42-1.48-1c-0.56-1.09 0.89-2.61 0.28-3.55-0.75-1.13-1.92-0.04-2.87 0.43z"/>
  <path transform="translate(-28,-78.56)" d="m728.59 158.71a0.32 0.32 0 0 1-0.19 0c-0.12 0-0.21-0.12-0.26-0.23-0.27-0.6-0.11-1.38-0.54-1.89a6.6 6.6 0 0 0-1 1.73l-1.63-0.5a2.43 2.43 0 0 0 0.31 1.86 2.39 2.39 0 0 0-0.76 0.52 0.84 0.84 0 0 0-0.2 0.86 4.38 4.38 0 0 0 1.14 0.12 7.26 7.26 0 0 0 0.13 2.13 0.4 0.4 0 0 0 0.14 0.27c0.11 0.08 0.27 0 0.39-0.07a3.7 3.7 0 0 0 1.34-1.41l0.6 1.44a0.62 0.62 0 0 0 0.27 0.36 0.45 0.45 0 0 0 0.51-0.17 1.49 1.49 0 0 0 0.18-0.55l0.22-1.37a0.36 0.36 0 0 1 0.08-0.2 0.38 0.38 0 0 1 0.24-0.07h1.71c0.1-0.31-0.2-0.59-0.49-0.72s-0.65-0.22-0.79-0.51c-0.3-0.58 0.47-1.39 0.14-1.89s-1.03 0.04-1.54 0.29z" opacity=".2"/>
  <path transform="translate(-28,-78.56)" d="m686.59 183a0.32 0.32 0 0 1-0.19 0c-0.12 0-0.21-0.12-0.26-0.23-0.27-0.6-0.11-1.38-0.54-1.89a6.6 6.6 0 0 0-1 1.73l-1.63-0.5a2.43 2.43 0 0 0 0.31 1.86 2.39 2.39 0 0 0-0.76 0.52 0.84 0.84 0 0 0-0.2 0.86 4 4 0 0 0 1.14 0.11 7.31 7.31 0 0 0 0.13 2.14 0.43 0.43 0 0 0 0.13 0.27 0.4 0.4 0 0 0 0.4-0.07 3.7 3.7 0 0 0 1.34-1.41l0.6 1.44a0.66 0.66 0 0 0 0.27 0.36 0.46 0.46 0 0 0 0.51-0.17 1.31 1.31 0 0 0 0.17-0.55l0.23-1.37a0.36 0.36 0 0 1 0.08-0.2 0.33 0.33 0 0 1 0.24-0.07h1.71c0.1-0.31-0.2-0.59-0.49-0.72s-0.65-0.23-0.79-0.51c-0.3-0.58 0.47-1.39 0.14-1.89s-1.04 0-1.54 0.29z" opacity=".2"/>
  <path transform="translate(-28,-78.56)" d="m646 98.08a0.47 0.47 0 0 1-0.19 0.06 0.33 0.33 0 0 1-0.26-0.24c-0.28-0.6-0.12-1.38-0.55-1.88a6.45 6.45 0 0 0-1 1.73l-1.62-0.5a2.4 2.4 0 0 0 0.3 1.86 2.34 2.34 0 0 0-0.76 0.52 0.84 0.84 0 0 0-0.2 0.86 4 4 0 0 0 1.15 0.11 7.61 7.61 0 0 0 0.12 2.13 0.4 0.4 0 0 0 0.14 0.28c0.12 0.07 0.27 0 0.39-0.07a3.73 3.73 0 0 0 1.34-1.42l0.6 1.44a0.65 0.65 0 0 0 0.27 0.37 0.44 0.44 0 0 0 0.51-0.18 1.28 1.28 0 0 0 0.18-0.55l0.22-1.37a0.27 0.27 0 0 1 0.32-0.26h1.72c0.09-0.3-0.21-0.59-0.5-0.71s-0.64-0.23-0.79-0.51c-0.3-0.58 0.47-1.39 0.15-1.89s-1.09-0.03-1.54 0.22z" opacity=".5"/>
  <path transform="translate(-28,-78.56)" d="m667.58 145.91a0.42 0.42 0 0 1-0.19 0.06c-0.12 0-0.21-0.13-0.26-0.24-0.28-0.6-0.12-1.38-0.54-1.88a6.23 6.23 0 0 0-1 1.73l-1.62-0.5a2.4 2.4 0 0 0 0.31 1.86 2.38 2.38 0 0 0-0.77 0.52 0.85 0.85 0 0 0-0.2 0.85 4.06 4.06 0 0 0 1.15 0.12 7.61 7.61 0 0 0 0.12 2.13 0.38 0.38 0 0 0 0.14 0.27c0.12 0.08 0.28 0 0.4-0.06a3.78 3.78 0 0 0 1.33-1.42l0.61 1.44a0.59 0.59 0 0 0 0.27 0.36 0.41 0.41 0 0 0 0.5-0.17 1.19 1.19 0 0 0 0.18-0.55l0.23-1.37a0.32 0.32 0 0 1 0.07-0.19 0.34 0.34 0 0 1 0.24-0.07h1.72c0.1-0.3-0.21-0.59-0.5-0.72s-0.64-0.22-0.79-0.51c-0.29-0.58 0.48-1.38 0.15-1.88s-1.05-0.03-1.55 0.22z" opacity=".5"/>
  <path transform="translate(-28,-78.56)" d="m651.88 127.27a0.32 0.32 0 0 1-0.19 0c-0.12 0-0.21-0.12-0.26-0.23-0.28-0.6-0.12-1.38-0.54-1.89a6.38 6.38 0 0 0-1 1.73l-1.62-0.5a2.39 2.39 0 0 0 0.31 1.86 2.55 2.55 0 0 0-0.77 0.52 0.86 0.86 0 0 0-0.2 0.86 4 4 0 0 0 1.15 0.11 7.66 7.66 0 0 0 0.12 2.14 0.3 0.3 0 0 0 0.54 0.2 3.75 3.75 0 0 0 1.33-1.41l0.61 1.44a0.66 0.66 0 0 0 0.27 0.36 0.43 0.43 0 0 0 0.5-0.18 1.24 1.24 0 0 0 0.18-0.54l0.23-1.38a0.25 0.25 0 0 1 0.31-0.26h1.72c0.1-0.3-0.21-0.58-0.5-0.71s-0.64-0.23-0.79-0.51c-0.3-0.58 0.48-1.39 0.15-1.89s-1.05 0.01-1.55 0.28z" opacity=".5"/>
  <path transform="translate(-28,-78.56)" d="m719.32 131.66a0.34 0.34 0 0 1-0.19 0.05c-0.13 0-0.21-0.12-0.26-0.23-0.28-0.6-0.12-1.38-0.55-1.89a6.6 6.6 0 0 0-1 1.73l-1.62-0.5a2.38 2.38 0 0 0 0.3 1.86 2.51 2.51 0 0 0-0.76 0.52 0.84 0.84 0 0 0-0.2 0.86 4 4 0 0 0 1.15 0.11 7.66 7.66 0 0 0 0.12 2.14 0.4 0.4 0 0 0 0.14 0.27 0.38 0.38 0 0 0 0.39-0.07 3.78 3.78 0 0 0 1.34-1.41l0.6 1.44a0.66 0.66 0 0 0 0.27 0.36 0.44 0.44 0 0 0 0.51-0.18 1.24 1.24 0 0 0 0.18-0.54l0.22-1.38a0.36 0.36 0 0 1 0.08-0.19 0.33 0.33 0 0 1 0.24-0.07h1.72c0.09-0.3-0.21-0.58-0.5-0.71s-0.64-0.23-0.79-0.51c-0.3-0.58 0.47-1.39 0.15-1.89s-1.04-0.02-1.54 0.23z" opacity=".5"/>
  <path transform="translate(-28,-78.56)" d="m686.59 128a0.32 0.32 0 0 1-0.19 0c-0.12 0-0.21-0.12-0.26-0.23-0.27-0.6-0.11-1.38-0.54-1.89a6.6 6.6 0 0 0-1 1.73l-1.63-0.5a2.43 2.43 0 0 0 0.31 1.86 2.39 2.39 0 0 0-0.76 0.52 0.84 0.84 0 0 0-0.2 0.86 4.38 4.38 0 0 0 1.14 0.12 7.26 7.26 0 0 0 0.13 2.13 0.43 0.43 0 0 0 0.13 0.27c0.12 0.08 0.28 0 0.4-0.07a3.7 3.7 0 0 0 1.34-1.41l0.6 1.44a0.62 0.62 0 0 0 0.27 0.36 0.46 0.46 0 0 0 0.51-0.17 1.31 1.31 0 0 0 0.17-0.55l0.23-1.37a0.36 0.36 0 0 1 0.08-0.2 0.38 0.38 0 0 1 0.24-0.07h1.71c0.1-0.31-0.2-0.59-0.49-0.72s-0.65-0.22-0.79-0.51c-0.3-0.58 0.47-1.39 0.14-1.89s-1.04 0.03-1.54 0.29z" opacity=".2"/>
  <path transform="translate(-28,-78.56)" d="m676.33 132.45a0.39 0.39 0 0 1-0.2 0.06c-0.12 0-0.2-0.12-0.26-0.23-0.27-0.6-0.11-1.38-0.54-1.89a6.6 6.6 0 0 0-1 1.73l-1.63-0.5a2.43 2.43 0 0 0 0.31 1.86 2.51 2.51 0 0 0-0.76 0.52 0.84 0.84 0 0 0-0.2 0.86 4 4 0 0 0 1.14 0.11 7.69 7.69 0 0 0 0.13 2.14 0.4 0.4 0 0 0 0.14 0.27 0.38 0.38 0 0 0 0.39-0.07 3.78 3.78 0 0 0 1.34-1.41l0.6 1.44a0.66 0.66 0 0 0 0.27 0.36 0.44 0.44 0 0 0 0.51-0.18 1.38 1.38 0 0 0 0.18-0.54l0.22-1.38a0.27 0.27 0 0 1 0.32-0.26h1.72c0.09-0.3-0.21-0.58-0.5-0.71s-0.64-0.23-0.79-0.51c-0.3-0.58 0.47-1.39 0.14-1.89s-1.03-0.02-1.53 0.22z" opacity=".3"/>
  <path transform="translate(-28,-78.56)" d="m666.75 105.42a0.42 0.42 0 0 1-0.19 0.06c-0.12 0-0.21-0.13-0.26-0.24-0.27-0.6-0.11-1.38-0.54-1.88a6.29 6.29 0 0 0-1 1.73l-1.63-0.51a2.43 2.43 0 0 0 0.31 1.86 2.56 2.56 0 0 0-0.76 0.52 0.85 0.85 0 0 0-0.2 0.86 4.38 4.38 0 0 0 1.14 0.12 7.26 7.26 0 0 0 0.13 2.13 0.41 0.41 0 0 0 0.13 0.27c0.12 0.08 0.28 0 0.4-0.06a3.8 3.8 0 0 0 1.34-1.42l0.6 1.44a0.62 0.62 0 0 0 0.27 0.36 0.43 0.43 0 0 0 0.51-0.17 1.31 1.31 0 0 0 0.17-0.55l0.23-1.37a0.36 0.36 0 0 1 0.08-0.2 0.32 0.32 0 0 1 0.24-0.06h1.71c0.1-0.31-0.2-0.59-0.49-0.72s-0.65-0.22-0.79-0.51c-0.3-0.58 0.47-1.38 0.14-1.88s-1.04-0.03-1.54 0.22z" opacity=".2"/>
  <path transform="translate(-28,-78.56)" d="m685.61 140.7a0.34 0.34 0 0 1-0.19 0.05c-0.13 0-0.21-0.12-0.26-0.23-0.28-0.6-0.12-1.38-0.55-1.89a6.5 6.5 0 0 0-1 1.74l-1.62-0.51a2.42 2.42 0 0 0 0.3 1.86 2.63 2.63 0 0 0-0.76 0.52 0.84 0.84 0 0 0-0.2 0.86 4.45 4.45 0 0 0 1.15 0.12 7.61 7.61 0 0 0 0.12 2.13 0.4 0.4 0 0 0 0.14 0.27c0.12 0.08 0.27 0 0.39-0.06a3.8 3.8 0 0 0 1.34-1.42l0.6 1.44a0.62 0.62 0 0 0 0.27 0.36 0.45 0.45 0 0 0 0.51-0.17 1.32 1.32 0 0 0 0.18-0.55l0.22-1.37a0.44 0.44 0 0 1 0.08-0.2 0.38 0.38 0 0 1 0.24-0.07h1.72c0.1-0.31-0.21-0.59-0.5-0.72s-0.64-0.22-0.79-0.51c-0.3-0.58 0.48-1.39 0.15-1.89s-1.04-0.01-1.54 0.24z" opacity=".3"/>
 </g>
 <g fill="#386ede">
  <path d="m109.81 42.71c-3.65-5-11.19 0.41-7.78 5.55 0.89 1.34 1.86 2.65 2.78 3.89 11.24 15.16 17.06 33.58 22.07 51.78 1.23 4.46 2.42 9.23 1 13.65 2-11.83 0.7-24-2.33-35.64s-7.74-22.7-12.61-33.66a29.89 29.89 0 0 0-3.13-5.57z" opacity=".5"/>
  <path d="m36.942 74.6c-7.58-0.23-8.54 11.26-1 11.86 2 0.16 4 0.21 5.88 0.26 23.2 0.63 45.14 9 66.22 18.09 5.17 2.22 10.6 4.72 13.63 9.47-9.5-11-22-19.1-35.33-25s-27.49-9.86-41.67-13.49a36.44 36.44 0 0 0-7.73-1.19z"/>
  <path d="m39.022 102.85c-4.78 0.18-3.7 7 1.12 7 1.26 0 2.51 0 3.71-0.1 14.64-0.59 29.63 3.45 44.17 7.89 3.57 1.09 7.33 2.33 9.93 5-7.57-6.09-16.6-10.32-25.81-13.25s-18.67-4.64-28.09-6.18a25.6 25.6 0 0 0-5.03-0.36z" opacity=".2"/>
  <path d="m136.94 229.27c1.36 4.59 7.68 1.86 6.53-2.82-0.31-1.22-0.67-2.43-1-3.58-4.21-14-4-29.55-3.32-44.74 0.17-3.72 0.44-7.68 2.38-10.86-4 8.85-5.87 18.64-6.43 28.29s0.14 19.24 1 28.75a26.32 26.32 0 0 0 0.84 4.96z" opacity=".5"/>
  <path d="m47.742 36.33c-2.88-0.5-3.1 3.7-0.22 4.34 0.75 0.16 1.51 0.29 2.23 0.41 8.82 1.51 17.25 5.82 25.37 10.32 2 1.11 4.09 2.33 5.3 4.25a48.51 48.51 0 0 0-13.73-11.23 119.47 119.47 0 0 0-16-7.26 16 16 0 0 0-2.95-0.83z" opacity=".2"/>
  <path d="m3.2724 147.53c-7.31 3.76-1.13 14.09 6.38 10.66 2-0.9 3.88-1.9 5.71-2.85 22.33-11.58 48.27-15.85 73.79-19.14 6.26-0.8 12.94-1.51 18.73 1-15.79-4.45-32.6-4.82-48.85-2.93s-32.06 6-47.71 10.26a43 43 0 0 0-8.05 3z"/>
  <path d="m24.172 187.72c-5.25 4.9 2.95 10.69 8.46 6 1.44-1.23 2.81-2.53 4.12-3.76 16-15 37.16-25.72 58.22-35.57 5.17-2.42 26.44-4.89 32.12-4.76-14.83 1.33-45.14 6-58.61 12.09s-25.96 13.7-38.25 21.43a41.29 41.29 0 0 0-6.06 4.57z" opacity=".5"/>
  <path d="m61.612 251.88c-1.53 7 8.5 7.11 10.36 0.11 0.49-1.84 0.88-3.68 1.26-5.44 4.62-21.46 15.95-42.29 27.67-62.36 2.88-4.93 19-19.06 23.73-22.18-11.45 9.53-33.75 30.57-41.35 43.27s-13.54 26-19.26 39.37a41.45 41.45 0 0 0-2.41 7.23z"/>
  <path d="m137.03 5.5796c-3.58-7.3-13.8-1.3-10.56 6.18 0.85 2 1.81 3.88 2.71 5.7 11 22.28 14.81 48.05 17.64 73.39 0.69 6.21 1.29 12.84-1.24 18.55 4.62-15.59 5.23-32.25 3.63-48.38s-5.36-31.85-9.34-47.42a41.38 41.38 0 0 0-2.84-8.02z"/>
  <path d="m80.052 17.99a1.14 1.14 0 0 0 0.61 0.18c0.4 0 0.68-0.4 0.84-0.76 0.9-1.94 0.38-4.46 1.76-6.09a21 21 0 0 1 3.34 5.59l5.25-1.62a7.8 7.8 0 0 1-1 6 8.17 8.17 0 0 1 2.48 1.68 2.75 2.75 0 0 1 0.64 2.78 13.22 13.22 0 0 1-3.71 0.37 24.59 24.59 0 0 1-0.39 6.9 1.3 1.3 0 0 1-0.45 0.87c-0.39 0.25-0.89 0-1.28-0.21a12.1 12.1 0 0 1-4.32-4.58l-1.95 4.66a2.09 2.09 0 0 1-0.87 1.17 1.41 1.41 0 0 1-1.64-0.56 4 4 0 0 1-0.58-1.77l-0.73-4.44a1.06 1.06 0 0 0-0.24-0.63 1.16 1.16 0 0 0-0.78-0.22q-2.78-0.08-5.55-0.06c-0.32-1 0.66-1.9 1.61-2.31s2.07-0.73 2.55-1.65c1-1.87-1.54-4.48-0.47-6.1 1.24-1.87 3.26 0 4.88 0.8z"/>
  <path d="m181.36 42.71c3.65-5 11.19 0.41 7.78 5.55-0.89 1.34-1.87 2.65-2.79 3.89-11.23 15.16-17 33.58-22.07 51.78-1.23 4.46-2.42 9.23-1 13.65-2-11.83-0.7-24 2.33-35.64s7.74-22.7 12.61-33.66a29.89 29.89 0 0 1 3.14-5.57z" opacity=".5"/>
  <path d="m254.23 74.6c7.58-0.23 8.54 11.26 1 11.86-2 0.16-4 0.21-5.88 0.26-23.2 0.63-45.14 9-66.22 18.09-5.18 2.22-10.61 4.72-13.63 9.47 9.5-11 22-19.1 35.33-25s27.48-9.82 41.66-13.46a36.63 36.63 0 0 1 7.74-1.22z"/>
  <path d="m252.17 102.85c4.79 0.18 3.71 7-1.11 7-1.26 0-2.52 0-3.72-0.1-14.63-0.59-29.62 3.45-44.16 7.89-3.57 1.09-7.34 2.33-9.93 5 7.57-6.09 16.59-10.32 25.81-13.25s18.67-4.64 28.09-6.18a25.56 25.56 0 0 1 5.02-0.36z" opacity=".5"/>
  <path d="m243.42 36.33c2.88-0.5 3.1 3.7 0.23 4.34-0.75 0.16-1.51 0.29-2.23 0.41-8.82 1.51-17.26 5.82-25.38 10.32-2 1.11-4.08 2.33-5.29 4.25a48.51 48.51 0 0 1 13.73-11.23 119.47 119.47 0 0 1 16-7.26 15.87 15.87 0 0 1 2.94-0.83z" opacity=".2"/>
  <path d="m168.44 237.97c-0.65 2.85-4.61 1.43-4.09-1.46 0.14-0.76 0.32-1.51 0.48-2.22 2-8.72 1.28-18.17 0.26-27.39-0.25-2.27-0.57-4.67-1.88-6.53a48.58 48.58 0 0 1 5 17 121.24 121.24 0 0 1 0.53 17.55 15.76 15.76 0 0 1-0.3 3.05z" opacity=".2"/>
  <path d="m241.58 219.01c2.25 3.81-3.28 3.56-5.7-0.26-0.64-1-1.22-2-1.79-3-6.85-11.65-17.27-23.18-27.77-34.32-2.58-2.73-5.37-5.61-8.62-7.43a135.59 135.59 0 0 1 22.58 19.3c6.74 7 12.69 14.39 18.52 21.72a35.89 35.89 0 0 1 2.78 3.99z" opacity=".5"/>
  <path d="m41.442 219.01c-2.25 3.81 3.28 3.56 5.7-0.26 0.64-1 1.23-2 1.79-3 6.85-11.65 17.28-23.18 27.77-34.32 2.58-2.73 5.37-5.61 8.62-7.43a135.59 135.59 0 0 0-22.58 19.3c-6.74 7-12.69 14.39-18.52 21.72a35.89 35.89 0 0 0-2.78 3.99z" opacity=".2"/>
  <path d="m114.63 237.97c0.65 2.85 4.61 1.43 4.09-1.46-0.14-0.76-0.32-1.51-0.48-2.22-2-8.72-1.28-18.17-0.26-27.39 0.25-2.27 0.57-4.67 1.87-6.53a48.77 48.77 0 0 0-5 17 119.83 119.83 0 0 0-0.53 17.55 15.76 15.76 0 0 0 0.31 3.05z" opacity=".2"/>
  <path d="m220.37 64.96c2.88-0.5 3.1 3.7 0.22 4.34-0.75 0.16-1.51 0.29-2.23 0.41-8.82 1.51-17.25 5.82-25.37 10.32-2 1.11-4.09 2.33-5.3 4.25a48.51 48.51 0 0 1 13.73-11.19 120.75 120.75 0 0 1 16-7.26 16 16 0 0 1 2.95-0.87z" opacity=".2"/>
  <path d="m193.47 8.7496c2.48-1.54 4.25 2.27 1.83 3.93-0.64 0.44-1.29 0.84-1.92 1.22-7.61 4.7-13.83 11.85-19.68 19.06-1.43 1.77-2.92 3.68-3.32 5.92a48.57 48.57 0 0 1 8.55-15.46 121.61 121.61 0 0 1 12.12-12.72 16 16 0 0 1 2.42-1.95z" opacity=".2"/>
  <path d="m287.9 147.53c7.31 3.76 1.13 14.09-6.38 10.66-2-0.9-3.88-1.9-5.71-2.85-22.33-11.58-48.28-15.85-73.79-19.14-6.27-0.8-12.94-1.51-18.73 1 15.79-4.45 32.59-4.82 48.85-2.93s32 6 47.71 10.26a43 43 0 0 1 8.05 3z"/>
  <path d="m267.02 187.72c5.25 4.9-3 10.69-8.46 6-1.44-1.23-2.81-2.53-4.12-3.76-16-15-37.16-25.72-58.22-35.57-5.17-2.42-26.45-4.89-32.13-4.76 14.84 1.33 45.15 6 58.62 12.09s25.94 13.73 38.22 21.45a40.86 40.86 0 0 1 6.09 4.55z" opacity=".5"/>
  <path d="m205.17 259.88c0.64 7.15-9.33 6-10.29-1.19-0.26-1.88-0.41-3.76-0.57-5.55-1.9-21.87-10.53-44-19.65-65.34-2.23-5.24-16.44-21.28-20.76-25 10.17 10.88 29.65 34.55 35.61 48.09s10.17 27.54 14.17 41.48a41.87 41.87 0 0 1 1.49 7.51z"/>
  <path d="m211.17 17.99a1.15 1.15 0 0 1-0.62 0.18c-0.39 0-0.67-0.4-0.84-0.76-0.89-1.94-0.38-4.46-1.75-6.09a20.73 20.73 0 0 0-3.34 5.59l-5.25-1.62a7.84 7.84 0 0 0 1 6 8.25 8.25 0 0 0-2.47 1.68 2.75 2.75 0 0 0-0.64 2.78 13.22 13.22 0 0 0 3.71 0.37 24.22 24.22 0 0 0 0.39 6.9 1.26 1.26 0 0 0 0.45 0.87c0.39 0.25 0.89 0 1.28-0.21a12.18 12.18 0 0 0 4.32-4.58l2 4.66a2 2 0 0 0 0.87 1.17 1.41 1.41 0 0 0 1.64-0.56 4.3 4.3 0 0 0 0.58-1.77l0.73-4.44a1.06 1.06 0 0 1 0.24-0.63 1.13 1.13 0 0 1 0.77-0.22c1.86-0.05 3.71-0.07 5.56-0.06 0.32-1-0.67-1.9-1.61-2.31s-2.08-0.73-2.55-1.65c-1-1.87 1.53-4.48 0.47-6.1-1.35-1.87-3.37 0-4.94 0.8z"/>
  <path d="m226.96 234.15a1.42 1.42 0 0 1-0.62 0.18c-0.4 0-0.68-0.4-0.84-0.76-0.9-1.94-0.38-4.46-1.76-6.1a21.48 21.48 0 0 0-3.34 5.6l-5.23-1.65a7.82 7.82 0 0 0 1 6 8.17 8.17 0 0 0-2.48 1.68 2.75 2.75 0 0 0-0.64 2.78 13.6 13.6 0 0 0 3.71 0.37 24.5 24.5 0 0 0 0.39 6.89 1.32 1.32 0 0 0 0.45 0.88 1.27 1.27 0 0 0 1.28-0.21 12.18 12.18 0 0 0 4.32-4.58l2 4.66a2.12 2.12 0 0 0 0.87 1.17 1.42 1.42 0 0 0 1.64-0.57 4 4 0 0 0 0.58-1.77l0.73-4.43a0.83 0.83 0 0 1 1-0.85c1.85-0.06 3.7-0.07 5.55-0.06 0.32-1-0.66-1.9-1.61-2.31s-2.07-0.73-2.55-1.65c-1-1.88 1.54-4.49 0.47-6.1-1.29-1.85-3.31 0.02-4.92 0.83z" opacity=".2"/>
  <path d="m271.43 89.25a1.25 1.25 0 0 1-0.61 0.19 1.13 1.13 0 0 1-0.84-0.76c-0.9-1.95-0.38-4.46-1.76-6.1a20.79 20.79 0 0 0-3.34 5.6l-5.25-1.63a7.86 7.86 0 0 0 1 6 8.07 8.07 0 0 0-2.47 1.68 2.74 2.74 0 0 0-0.64 2.77 13.22 13.22 0 0 0 3.71 0.37 24.2 24.2 0 0 0 0.39 6.9 1.32 1.32 0 0 0 0.45 0.88 1.28 1.28 0 0 0 1.28-0.22 12.23 12.23 0 0 0 4.32-4.57l2 4.66a2.06 2.06 0 0 0 0.87 1.16 1.4 1.4 0 0 0 1.64-0.56 4.16 4.16 0 0 0 0.58-1.77l0.73-4.44a1.06 1.06 0 0 1 0.24-0.62 1.11 1.11 0 0 1 0.78-0.23c1.85 0 3.7-0.07 5.55 0 0.32-1-0.66-1.9-1.61-2.32s-2.07-0.72-2.55-1.64c-1-1.88 1.54-4.49 0.47-6.1-1.3-1.92-3.32-0.08-4.94 0.75z"/>
  <path d="m93.612 255.83a1.78 1.78 0 0 1-0.86 0.25c-0.56 0-0.94-0.56-1.17-1.06-1.25-2.71-0.53-6.21-2.45-8.49a29.06 29.06 0 0 0-4.65 7.8l-7.31-2.27a10.84 10.84 0 0 0 1.39 8.38 11.44 11.44 0 0 0-3.45 2.34 3.84 3.84 0 0 0-0.89 3.87 18.67 18.67 0 0 0 5.16 0.52 34.06 34.06 0 0 0 0.55 9.61 1.35 1.35 0 0 0 2.41 0.92 16.92 16.92 0 0 0 6-6.38l2.72 6.5a2.87 2.87 0 0 0 1.21 1.62 1.93 1.93 0 0 0 2.28-0.78 5.69 5.69 0 0 0 0.81-2.47l1-6.18a1.55 1.55 0 0 1 0.33-0.87 1.52 1.52 0 0 1 1.08-0.31c2.58-0.08 5.17-0.1 7.75-0.08 0.44-1.37-0.93-2.65-2.25-3.23s-2.89-1-3.55-2.29c-1.35-2.62 2.14-6.25 0.66-8.5-1.7-2.63-4.52-0.02-6.77 1.1z"/>
  <path d="m19.622 93.58a1.78 1.78 0 0 1-0.86 0.25c-0.55 0-0.94-0.55-1.17-1.06-1.25-2.7-0.53-6.21-2.45-8.49a29.21 29.21 0 0 0-4.65 7.8l-7.32-2.27a10.88 10.88 0 0 0 1.38 8.38 11.41 11.41 0 0 0-3.45 2.35 3.83 3.83 0 0 0-0.89 3.87 18.66 18.66 0 0 0 5.16 0.51 34.43 34.43 0 0 0 0.55 9.61 1.8 1.8 0 0 0 0.63 1.22 1.76 1.76 0 0 0 1.78-0.29 17 17 0 0 0 6-6.38l2.72 6.49a2.93 2.93 0 0 0 1.21 1.63 2 2 0 0 0 2.28-0.79 5.56 5.56 0 0 0 0.81-2.46l1-6.19a1.49 1.49 0 0 1 0.34-0.87 1.54 1.54 0 0 1 1.08-0.31q3.87-0.1 7.74-0.08c0.44-1.37-0.93-2.65-2.25-3.23s-2.89-1-3.54-2.29c-1.35-2.61 2.13-6.25 0.65-8.5-1.68-2.63-4.49-0.06-6.75 1.1z"/>
  <path d="m244.17 194.05a0.88 0.88 0 0 1-0.46 0.14c-0.3 0-0.5-0.3-0.62-0.56-0.67-1.44-0.28-3.3-1.3-4.52a15.31 15.31 0 0 0-2.47 4.15l-3.89-1.21a5.83 5.83 0 0 0 0.73 4.46 5.71 5.71 0 0 0-1.82 1.24 2 2 0 0 0-0.48 2.06 10.12 10.12 0 0 0 2.74 0.27 18.18 18.18 0 0 0 0.3 5.1 0.9 0.9 0 0 0 0.33 0.65c0.28 0.18 0.66 0 1-0.15a9.11 9.11 0 0 0 3.19-3.39l1.45 3.45a1.52 1.52 0 0 0 0.64 0.86 1 1 0 0 0 1.21-0.42 3 3 0 0 0 0.43-1.31l0.54-3.28a0.85 0.85 0 0 1 0.18-0.47 0.83 0.83 0 0 1 0.58-0.16c1.37 0 2.74-0.05 4.11 0 0.23-0.73-0.5-1.41-1.2-1.72s-1.53-0.53-1.88-1.21c-0.72-1.39 1.13-3.32 0.35-4.52-1.01-1.44-2.51-0.09-3.66 0.54z" opacity=".2"/>
  <path d="m143.62 252.08a1.07 1.07 0 0 1-0.46 0.14c-0.29 0-0.49-0.3-0.62-0.57-0.66-1.44-0.28-3.3-1.3-4.51a15.51 15.51 0 0 0-2.47 4.14l-3.88-1.2a5.76 5.76 0 0 0 0.73 4.45 6 6 0 0 0-1.83 1.25 2 2 0 0 0-0.48 2.05 10.2 10.2 0 0 0 2.75 0.28 17.83 17.83 0 0 0 0.29 5.1 1 1 0 0 0 0.33 0.65 0.94 0.94 0 0 0 0.95-0.16 9 9 0 0 0 3.2-3.39l1.44 3.45a1.56 1.56 0 0 0 0.65 0.87 1.05 1.05 0 0 0 1.21-0.42 3.12 3.12 0 0 0 0.43-1.31l0.54-3.29a0.78 0.78 0 0 1 0.18-0.46 0.8 0.8 0 0 1 0.57-0.16c1.37 0 2.74-0.06 4.11-0.05 0.24-0.72-0.49-1.4-1.19-1.71s-1.53-0.54-1.89-1.22c-0.71-1.39 1.14-3.32 0.35-4.51-0.92-1.4-2.41-0.01-3.61 0.58z" opacity=".2"/>
  <path d="m46.362 48.98a1 1 0 0 1-0.46 0.14c-0.3 0-0.5-0.3-0.62-0.56-0.67-1.44-0.28-3.3-1.3-4.52a15.31 15.31 0 0 0-2.47 4.15l-3.89-1.21a5.79 5.79 0 0 0 0.74 4.46 5.64 5.64 0 0 0-1.83 1.24 2 2 0 0 0-0.48 2.05 9.75 9.75 0 0 0 2.74 0.28 18.18 18.18 0 0 0 0.3 5.1 0.94 0.94 0 0 0 0.33 0.65c0.28 0.18 0.66 0 0.95-0.15a9.11 9.11 0 0 0 3.19-3.39l1.45 3.45a1.52 1.52 0 0 0 0.64 0.86 1 1 0 0 0 1.21-0.42 3 3 0 0 0 0.43-1.31l0.54-3.28a0.85 0.85 0 0 1 0.18-0.47 0.83 0.83 0 0 1 0.58-0.16c1.37 0 2.74-0.05 4.11 0 0.23-0.73-0.5-1.41-1.2-1.72s-1.53-0.53-1.88-1.21c-0.72-1.39 1.13-3.32 0.35-4.52-0.92-1.44-2.42-0.02-3.61 0.54z" opacity=".5"/>
  <path d="m98.172 163.42a0.91 0.91 0 0 1-0.45 0.14c-0.3 0-0.5-0.3-0.63-0.56-0.66-1.44-0.28-3.3-1.29-4.52a15.6 15.6 0 0 0-2.48 4.15l-3.93-1.21a5.83 5.83 0 0 0 0.73 4.46 5.87 5.87 0 0 0-1.83 1.24 2 2 0 0 0-0.47 2 9.71 9.71 0 0 0 2.74 0.28 18.56 18.56 0 0 0 0.29 5.1 0.91 0.91 0 0 0 0.34 0.65c0.28 0.18 0.66 0 0.94-0.15a9.05 9.05 0 0 0 3.2-3.39l1.45 3.45a1.52 1.52 0 0 0 0.64 0.86 1 1 0 0 0 1.21-0.42 3.08 3.08 0 0 0 0.43-1.31l0.54-3.28a0.85 0.85 0 0 1 0.18-0.47 0.8 0.8 0 0 1 0.57-0.16h4.12c0.23-0.73-0.5-1.41-1.2-1.72s-1.53-0.53-1.88-1.21c-0.72-1.39 1.13-3.32 0.35-4.52-0.92-1.41-2.42 0.01-3.57 0.59z" opacity=".5"/>
  <path d="m60.552 118.82a0.9 0.9 0 0 1-0.45 0.13c-0.3 0-0.5-0.29-0.63-0.56-0.66-1.44-0.28-3.3-1.3-4.51a15.51 15.51 0 0 0-2.47 4.14l-3.88-1.2a5.8 5.8 0 0 0 0.73 4.45 6.1 6.1 0 0 0-1.83 1.24 2 2 0 0 0-0.47 2.06 9.7 9.7 0 0 0 2.74 0.27 18.25 18.25 0 0 0 0.29 5.11 1 1 0 0 0 0.34 0.65c0.28 0.18 0.65 0 0.94-0.16a9.05 9.05 0 0 0 3.2-3.39l1.45 3.45a1.49 1.49 0 0 0 0.64 0.86 1 1 0 0 0 1.21-0.41 3.17 3.17 0 0 0 0.43-1.31l0.54-3.29a0.82 0.82 0 0 1 0.18-0.46 0.81 0.81 0 0 1 0.57-0.17c1.37 0 2.74-0.05 4.11 0 0.24-0.73-0.49-1.4-1.19-1.71s-1.53-0.54-1.88-1.22c-0.72-1.39 1.13-3.32 0.34-4.52-0.91-1.43-2.41-0.05-3.61 0.55z" opacity=".5"/>
  <path d="m221.92 129.32a0.91 0.91 0 0 1-0.45 0.14c-0.3 0-0.5-0.3-0.62-0.57-0.67-1.43-0.29-3.3-1.3-4.51a15.31 15.31 0 0 0-2.47 4.15l-3.91-1.21a5.8 5.8 0 0 0 0.73 4.45 6.07 6.07 0 0 0-1.83 1.25 2 2 0 0 0-0.47 2.05 10.09 10.09 0 0 0 2.74 0.28 18.56 18.56 0 0 0 0.29 5.1 0.94 0.94 0 0 0 0.34 0.65c0.28 0.18 0.66 0 0.94-0.16a8.91 8.91 0 0 0 3.2-3.39l1.45 3.45a1.55 1.55 0 0 0 0.64 0.87 1 1 0 0 0 1.21-0.42 3.12 3.12 0 0 0 0.43-1.31l0.54-3.28a0.85 0.85 0 0 1 0.18-0.47 0.8 0.8 0 0 1 0.57-0.16c1.37 0 2.75-0.05 4.12 0 0.23-0.73-0.5-1.41-1.2-1.72s-1.53-0.54-1.88-1.22c-0.72-1.39 1.13-3.32 0.35-4.51-0.9-1.44-2.35-0.05-3.6 0.54z" opacity=".5"/>
  <path d="m143.62 120.54a1 1 0 0 1-0.46 0.14c-0.29 0-0.49-0.3-0.62-0.56-0.66-1.44-0.28-3.3-1.3-4.52a15.57 15.57 0 0 0-2.47 4.15l-3.88-1.21a5.79 5.79 0 0 0 0.73 4.46 5.75 5.75 0 0 0-1.83 1.24 2 2 0 0 0-0.48 2.05 9.82 9.82 0 0 0 2.75 0.28 17.81 17.81 0 0 0 0.29 5.1 0.94 0.94 0 0 0 0.33 0.65 1 1 0 0 0 0.95-0.15 9.13 9.13 0 0 0 3.2-3.39l1.44 3.45a1.54 1.54 0 0 0 0.65 0.86 1 1 0 0 0 1.21-0.42 3.08 3.08 0 0 0 0.43-1.31l0.54-3.28a0.78 0.78 0 0 1 0.18-0.47 0.8 0.8 0 0 1 0.57-0.16c1.37 0 2.74-0.05 4.11 0 0.24-0.73-0.49-1.41-1.19-1.72s-1.53-0.53-1.89-1.21c-0.71-1.39 1.14-3.32 0.35-4.52-0.92-1.44-2.41-0.05-3.61 0.54z" opacity=".2"/>
  <path d="m119.05 131.23a1 1 0 0 1-0.46 0.14c-0.29 0-0.5-0.3-0.62-0.56-0.66-1.44-0.28-3.31-1.3-4.52a15.57 15.57 0 0 0-2.5 4.13l-3.89-1.21a5.79 5.79 0 0 0 0.74 4.46 5.75 5.75 0 0 0-1.83 1.24 2 2 0 0 0-0.48 2.05 9.82 9.82 0 0 0 2.75 0.28 17.81 17.81 0 0 0 0.29 5.1 0.94 0.94 0 0 0 0.33 0.65 1 1 0 0 0 0.95-0.15 9.13 9.13 0 0 0 3.2-3.39l1.44 3.45a1.56 1.56 0 0 0 0.64 0.86 1 1 0 0 0 1.22-0.42 2.94 2.94 0 0 0 0.42-1.31l0.54-3.28a0.93 0.93 0 0 1 0.18-0.47 0.83 0.83 0 0 1 0.58-0.16c1.37 0 2.74-0.05 4.11 0 0.24-0.73-0.49-1.41-1.19-1.72s-1.54-0.53-1.89-1.21c-0.71-1.39 1.14-3.32 0.35-4.52-0.89-1.42-2.38-0.03-3.58 0.56z" opacity=".3"/>
  <path d="m96.172 66.54a1 1 0 0 1-0.46 0.14c-0.3 0-0.5-0.3-0.62-0.57-0.66-1.43-0.28-3.3-1.3-4.51a15.41 15.41 0 0 0-2.47 4.14l-3.89-1.2a5.76 5.76 0 0 0 0.74 4.45 5.83 5.83 0 0 0-1.83 1.25 2 2 0 0 0-0.48 2.05 10.13 10.13 0 0 0 2.74 0.28 18.2 18.2 0 0 0 0.3 5.1 0.94 0.94 0 0 0 0.33 0.65c0.28 0.18 0.66 0 0.95-0.16a9 9 0 0 0 3.19-3.39l1.45 3.45a1.55 1.55 0 0 0 0.64 0.87 1 1 0 0 0 1.21-0.42 3 3 0 0 0 0.43-1.31l0.54-3.28a0.85 0.85 0 0 1 0.18-0.47 0.83 0.83 0 0 1 0.58-0.16c1.37 0 2.74-0.06 4.11-0.05 0.23-0.72-0.49-1.4-1.2-1.71s-1.53-0.54-1.88-1.22c-0.72-1.39 1.13-3.32 0.35-4.51-0.94-1.4-2.44-0.01-3.61 0.58z" opacity=".2"/>
  <path d="m141.26 150.96a0.91 0.91 0 0 1-0.46 0.13c-0.29 0-0.49-0.29-0.62-0.56-0.66-1.44-0.28-3.3-1.3-4.51a15.51 15.51 0 0 0-2.47 4.14l-3.88-1.2a5.76 5.76 0 0 0 0.73 4.45 6.1 6.1 0 0 0-1.83 1.24 2 2 0 0 0-0.47 2.06 9.7 9.7 0 0 0 2.74 0.27 18.25 18.25 0 0 0 0.29 5.11 1 1 0 0 0 0.33 0.65 0.94 0.94 0 0 0 1-0.16 9.06 9.06 0 0 0 3.2-3.39l1.44 3.45a1.61 1.61 0 0 0 0.65 0.87 1.05 1.05 0 0 0 1.21-0.42 3.12 3.12 0 0 0 0.43-1.31l0.54-3.29a0.85 0.85 0 0 1 0.18-0.46 0.81 0.81 0 0 1 0.57-0.17c1.37 0 2.74-0.05 4.11 0 0.24-0.73-0.49-1.4-1.19-1.71s-1.53-0.54-1.88-1.22c-0.72-1.39 1.13-3.32 0.34-4.51-0.96-1.44-2.46-0.06-3.66 0.54z" opacity=".3"/>
 </g>
</svg>
