<?xml version="1.0" encoding="UTF-8" standalone="no"?>
<svg
   data-name="Layer 1"
   width="722.45196"
   height="364.19648"
   viewBox="0 0 722.45196 364.19648"
   version="1.1"
   id="svg96"
   sodipodi:docname="people5.svg"
   inkscape:version="1.2.1 (9c6d41e410, 2022-07-14)"
   xmlns:inkscape="http://www.inkscape.org/namespaces/inkscape"
   xmlns:sodipodi="http://sodipodi.sourceforge.net/DTD/sodipodi-0.dtd"
   xmlns="http://www.w3.org/2000/svg"
   xmlns:svg="http://www.w3.org/2000/svg">
  <defs
     id="defs100" />
  <sodipodi:namedview
     id="namedview98"
     pagecolor="#ffffff"
     bordercolor="#666666"
     borderopacity="1.0"
     inkscape:showpageshadow="2"
     inkscape:pageopacity="0.0"
     inkscape:pagecheckerboard="0"
     inkscape:deskcolor="#d1d1d1"
     showgrid="false"
     inkscape:zoom="1.39645"
     inkscape:cx="282.50206"
     inkscape:cy="153.24573"
     inkscape:window-width="1600"
     inkscape:window-height="831"
     inkscape:window-x="179"
     inkscape:window-y="1112"
     inkscape:window-maximized="1"
     inkscape:current-layer="svg96" />
  <path
     d="M891.45711,564.13287H342.14841a26.51638,26.51638,0,0,1-26.48658-26.48658V329.2084a26.51674,26.51674,0,0,1,26.48658-26.48658h549.3087a26.51674,26.51674,0,0,1,26.48658,26.48658V537.64629A26.51638,26.51638,0,0,1,891.45711,564.13287Z"
     transform="translate(-238.77402 -267.90176)"
     fill="#fff"
     id="path2" />
  <path
     d="M891.45711,564.13287H342.14841a26.51638,26.51638,0,0,1-26.48658-26.48658V329.2084a26.51674,26.51674,0,0,1,26.48658-26.48658h549.3087a26.51674,26.51674,0,0,1,26.48658,26.48658V537.64629A26.51638,26.51638,0,0,1,891.45711,564.13287ZM342.14841,305.025a24.1834,24.1834,0,0,0-24.1834,24.1834V537.64629a24.1834,24.1834,0,0,0,24.1834,24.1834h549.3087a24.1834,24.1834,0,0,0,24.1834-24.1834V459.054A154.029,154.029,0,0,0,761.61156,305.025Z"
     transform="translate(-238.77402 -267.90176)"
     fill="#e6e6e6"
     id="path4" />
  <ellipse
     cx="294.66589"
     cy="607.92128"
     rx="2.82511"
     ry="4.06109"
     transform="translate(-588.12138 544.08622) rotate(-81.72174)"
     fill="#fff"
     id="ellipse6" />
  <ellipse
     cx="321.09158"
     cy="605.34272"
     rx="2.8251"
     ry="4.06109"
     transform="translate(-562.94877 568.02927) rotate(-81.72174)"
     fill="#3f3d56"
     id="ellipse8" />
  <ellipse
     cx="287.42975"
     cy="586.52763"
     rx="2.82511"
     ry="4.06109"
     transform="translate(-573.14491 518.61211) rotate(-81.72174)"
     fill="#ff6584"
     id="ellipse10" />
  <ellipse
     cx="278.18048"
     cy="578.33571"
     rx="2.56661"
     ry="1.78547"
     transform="translate(-541.01619 584.23337) rotate(-89.56675)"
     fill="#e6e6e6"
     id="ellipse12" />
  <ellipse
     cx="274.28649"
     cy="562.01344"
     rx="2.56661"
     ry="1.78547"
     transform="translate(-528.55893 564.14064) rotate(-89.56675)"
     fill="#3f3d56"
     id="ellipse14" />
  <ellipse
     cx="304.56743"
     cy="590.7395"
     rx="2.56661"
     ry="1.78547"
     transform="translate(-527.2322 622.92957) rotate(-89.56675)"
     fill="#e6e6e6"
     id="ellipse16" />
  <ellipse
     cx="291.79739"
     cy="597.11543"
     rx="2.56661"
     ry="1.78547"
     transform="translate(-546.28142 616.48761) rotate(-89.56675)"
     fill="#ff6584"
     id="ellipse18" />
  <ellipse
     cx="309.57373"
     cy="608.89981"
     rx="2.56661"
     ry="1.78547"
     transform="translate(-540.42354 645.95872) rotate(-89.56675)"
     fill="#3f3d56"
     id="ellipse20" />
  <ellipse
     cx="932.08298"
     cy="274.37106"
     rx="3.60111"
     ry="5.1766"
     transform="translate(198.37253 842.58896) rotate(-75.77932)"
     fill="#fff"
     id="ellipse22" />
  <ellipse
     cx="898.23933"
     cy="274.15294"
     rx="3.60111"
     ry="5.1766"
     transform="translate(173.05426 809.61785) rotate(-75.77932)"
     fill="#3f3d56"
     id="ellipse24" />
  <ellipse
     cx="938.43394"
     cy="302.44956"
     rx="3.60111"
     ry="5.1766"
     transform="translate(175.94525 869.92612) rotate(-75.77932)"
     fill="#ff6584"
     id="ellipse26" />
  <ellipse
     cx="949.07942"
     cy="314.05614"
     rx="3.27161"
     ry="2.2759"
     transform="translate(292.79924 954.48891) rotate(-83.62433)"
     fill="#e6e6e6"
     id="ellipse28" />
  <ellipse
     cx="951.86235"
     cy="335.26393"
     rx="3.27161"
     ry="2.2759"
     transform="matrix(0.11105, -0.99382, 0.99382, 0.11105, 274.19651, 976.10735)"
     fill="#3f3d56"
     id="ellipse30" />
  <ellipse
     cx="917.26206"
     cy="294.84801"
     rx="3.27161"
     ry="2.2759"
     transform="translate(283.60443 905.79321) rotate(-83.62433)"
     fill="#e6e6e6"
     id="ellipse32" />
  <ellipse
     cx="934.29374"
     cy="288.44962"
     rx="3.27161"
     ry="2.2759"
     transform="translate(305.10362 917.03168) rotate(-83.62433)"
     fill="#ff6584"
     id="ellipse34" />
  <ellipse
     cx="913.31146"
     cy="271.16311"
     rx="3.27161"
     ry="2.2759"
     transform="translate(303.63095 880.81227) rotate(-83.62433)"
     fill="#3f3d56"
     id="ellipse36" />
  <path
     d="M535.37467,429.18554a84.29076,84.29076,0,0,1-21.6269,56.497v.01153a86.56041,86.56041,0,0,1-6.2416,6.26465,83.40511,83.40511,0,0,1-7.02468,5.70039q-2.5566,1.8655-5.25125,3.52387-3.19572,1.98642-6.5756,3.67357-2.50473,1.261-5.11307,2.34922a84.48558,84.48558,0,0,1-32.78575,6.59859,84.49842,84.49842,0,0,1-18.89764-2.11888,81.105,81.105,0,0,1-8.47569-2.41839c-1.071-.357-2.14194-.74849-3.20145-1.163a83.49857,83.49857,0,0,1-18.13755-9.731,84.61752,84.61752,0,1,1,133.33118-69.18758Z"
     transform="translate(-238.77402 -267.90176)"
     fill="#f2f2f2"
     id="path38" />
  <path
     d="M788.63254,366.28377h-146.252a4.60637,4.60637,0,0,1,0-9.21273h146.252a4.60636,4.60636,0,0,1,0,9.21273Z"
     transform="translate(-238.77402 -267.90176)"
     fill="#386ede"
     id="path40"
     style="fill:#386ede;fill-opacity:1" />
  <path
     d="M788.63254,428.46966h-146.252a4.60637,4.60637,0,0,1,0-9.21273h146.252a4.60637,4.60637,0,0,1,0,9.21273Z"
     transform="translate(-238.77402 -267.90176)"
     fill="#e6e6e6"
     id="path42" />
  <path
     d="M788.63254,490.65555h-146.252a4.60637,4.60637,0,0,1,0-9.21273h146.252a4.60636,4.60636,0,0,1,0,9.21273Z"
     transform="translate(-238.77402 -267.90176)"
     fill="#e6e6e6"
     id="path44" />
  <path
     d="M835.501,385.26038H594.65038a1,1,0,0,1,0-2H835.501a1,1,0,0,1,0,2Z"
     transform="translate(-238.77402 -267.90176)"
     fill="#e6e6e6"
     id="path74" />
  <path
     d="M835.501,447.26038H594.65038a1,1,0,0,1,0-2H835.501a1,1,0,0,1,0,2Z"
     transform="translate(-238.77402 -267.90176)"
     fill="#e6e6e6"
     id="path76" />
  <path
     d="M835.501,509.25989H594.65038a1,1,0,0,1,0-2H835.501a1,1,0,0,1,0,2Z"
     transform="translate(-238.77402 -267.90176)"
     fill="#e6e6e6"
     id="path78" />
  <path
     d="M871.34975,505.29571a36.99814,36.99814,0,0,1-24.04583-8.87946c-2.23542-1.91351-4.61728-5.24016-7.07922-9.88687a22.61063,22.61063,0,0,1-.71712-19.52,25.94482,25.94482,0,0,1-4.28456,3.51434l-.78332.52119-.04525-.93927c-.0297-.61092-.04474-1.21978-.04474-1.80962,0-3.47617,2.62916-7.00353,1.41661-10.21662-5.11059-13.54237-21.3201-27.00077,2.17243-47.95951,2.1732-1.93881-.72984-5.81521-.72984-8.74859,0-28.74783,40.63049-78.48249,52.146-52.1358,14.20149,32.49212,38.66868,29.0167,49.50789,35.72792l.15724.47478-.46333.18744a27.94531,27.94531,0,0,1-7.42493,1.97483,35.40687,35.40687,0,0,0,8.27909.69359l.43068-.01505.1049.4186a52.37377,52.37377,0,0,1,1.55456,12.67369l-.00192.46179a23.09253,23.09253,0,0,0,7.62843,17.21859A37.08367,37.08367,0,0,1,961.226,446.4161c0,6.09444-4.14211,14.09442-7.617,19.73247a11.158,11.158,0,0,1-8.19115,5.24658,10.89679,10.89679,0,0,1-8.79423-2.84094,36.036,36.036,0,0,0,6.35491,8.99722l.47413.48854-.58868.343a36.971,36.971,0,0,1-18.63752,5.03317l-.38349-.001a36.091,36.091,0,0,0-25.89133,10.56773A37.27947,37.27947,0,0,1,871.34975,505.29571Z"
     transform="translate(-238.77402 -267.90176)"
     fill="#e6e6e6"
     id="path80" />
  <path
     d="M858.62018,563.8901a.66537.66537,0,0,1-.65794-.57162,222.78689,222.78689,0,0,1-.31039-46.71056c2.29665-24.51173,9.67211-59.81725,31.76611-88.81311a.66542.66542,0,1,1,1.05854.80663c-21.90317,28.74547-29.21917,63.79193-31.49963,88.13059a221.27956,221.27956,0,0,0,.30292,46.39887.666.666,0,0,1-.65961.7592Z"
     transform="translate(-238.77402 -267.90176)"
     fill="#3f3d56"
     id="path82" />
  <path
     d="M876.65019,468.6948a.66541.66541,0,0,1-.39173-1.20367,91.70936,91.70936,0,0,1,20.24621-10.30643c11.1702-4.08948,28.15614-7.79687,45.64287-2.23145a.66533.66533,0,1,1-.40353,1.268c-17.12847-5.45105-33.80651-1.805-44.78176,2.21325a90.20269,90.20269,0,0,0-19.92141,10.13315A.66278.66278,0,0,1,876.65019,468.6948Z"
     transform="translate(-238.77402 -267.90176)"
     fill="#3f3d56"
     id="path84" />
  <path
     d="M846.19588,392.84452a.66541.66541,0,0,1,1.17233-.4774,91.7099,91.7099,0,0,1,11.7377,19.45143c4.88328,10.84668,9.80428,27.52154,5.51262,45.36366a.66533.66533,0,1,1-1.29376-.31117c4.20339-17.47655-.6343-33.84872-5.43247-44.5061A90.20263,90.20263,0,0,0,846.35082,393.225.66277.66277,0,0,1,846.19588,392.84452Z"
     transform="translate(-238.77402 -267.90176)"
     fill="#3f3d56"
     id="path86" />
  <path
     d="M302.04837,491.98387A36.091,36.091,0,0,0,276.157,481.41614l-.38349.001A36.971,36.971,0,0,1,257.136,476.384l-.58868-.343.47413-.48854a36.036,36.036,0,0,0,6.35491-8.99722,10.89679,10.89679,0,0,1-8.79423,2.84094,11.158,11.158,0,0,1-8.19115-5.24658c-3.47488-5.63805-7.617-13.638-7.617-19.73247a37.08367,37.08367,0,0,1,12.09851-27.36438,23.09253,23.09253,0,0,0,7.62843-17.21859l-.00192-.46179a52.37377,52.37377,0,0,1,1.55456-12.67369l.1049-.4186.43068.015a35.40633,35.40633,0,0,0,8.27909-.69358,27.94531,27.94531,0,0,1-7.42493-1.97483l-.46333-.18744.15724-.47478c10.83921-6.71122,35.3064-3.2358,49.50789-35.72792,11.51546-26.34669,52.14595,23.388,52.14595,52.1358,0,2.93338-2.903,6.80978-.72984,8.74859,23.49253,20.95874,7.283,34.41714,2.17243,47.9595-1.21255,3.2131,1.41661,6.74046,1.41661,10.21662,0,.58984-.015,1.19871-.04474,1.80963l-.04525.93927-.78332-.52119a25.94435,25.94435,0,0,1-4.28456-3.51435,22.61065,22.61065,0,0,1-.71712,19.52c-2.46194,4.64671-4.8438,7.97336-7.07922,9.88687a36.96338,36.96338,0,0,1-50.64771-2.43341Z"
     transform="translate(-238.77402 -267.90176)"
     fill="#e6e6e6"
     id="path88" />
  <path
     d="M341.37982,561.89113a.66538.66538,0,0,0,.65794-.57162,222.78689,222.78689,0,0,0,.31039-46.71056c-2.29665-24.51173-9.67211-59.81725-31.76611-88.81311a.66542.66542,0,1,0-1.05854.80663c21.90317,28.74546,29.21917,63.79193,31.49963,88.13059a221.27956,221.27956,0,0,1-.30292,46.39887.666.666,0,0,0,.65961.7592Z"
     transform="translate(-238.77402 -267.90176)"
     fill="#3f3d56"
     id="path90" />
  <path
     d="M323.34981,466.69582a.6654.6654,0,0,0,.39173-1.20366,91.70936,91.70936,0,0,0-20.24621-10.30643c-11.1702-4.08948-28.15614-7.79687-45.64287-2.23145a.66533.66533,0,1,0,.40353,1.268c17.12847-5.451,33.80651-1.80495,44.78176,2.21326a90.20269,90.20269,0,0,1,19.92141,10.13315A.66284.66284,0,0,0,323.34981,466.69582Z"
     transform="translate(-238.77402 -267.90176)"
     fill="#3f3d56"
     id="path92" />
  <path
     d="M353.80412,390.84555a.6654.6654,0,0,0-1.17233-.4774,91.7099,91.7099,0,0,0-11.7377,19.45143c-4.88328,10.84668-9.80428,27.52154-5.51262,45.36366a.66533.66533,0,1,0,1.29376-.31117c-4.20339-17.47655.6343-33.84872,5.43247-44.5061A90.20231,90.20231,0,0,1,353.64918,391.226.66277.66277,0,0,0,353.80412,390.84555Z"
     transform="translate(-238.77402 -267.90176)"
     fill="#3f3d56"
     id="path94" />
  <g
     id="g664"
     transform="translate(-181.35802,119.08886)">
    <path
       d="m 408.20979,50.38513 -25.66813,4.73752 -2.02258,11.48454 -15.53439,7.43609 -8.07702,84.4428 c 0,0 -13.50433,17.56819 -2.69414,22.96862 l 68.9007,-6.77904 c 0,0 3.37327,-12.4903 -0.005,-13.67529 -3.378,-1.18499 -3.38832,-31.01955 -3.38832,-31.01955 l 15.51573,-61.36599 -22.97048,-8.09829 z"
       fill="#e6e6e6"
       id="path319"
       style="fill:#737878;fill-opacity:1" />
    <circle
       cx="393.06995"
       cy="29.43589"
       r="20.7276"
       fill="#a0616a"
       id="circle321" />
    <path
       d="m 406.79605,32.51227 c -1.65401,0.9055 -0.0847,5.22869 -1.11848,5.60245 -1.19492,0.43202 -5.55162,-4.52715 -5.60554,-10.08176 -0.0163,-1.68115 0.37051,-2.48839 -0.002,-4.48164 -0.48668,-2.6073 -1.98045,-5.68253 -3.36317,-5.60089 -0.81965,0.04839 -1.62013,1.20723 -1.67986,2.2414 -0.0837,1.44941 1.32419,2.01989 1.12139,2.80064 -0.38627,1.4871 -6.29829,2.5138 -8.40308,0.0029 -1.65013,-1.9685 -0.38463,-5.4247 -1.12236,-5.60167 -0.54378,-0.13045 -1.12759,1.77241 -3.35988,3.9226 -0.84103,0.8101 -2.09186,2.0149 -2.80044,1.68159 -1.02397,-0.48167 -0.28003,-3.87624 -0.56157,-3.92125 -0.23314,-0.03727 -0.37947,2.3487 -1.67908,4.48223 -1.66968,2.74103 -5.11398,4.85374 -6.72112,3.92377 -0.98466,-0.56978 -1.06245,-2.15606 -1.12158,-3.36084 -0.1245,-2.53816 -3.81308,-8.37644 -2.85882,-11.09166 1.94221,-5.5263 5.2701,-1.63078 6.7752,-3.47504 2.03756,-2.49669 3.86572,-1.15434 7.28133,-3.92396 3.33668,-2.70564 3.36577,-5.42504 5.60011,-5.604 2.01221,-0.16116 2.7278,1.98528 5.04242,1.67887 1.96079,-0.25957 2.38749,-1.92436 3.92087,-1.68198 1.40389,0.2219 1.49646,1.68849 3.36201,2.23966 1.19101,0.35188 1.45267,-0.15743 2.80103,-9.7e-4 2.80559,0.32556 4.69002,2.88083 5.043,3.35949 1.36081,1.84526 0.83282,2.62341 2.24236,4.48086 1.21555,1.6018 3.90913,0.9216 4.92189,1.72162 3.30928,2.61409 4.73124,7.43497 4.75994,12.92962 0.0201,3.8431 -0.48103,5.78482 -1.59913,10.63564 -0.84901,3.6834 -4.78175,8.44334 -6.94987,10.5659 -0.58199,0.56975 -2.21351,2.167 -3.36066,1.68178 -1.08704,-0.45979 -1.11995,-2.52764 -1.12139,-2.80064 -0.005,-0.93901 0.24521,-2.1009 2.23907,-5.04263 2.09442,-3.09006 2.92645,-3.44271 2.79948,-4.48262 -0.22445,-1.83818 -3.16424,-3.52123 -4.48263,-2.79948 h 1.2e-4 z"
       fill="#2f2e41"
       id="path323" />
    <g
       id="g329">
      <path
         d="m 334.49457,225.75979 c -0.64513,5.40264 1.61895,10.11513 5.05699,10.52567 3.43804,0.41054 6.7481,-3.63632 7.39324,-9.03898 0.28242,-2.36492 0.007,-4.59754 -0.6797,-6.39504 l 2.44642,-22.92684 -10.7834,-0.91891 -1.26717,22.69891 c -1.09088,1.58522 -1.88401,3.69026 -2.16639,6.05519 h 3e-5 z"
         fill="#a0616a"
         id="path325" />
      <path
         d="m 365.49095,73.49769 c 0,0 -5.58664,0.07946 -9.28568,7.30383 -1.96565,3.83897 -12.48211,75.62767 -12.48211,75.62767 l -9.68742,58.80847 16.50214,0.0831 12.859,-55.69302 10.81723,-32.30088 -8.72315,-53.82921 z"
         fill="#e6e6e6"
         id="path327"
         style="fill:#737878;fill-opacity:1" />
    </g>
    <path
       d="m 411.92961,217.13028 c -1.58023,5.20651 -0.17535,10.24237 3.13786,11.24797 3.31321,1.0056 7.28015,-2.39987 8.86035,-7.60638 0.69172,-2.27906 0.81133,-4.5254 0.44941,-6.41533 l 6.4191,-22.14543 -10.45641,-2.79098 -5.21815,22.12729 c -1.35133,1.36996 -2.50044,3.30383 -3.19216,5.58289 z"
       fill="#a0616a"
       id="path331" />
    <path
       d="m 423.41564,69.63219 c 0,0 8.10413,-6.08248 14.86262,3.37246 6.75846,9.45495 9.48742,87.1388 9.48742,87.1388 l -18.89796,47.96845 -14.18755,-4.72373 13.49008,-58.7749 -23.65861,-44.57614 18.90403,-30.40494 z"
       fill="#e6e6e6"
       id="path333"
       style="fill:#737878;fill-opacity:1" />
  </g>
</svg>
