<?xml version="1.0" encoding="UTF-8" standalone="no"?>
<svg
   data-name="Layer 1"
   width="722.45196"
   height="364.19648"
   viewBox="0 0 722.45196 364.19648"
   version="1.1"
   id="svg96"
   sodipodi:docname="people1.svg"
   inkscape:version="1.2.1 (9c6d41e410, 2022-07-14)"
   xmlns:inkscape="http://www.inkscape.org/namespaces/inkscape"
   xmlns:sodipodi="http://sodipodi.sourceforge.net/DTD/sodipodi-0.dtd"
   xmlns="http://www.w3.org/2000/svg"
   xmlns:svg="http://www.w3.org/2000/svg">
  <defs
     id="defs100" />
  <sodipodi:namedview
     id="namedview98"
     pagecolor="#ffffff"
     bordercolor="#666666"
     borderopacity="1.0"
     inkscape:showpageshadow="2"
     inkscape:pageopacity="0.0"
     inkscape:pagecheckerboard="0"
     inkscape:deskcolor="#d1d1d1"
     showgrid="false"
     inkscape:zoom="1.8750837"
     inkscape:cx="245.05573"
     inkscape:cy="245.32238"
     inkscape:window-width="1600"
     inkscape:window-height="831"
     inkscape:window-x="179"
     inkscape:window-y="1112"
     inkscape:window-maximized="1"
     inkscape:current-layer="svg96" />
  <path
     d="M891.45711,564.13287H342.14841a26.51638,26.51638,0,0,1-26.48658-26.48658V329.2084a26.51674,26.51674,0,0,1,26.48658-26.48658h549.3087a26.51674,26.51674,0,0,1,26.48658,26.48658V537.64629A26.51638,26.51638,0,0,1,891.45711,564.13287Z"
     transform="translate(-238.77402 -267.90176)"
     fill="#fff"
     id="path2" />
  <path
     d="M891.45711,564.13287H342.14841a26.51638,26.51638,0,0,1-26.48658-26.48658V329.2084a26.51674,26.51674,0,0,1,26.48658-26.48658h549.3087a26.51674,26.51674,0,0,1,26.48658,26.48658V537.64629A26.51638,26.51638,0,0,1,891.45711,564.13287ZM342.14841,305.025a24.1834,24.1834,0,0,0-24.1834,24.1834V537.64629a24.1834,24.1834,0,0,0,24.1834,24.1834h549.3087a24.1834,24.1834,0,0,0,24.1834-24.1834V459.054A154.029,154.029,0,0,0,761.61156,305.025Z"
     transform="translate(-238.77402 -267.90176)"
     fill="#e6e6e6"
     id="path4" />
  <ellipse
     cx="294.66589"
     cy="607.92128"
     rx="2.82511"
     ry="4.06109"
     transform="translate(-588.12138 544.08622) rotate(-81.72174)"
     fill="#fff"
     id="ellipse6" />
  <ellipse
     cx="321.09158"
     cy="605.34272"
     rx="2.8251"
     ry="4.06109"
     transform="translate(-562.94877 568.02927) rotate(-81.72174)"
     fill="#3f3d56"
     id="ellipse8" />
  <ellipse
     cx="287.42975"
     cy="586.52763"
     rx="2.82511"
     ry="4.06109"
     transform="translate(-573.14491 518.61211) rotate(-81.72174)"
     fill="#ff6584"
     id="ellipse10" />
  <ellipse
     cx="278.18048"
     cy="578.33571"
     rx="2.56661"
     ry="1.78547"
     transform="translate(-541.01619 584.23337) rotate(-89.56675)"
     fill="#e6e6e6"
     id="ellipse12" />
  <ellipse
     cx="274.28649"
     cy="562.01344"
     rx="2.56661"
     ry="1.78547"
     transform="translate(-528.55893 564.14064) rotate(-89.56675)"
     fill="#3f3d56"
     id="ellipse14" />
  <ellipse
     cx="304.56743"
     cy="590.7395"
     rx="2.56661"
     ry="1.78547"
     transform="translate(-527.2322 622.92957) rotate(-89.56675)"
     fill="#e6e6e6"
     id="ellipse16" />
  <ellipse
     cx="291.79739"
     cy="597.11543"
     rx="2.56661"
     ry="1.78547"
     transform="translate(-546.28142 616.48761) rotate(-89.56675)"
     fill="#ff6584"
     id="ellipse18" />
  <ellipse
     cx="309.57373"
     cy="608.89981"
     rx="2.56661"
     ry="1.78547"
     transform="translate(-540.42354 645.95872) rotate(-89.56675)"
     fill="#3f3d56"
     id="ellipse20" />
  <ellipse
     cx="932.08298"
     cy="274.37106"
     rx="3.60111"
     ry="5.1766"
     transform="translate(198.37253 842.58896) rotate(-75.77932)"
     fill="#fff"
     id="ellipse22" />
  <ellipse
     cx="898.23933"
     cy="274.15294"
     rx="3.60111"
     ry="5.1766"
     transform="translate(173.05426 809.61785) rotate(-75.77932)"
     fill="#3f3d56"
     id="ellipse24" />
  <ellipse
     cx="938.43394"
     cy="302.44956"
     rx="3.60111"
     ry="5.1766"
     transform="translate(175.94525 869.92612) rotate(-75.77932)"
     fill="#ff6584"
     id="ellipse26" />
  <ellipse
     cx="949.07942"
     cy="314.05614"
     rx="3.27161"
     ry="2.2759"
     transform="translate(292.79924 954.48891) rotate(-83.62433)"
     fill="#e6e6e6"
     id="ellipse28" />
  <ellipse
     cx="951.86235"
     cy="335.26393"
     rx="3.27161"
     ry="2.2759"
     transform="matrix(0.11105, -0.99382, 0.99382, 0.11105, 274.19651, 976.10735)"
     fill="#3f3d56"
     id="ellipse30" />
  <ellipse
     cx="917.26206"
     cy="294.84801"
     rx="3.27161"
     ry="2.2759"
     transform="translate(283.60443 905.79321) rotate(-83.62433)"
     fill="#e6e6e6"
     id="ellipse32" />
  <ellipse
     cx="934.29374"
     cy="288.44962"
     rx="3.27161"
     ry="2.2759"
     transform="translate(305.10362 917.03168) rotate(-83.62433)"
     fill="#ff6584"
     id="ellipse34" />
  <ellipse
     cx="913.31146"
     cy="271.16311"
     rx="3.27161"
     ry="2.2759"
     transform="translate(303.63095 880.81227) rotate(-83.62433)"
     fill="#3f3d56"
     id="ellipse36" />
  <path
     d="M535.37467,429.18554a84.29076,84.29076,0,0,1-21.6269,56.497v.01153a86.56041,86.56041,0,0,1-6.2416,6.26465,83.40511,83.40511,0,0,1-7.02468,5.70039q-2.5566,1.8655-5.25125,3.52387-3.19572,1.98642-6.5756,3.67357-2.50473,1.261-5.11307,2.34922a84.48558,84.48558,0,0,1-32.78575,6.59859,84.49842,84.49842,0,0,1-18.89764-2.11888,81.105,81.105,0,0,1-8.47569-2.41839c-1.071-.357-2.14194-.74849-3.20145-1.163a83.49857,83.49857,0,0,1-18.13755-9.731,84.61752,84.61752,0,1,1,133.33118-69.18758Z"
     transform="translate(-238.77402 -267.90176)"
     fill="#f2f2f2"
     id="path38" />
  <path
     d="M788.63254,366.28377h-146.252a4.60637,4.60637,0,0,1,0-9.21273h146.252a4.60636,4.60636,0,0,1,0,9.21273Z"
     transform="translate(-238.77402 -267.90176)"
     fill="#386ede"
     id="path40"
     style="fill:#386ede;fill-opacity:1" />
  <path
     d="M788.63254,428.46966h-146.252a4.60637,4.60637,0,0,1,0-9.21273h146.252a4.60637,4.60637,0,0,1,0,9.21273Z"
     transform="translate(-238.77402 -267.90176)"
     fill="#e6e6e6"
     id="path42" />
  <path
     d="M788.63254,490.65555h-146.252a4.60637,4.60637,0,0,1,0-9.21273h146.252a4.60636,4.60636,0,0,1,0,9.21273Z"
     transform="translate(-238.77402 -267.90176)"
     fill="#e6e6e6"
     id="path44" />
  <path
     d="M835.501,385.26038H594.65038a1,1,0,0,1,0-2H835.501a1,1,0,0,1,0,2Z"
     transform="translate(-238.77402 -267.90176)"
     fill="#e6e6e6"
     id="path74" />
  <path
     d="M835.501,447.26038H594.65038a1,1,0,0,1,0-2H835.501a1,1,0,0,1,0,2Z"
     transform="translate(-238.77402 -267.90176)"
     fill="#e6e6e6"
     id="path76" />
  <path
     d="M835.501,509.25989H594.65038a1,1,0,0,1,0-2H835.501a1,1,0,0,1,0,2Z"
     transform="translate(-238.77402 -267.90176)"
     fill="#e6e6e6"
     id="path78" />
  <path
     d="M871.34975,505.29571a36.99814,36.99814,0,0,1-24.04583-8.87946c-2.23542-1.91351-4.61728-5.24016-7.07922-9.88687a22.61063,22.61063,0,0,1-.71712-19.52,25.94482,25.94482,0,0,1-4.28456,3.51434l-.78332.52119-.04525-.93927c-.0297-.61092-.04474-1.21978-.04474-1.80962,0-3.47617,2.62916-7.00353,1.41661-10.21662-5.11059-13.54237-21.3201-27.00077,2.17243-47.95951,2.1732-1.93881-.72984-5.81521-.72984-8.74859,0-28.74783,40.63049-78.48249,52.146-52.1358,14.20149,32.49212,38.66868,29.0167,49.50789,35.72792l.15724.47478-.46333.18744a27.94531,27.94531,0,0,1-7.42493,1.97483,35.40687,35.40687,0,0,0,8.27909.69359l.43068-.01505.1049.4186a52.37377,52.37377,0,0,1,1.55456,12.67369l-.00192.46179a23.09253,23.09253,0,0,0,7.62843,17.21859A37.08367,37.08367,0,0,1,961.226,446.4161c0,6.09444-4.14211,14.09442-7.617,19.73247a11.158,11.158,0,0,1-8.19115,5.24658,10.89679,10.89679,0,0,1-8.79423-2.84094,36.036,36.036,0,0,0,6.35491,8.99722l.47413.48854-.58868.343a36.971,36.971,0,0,1-18.63752,5.03317l-.38349-.001a36.091,36.091,0,0,0-25.89133,10.56773A37.27947,37.27947,0,0,1,871.34975,505.29571Z"
     transform="translate(-238.77402 -267.90176)"
     fill="#e6e6e6"
     id="path80" />
  <path
     d="M858.62018,563.8901a.66537.66537,0,0,1-.65794-.57162,222.78689,222.78689,0,0,1-.31039-46.71056c2.29665-24.51173,9.67211-59.81725,31.76611-88.81311a.66542.66542,0,1,1,1.05854.80663c-21.90317,28.74547-29.21917,63.79193-31.49963,88.13059a221.27956,221.27956,0,0,0,.30292,46.39887.666.666,0,0,1-.65961.7592Z"
     transform="translate(-238.77402 -267.90176)"
     fill="#3f3d56"
     id="path82" />
  <path
     d="M876.65019,468.6948a.66541.66541,0,0,1-.39173-1.20367,91.70936,91.70936,0,0,1,20.24621-10.30643c11.1702-4.08948,28.15614-7.79687,45.64287-2.23145a.66533.66533,0,1,1-.40353,1.268c-17.12847-5.45105-33.80651-1.805-44.78176,2.21325a90.20269,90.20269,0,0,0-19.92141,10.13315A.66278.66278,0,0,1,876.65019,468.6948Z"
     transform="translate(-238.77402 -267.90176)"
     fill="#3f3d56"
     id="path84" />
  <path
     d="M846.19588,392.84452a.66541.66541,0,0,1,1.17233-.4774,91.7099,91.7099,0,0,1,11.7377,19.45143c4.88328,10.84668,9.80428,27.52154,5.51262,45.36366a.66533.66533,0,1,1-1.29376-.31117c4.20339-17.47655-.6343-33.84872-5.43247-44.5061A90.20263,90.20263,0,0,0,846.35082,393.225.66277.66277,0,0,1,846.19588,392.84452Z"
     transform="translate(-238.77402 -267.90176)"
     fill="#3f3d56"
     id="path86" />
  <path
     d="M302.04837,491.98387A36.091,36.091,0,0,0,276.157,481.41614l-.38349.001A36.971,36.971,0,0,1,257.136,476.384l-.58868-.343.47413-.48854a36.036,36.036,0,0,0,6.35491-8.99722,10.89679,10.89679,0,0,1-8.79423,2.84094,11.158,11.158,0,0,1-8.19115-5.24658c-3.47488-5.63805-7.617-13.638-7.617-19.73247a37.08367,37.08367,0,0,1,12.09851-27.36438,23.09253,23.09253,0,0,0,7.62843-17.21859l-.00192-.46179a52.37377,52.37377,0,0,1,1.55456-12.67369l.1049-.4186.43068.015a35.40633,35.40633,0,0,0,8.27909-.69358,27.94531,27.94531,0,0,1-7.42493-1.97483l-.46333-.18744.15724-.47478c10.83921-6.71122,35.3064-3.2358,49.50789-35.72792,11.51546-26.34669,52.14595,23.388,52.14595,52.1358,0,2.93338-2.903,6.80978-.72984,8.74859,23.49253,20.95874,7.283,34.41714,2.17243,47.9595-1.21255,3.2131,1.41661,6.74046,1.41661,10.21662,0,.58984-.015,1.19871-.04474,1.80963l-.04525.93927-.78332-.52119a25.94435,25.94435,0,0,1-4.28456-3.51435,22.61065,22.61065,0,0,1-.71712,19.52c-2.46194,4.64671-4.8438,7.97336-7.07922,9.88687a36.96338,36.96338,0,0,1-50.64771-2.43341Z"
     transform="translate(-238.77402 -267.90176)"
     fill="#e6e6e6"
     id="path88" />
  <path
     d="M341.37982,561.89113a.66538.66538,0,0,0,.65794-.57162,222.78689,222.78689,0,0,0,.31039-46.71056c-2.29665-24.51173-9.67211-59.81725-31.76611-88.81311a.66542.66542,0,1,0-1.05854.80663c21.90317,28.74546,29.21917,63.79193,31.49963,88.13059a221.27956,221.27956,0,0,1-.30292,46.39887.666.666,0,0,0,.65961.7592Z"
     transform="translate(-238.77402 -267.90176)"
     fill="#3f3d56"
     id="path90" />
  <path
     d="M323.34981,466.69582a.6654.6654,0,0,0,.39173-1.20366,91.70936,91.70936,0,0,0-20.24621-10.30643c-11.1702-4.08948-28.15614-7.79687-45.64287-2.23145a.66533.66533,0,1,0,.40353,1.268c17.12847-5.451,33.80651-1.80495,44.78176,2.21326a90.20269,90.20269,0,0,1,19.92141,10.13315A.66284.66284,0,0,0,323.34981,466.69582Z"
     transform="translate(-238.77402 -267.90176)"
     fill="#3f3d56"
     id="path92" />
  <path
     d="M353.80412,390.84555a.6654.6654,0,0,0-1.17233-.4774,91.7099,91.7099,0,0,0-11.7377,19.45143c-4.88328,10.84668-9.80428,27.52154-5.51262,45.36366a.66533.66533,0,1,0,1.29376-.31117c-4.20339-17.47655.6343-33.84872,5.43247-44.5061A90.20231,90.20231,0,0,1,353.64918,391.226.66277.66277,0,0,0,353.80412,390.84555Z"
     transform="translate(-238.77402 -267.90176)"
     fill="#3f3d56"
     id="path94" />
  <g
     id="g2373"
     transform="translate(-366.81598,-33.676092)">
    <polygon
       points="628.599,501.367 628.598,540.263 618.514,540.263 613.716,501.367 "
       fill="#9f616a"
       id="polygon2200" />
    <path
       d="m 859.06937,724.16364 -32.51549,-10e-4 v -0.41127 a 12.65661,12.65661 0 0 1 12.65593,-12.65574 h 8.1e-4 l 19.85935,8.1e-4 z"
       transform="translate(-227.89994,-174.12538)"
       fill="#2f2e41"
       id="path2202" />
    <polygon
       points="542.678,502.586 530.313,539.464 520.752,536.259 528.567,497.855 "
       fill="#9f616a"
       id="polygon2204" />
    <path
       d="m 757.54434,723.67536 -30.82882,-10.33636 0.13072,-0.38994 a 12.65662,12.65662 0 0 1 16.02229,-7.97663 l 7.7e-4,2.6e-4 18.82917,6.31318 z"
       transform="translate(-227.89994,-174.12538)"
       fill="#2f2e41"
       id="path2206" />
    <path
       d="m 770.64407,513.37 -21.83728,184.72923 21.418,1.80638 c 0,0 33.69049,-181.62307 44.07687,-160.10837 10.38638,21.5147 23.112,156.07642 23.112,156.07642 h 21.25667 c 0,0 5.45117,-209.95329 -16.80533,-220.33966 z"
       transform="translate(-227.89994,-174.12538)"
       fill="#2f2e41"
       id="path2208" />
    <circle
       cx="806.06091"
       cy="357.44534"
       r="21.51465"
       transform="matrix(0.1735,-0.98483,0.98483,0.1735,86.28294,915.13779)"
       fill="#9f616a"
       id="circle2210" />
    <path
       d="m 793.2715,386.87877 27.44975,2.22561 c 0,0 21.88557,0.37095 30.78819,6.306 8.90262,5.93505 -8.53166,42.65838 -8.53166,42.65838 0,0 -4.5325,14.56 -1.11281,21.14369 11.09589,21.36213 9.45082,37.81286 9.45082,37.81286 0,0 -22.80474,5.21641 -62.12459,15.60281 0,0 -24.4822,9.6445 -23.74029,4.45131 0.74191,-5.19319 8.16075,-64.54394 8.16075,-64.54394 v -61.5764 z"
       transform="translate(-227.89994,-174.12538)"
       fill="#3f3d56"
       id="path2212" />
    <path
       d="m 841.29052,355.11546 c -1.09826,-6.12676 -3.55843,-14.818 -9.03927,-21.40759 0.1727,10e-4 0.3446,0.009 0.5173,0.004 1.88364,-0.055 4.02694,-0.64908 4.80509,-2.36519 a 4.10439,4.10439 0 0 0 -0.75145,-4.094 12.08637,12.08637 0 0 0 -3.4291,-2.67941 c 1.32176,0.8025 3.19014,1.54787 4.24542,0.41749 a 2.2903,2.2903 0 0 0 0.25865,-2.44517 6.06575,6.06575 0 0 0 -1.64889,-1.98907 40.545,40.545 0 0 0 -7.24981,-5.11575 c -2.01015,-1.11065 -4.65448,-2.00252 -6.459,-0.58176 -1.83826,1.44737 -1.54306,4.2658 -1.07074,6.55735 a 7.5434,7.5434 0 0 0 -3.3773,-1.01918 2.586,2.586 0 0 0 -2.59051,1.99022 2.65621,2.65621 0 0 0 1.19685,2.32 c -7.09357,-1.16653 -16.15754,0.15709 -27.74534,5.51874 0,0 -11.23558,3.74519 -11.80629,18.53563 a 26.23857,26.23857 0 0 0 0.78,7.02324 c 0.633,2.68118 2.8849,15.83463 0.18395,21.15044 l 13.53088,4.82116 0.155,-8.105 c -10.51625,-15.18027 -5.32118,-20.75087 -1.22657,-29.88095 a 0.09651,0.09651 0 0 1 0.1723,-0.013 c 0.75667,1.29842 3.65643,5.74912 13.63531,5.74912 l -3.856,-3.85614 c 0,0 16.96683,6.94106 23.13665,6.94106 0,0 4.62717,3.08486 0,7.71223 -4.62717,4.62737 -14.75464,11.43825 -9.356,19.92171 5.39864,8.48346 4.93362,11.49322 4.93362,11.49322 l 12.33965,-6.941 c 0,0 7.537,-14.912 8.87359,-19.30325 a 22.14974,22.14974 0 0 0 0.84201,-10.35871 z"
       transform="translate(-227.89994,-174.12538)"
       fill="#2f2e41"
       id="path2214" />
    <path
       d="m 854.19849,435.12524 -14.39822,3.5 -0.109,29.1399 -16.19429,55.89392 a 9.04684,9.04684 0 1 0 14.21707,4.30557 l 19.35953,-57.86281 z"
       transform="translate(-227.89994,-174.12538)"
       fill="#9f616a"
       id="path2224" />
    <path
       d="m 758.36916,434.51257 17.27327,4.93522 0.109,29.1399 16.19429,55.89392 a 9.04684,9.04684 0 1 1 -14.21707,4.30557 l -19.35953,-57.86282 z"
       transform="translate(-227.89994,-174.12538)"
       fill="#9f616a"
       id="path2226" />
    <path
       d="m 832.5914,392.44289 3.56817,-1.16349 a 8.11967,8.11967 0 0 1 6.07635,0.42161 v 0 c 0,0 10.38638,0.74188 11.87015,8.16073 1.48377,7.41885 5.09242,72.2635 5.09242,72.2635 l -22,-7 z"
       transform="translate(-227.89994,-174.12538)"
       fill="#3f3d56"
       id="path2228" />
    <path
       d="m 782.51422,392.44289 -6.31573,-0.31765 -2,-1 c 0,0 -11.71517,1.31765 -13.19894,8.7365 -1.48377,7.41885 -5.80106,74.2635 -5.80106,74.2635 l 22,-6 z"
       transform="translate(-227.89994,-174.12538)"
       fill="#3f3d56"
       id="path2230" />
  </g>
  <g
     id="g893"
     transform="rotate(19.06984,-62.99862,635.73339)">
    <path
       d="m 422.99456,628.07628 c -16.51077,-21.96123 -26.0537,-46.51942 -26.36641,-74.51777 a 6.04123,6.04123 0 0 1 3.676,-7.70163 l 56.27746,-19.91249 a 6.04122,6.04122 0 0 1 7.70161,3.676 l 26.3664,74.51777 a 6.04122,6.04122 0 0 1 -3.67591,7.70163 l -56.27751,19.91244 a 6.04123,6.04123 0 0 1 -7.70164,-3.67595 z"
       fill="#e6e6e6"
       id="path46"
       transform="translate(-238.77402,-267.90176)" />
    <path
       d="m 419.34763,604.04139 c -9.93022,-10.04034 -14.1809,-27.94788 -16.95072,-47.90679 a 5.65767,5.65767 0 0 1 3.44264,-7.21281 l 48.36574,-17.11311 a 5.65791,5.65791 0 0 1 7.21308,3.44253 l 23.46251,66.31069 a 5.6579,5.6579 0 0 1 -3.4429,7.2129 l -29.96157,10.6012 a 25.202,25.202 0 0 1 -32.12878,-15.33461 z"
       fill="#ffffff"
       id="path48"
       transform="translate(-238.77402,-267.90176)" />
    <path
       d="m 462.06578,570.9731 -37.67558,13.44828 a 2.4002304,2.4002304 0 1 1 -1.6138,-4.52107 L 460.452,566.452 a 2.4002304,2.4002304 0 1 1 1.6138,4.52107 z"
       transform="translate(-238.77402,-267.90176)"
       fill="#386ede"
       id="path50" />
    <path
       d="m 428.25374,569.06581 -8.28863,2.95863 a 2.40023,2.40023 0 1 1 -1.61379,-4.52107 l 8.28863,-2.95863 a 2.40023,2.40023 0 1 1 1.61379,4.52107 z"
       transform="translate(-238.77402,-267.90176)"
       fill="#386ede"
       id="path52" />
    <path
       d="m 469.16044,590.8489 -37.67558,13.44829 a 2.40023,2.40023 0 0 1 -1.61379,-4.52107 l 37.67558,-13.44829 a 2.40023,2.40023 0 0 1 1.61379,4.52107 z"
       transform="translate(-238.77402,-267.90176)"
       fill="#386ede"
       id="path54" />
    <path
       d="m 465.61311,580.911 -37.67558,13.44829 a 2.4002304,2.4002304 0 0 1 -1.6138,-4.52107 l 37.67559,-13.44829 a 2.40023,2.40023 0 1 1 1.61379,4.52107 z"
       transform="translate(-238.77402,-267.90176)"
       fill="#386ede"
       id="path56" />
  </g>
</svg>
