<?xml version="1.0" encoding="UTF-8" standalone="no"?>
<svg
   data-name="Layer 1"
   width="722.45196"
   height="364.19648"
   viewBox="0 0 722.45196 364.19648"
   version="1.1"
   id="svg96"
   sodipodi:docname="people8.svg"
   inkscape:version="1.2.1 (9c6d41e410, 2022-07-14)"
   xmlns:inkscape="http://www.inkscape.org/namespaces/inkscape"
   xmlns:sodipodi="http://sodipodi.sourceforge.net/DTD/sodipodi-0.dtd"
   xmlns="http://www.w3.org/2000/svg"
   xmlns:svg="http://www.w3.org/2000/svg">
  <defs
     id="defs100" />
  <sodipodi:namedview
     id="namedview98"
     pagecolor="#ffffff"
     bordercolor="#666666"
     borderopacity="1.0"
     inkscape:showpageshadow="2"
     inkscape:pageopacity="0.0"
     inkscape:pagecheckerboard="0"
     inkscape:deskcolor="#d1d1d1"
     showgrid="false"
     inkscape:zoom="0.79445461"
     inkscape:cx="232.23479"
     inkscape:cy="11.328526"
     inkscape:window-width="1600"
     inkscape:window-height="831"
     inkscape:window-x="179"
     inkscape:window-y="1112"
     inkscape:window-maximized="1"
     inkscape:current-layer="svg96" />
  <path
     d="M891.45711,564.13287H342.14841a26.51638,26.51638,0,0,1-26.48658-26.48658V329.2084a26.51674,26.51674,0,0,1,26.48658-26.48658h549.3087a26.51674,26.51674,0,0,1,26.48658,26.48658V537.64629A26.51638,26.51638,0,0,1,891.45711,564.13287Z"
     transform="translate(-238.77402 -267.90176)"
     fill="#fff"
     id="path2" />
  <path
     d="M891.45711,564.13287H342.14841a26.51638,26.51638,0,0,1-26.48658-26.48658V329.2084a26.51674,26.51674,0,0,1,26.48658-26.48658h549.3087a26.51674,26.51674,0,0,1,26.48658,26.48658V537.64629A26.51638,26.51638,0,0,1,891.45711,564.13287ZM342.14841,305.025a24.1834,24.1834,0,0,0-24.1834,24.1834V537.64629a24.1834,24.1834,0,0,0,24.1834,24.1834h549.3087a24.1834,24.1834,0,0,0,24.1834-24.1834V459.054A154.029,154.029,0,0,0,761.61156,305.025Z"
     transform="translate(-238.77402 -267.90176)"
     fill="#e6e6e6"
     id="path4" />
  <ellipse
     cx="294.66589"
     cy="607.92128"
     rx="2.82511"
     ry="4.06109"
     transform="translate(-588.12138 544.08622) rotate(-81.72174)"
     fill="#fff"
     id="ellipse6" />
  <ellipse
     cx="321.09158"
     cy="605.34272"
     rx="2.8251"
     ry="4.06109"
     transform="translate(-562.94877 568.02927) rotate(-81.72174)"
     fill="#3f3d56"
     id="ellipse8" />
  <ellipse
     cx="287.42975"
     cy="586.52763"
     rx="2.82511"
     ry="4.06109"
     transform="translate(-573.14491 518.61211) rotate(-81.72174)"
     fill="#ff6584"
     id="ellipse10" />
  <ellipse
     cx="278.18048"
     cy="578.33571"
     rx="2.56661"
     ry="1.78547"
     transform="translate(-541.01619 584.23337) rotate(-89.56675)"
     fill="#e6e6e6"
     id="ellipse12" />
  <ellipse
     cx="274.28649"
     cy="562.01344"
     rx="2.56661"
     ry="1.78547"
     transform="translate(-528.55893 564.14064) rotate(-89.56675)"
     fill="#3f3d56"
     id="ellipse14" />
  <ellipse
     cx="304.56743"
     cy="590.7395"
     rx="2.56661"
     ry="1.78547"
     transform="translate(-527.2322 622.92957) rotate(-89.56675)"
     fill="#e6e6e6"
     id="ellipse16" />
  <ellipse
     cx="291.79739"
     cy="597.11543"
     rx="2.56661"
     ry="1.78547"
     transform="translate(-546.28142 616.48761) rotate(-89.56675)"
     fill="#ff6584"
     id="ellipse18" />
  <ellipse
     cx="309.57373"
     cy="608.89981"
     rx="2.56661"
     ry="1.78547"
     transform="translate(-540.42354 645.95872) rotate(-89.56675)"
     fill="#3f3d56"
     id="ellipse20" />
  <ellipse
     cx="932.08298"
     cy="274.37106"
     rx="3.60111"
     ry="5.1766"
     transform="translate(198.37253 842.58896) rotate(-75.77932)"
     fill="#fff"
     id="ellipse22" />
  <ellipse
     cx="898.23933"
     cy="274.15294"
     rx="3.60111"
     ry="5.1766"
     transform="translate(173.05426 809.61785) rotate(-75.77932)"
     fill="#3f3d56"
     id="ellipse24" />
  <ellipse
     cx="938.43394"
     cy="302.44956"
     rx="3.60111"
     ry="5.1766"
     transform="translate(175.94525 869.92612) rotate(-75.77932)"
     fill="#ff6584"
     id="ellipse26" />
  <ellipse
     cx="949.07942"
     cy="314.05614"
     rx="3.27161"
     ry="2.2759"
     transform="translate(292.79924 954.48891) rotate(-83.62433)"
     fill="#e6e6e6"
     id="ellipse28" />
  <ellipse
     cx="951.86235"
     cy="335.26393"
     rx="3.27161"
     ry="2.2759"
     transform="matrix(0.11105, -0.99382, 0.99382, 0.11105, 274.19651, 976.10735)"
     fill="#3f3d56"
     id="ellipse30" />
  <ellipse
     cx="917.26206"
     cy="294.84801"
     rx="3.27161"
     ry="2.2759"
     transform="translate(283.60443 905.79321) rotate(-83.62433)"
     fill="#e6e6e6"
     id="ellipse32" />
  <ellipse
     cx="934.29374"
     cy="288.44962"
     rx="3.27161"
     ry="2.2759"
     transform="translate(305.10362 917.03168) rotate(-83.62433)"
     fill="#ff6584"
     id="ellipse34" />
  <ellipse
     cx="913.31146"
     cy="271.16311"
     rx="3.27161"
     ry="2.2759"
     transform="translate(303.63095 880.81227) rotate(-83.62433)"
     fill="#3f3d56"
     id="ellipse36" />
  <path
     d="M535.37467,429.18554a84.29076,84.29076,0,0,1-21.6269,56.497v.01153a86.56041,86.56041,0,0,1-6.2416,6.26465,83.40511,83.40511,0,0,1-7.02468,5.70039q-2.5566,1.8655-5.25125,3.52387-3.19572,1.98642-6.5756,3.67357-2.50473,1.261-5.11307,2.34922a84.48558,84.48558,0,0,1-32.78575,6.59859,84.49842,84.49842,0,0,1-18.89764-2.11888,81.105,81.105,0,0,1-8.47569-2.41839c-1.071-.357-2.14194-.74849-3.20145-1.163a83.49857,83.49857,0,0,1-18.13755-9.731,84.61752,84.61752,0,1,1,133.33118-69.18758Z"
     transform="translate(-238.77402 -267.90176)"
     fill="#f2f2f2"
     id="path38" />
  <path
     d="M788.63254,366.28377h-146.252a4.60637,4.60637,0,0,1,0-9.21273h146.252a4.60636,4.60636,0,0,1,0,9.21273Z"
     transform="translate(-238.77402 -267.90176)"
     fill="#386ede"
     id="path40"
     style="fill:#386ede;fill-opacity:1" />
  <path
     d="M788.63254,428.46966h-146.252a4.60637,4.60637,0,0,1,0-9.21273h146.252a4.60637,4.60637,0,0,1,0,9.21273Z"
     transform="translate(-238.77402 -267.90176)"
     fill="#e6e6e6"
     id="path42" />
  <path
     d="M788.63254,490.65555h-146.252a4.60637,4.60637,0,0,1,0-9.21273h146.252a4.60636,4.60636,0,0,1,0,9.21273Z"
     transform="translate(-238.77402 -267.90176)"
     fill="#e6e6e6"
     id="path44" />
  <path
     d="M835.501,385.26038H594.65038a1,1,0,0,1,0-2H835.501a1,1,0,0,1,0,2Z"
     transform="translate(-238.77402 -267.90176)"
     fill="#e6e6e6"
     id="path74" />
  <path
     d="M835.501,447.26038H594.65038a1,1,0,0,1,0-2H835.501a1,1,0,0,1,0,2Z"
     transform="translate(-238.77402 -267.90176)"
     fill="#e6e6e6"
     id="path76" />
  <path
     d="M835.501,509.25989H594.65038a1,1,0,0,1,0-2H835.501a1,1,0,0,1,0,2Z"
     transform="translate(-238.77402 -267.90176)"
     fill="#e6e6e6"
     id="path78" />
  <path
     d="M871.34975,505.29571a36.99814,36.99814,0,0,1-24.04583-8.87946c-2.23542-1.91351-4.61728-5.24016-7.07922-9.88687a22.61063,22.61063,0,0,1-.71712-19.52,25.94482,25.94482,0,0,1-4.28456,3.51434l-.78332.52119-.04525-.93927c-.0297-.61092-.04474-1.21978-.04474-1.80962,0-3.47617,2.62916-7.00353,1.41661-10.21662-5.11059-13.54237-21.3201-27.00077,2.17243-47.95951,2.1732-1.93881-.72984-5.81521-.72984-8.74859,0-28.74783,40.63049-78.48249,52.146-52.1358,14.20149,32.49212,38.66868,29.0167,49.50789,35.72792l.15724.47478-.46333.18744a27.94531,27.94531,0,0,1-7.42493,1.97483,35.40687,35.40687,0,0,0,8.27909.69359l.43068-.01505.1049.4186a52.37377,52.37377,0,0,1,1.55456,12.67369l-.00192.46179a23.09253,23.09253,0,0,0,7.62843,17.21859A37.08367,37.08367,0,0,1,961.226,446.4161c0,6.09444-4.14211,14.09442-7.617,19.73247a11.158,11.158,0,0,1-8.19115,5.24658,10.89679,10.89679,0,0,1-8.79423-2.84094,36.036,36.036,0,0,0,6.35491,8.99722l.47413.48854-.58868.343a36.971,36.971,0,0,1-18.63752,5.03317l-.38349-.001a36.091,36.091,0,0,0-25.89133,10.56773A37.27947,37.27947,0,0,1,871.34975,505.29571Z"
     transform="translate(-238.77402 -267.90176)"
     fill="#e6e6e6"
     id="path80" />
  <path
     d="M858.62018,563.8901a.66537.66537,0,0,1-.65794-.57162,222.78689,222.78689,0,0,1-.31039-46.71056c2.29665-24.51173,9.67211-59.81725,31.76611-88.81311a.66542.66542,0,1,1,1.05854.80663c-21.90317,28.74547-29.21917,63.79193-31.49963,88.13059a221.27956,221.27956,0,0,0,.30292,46.39887.666.666,0,0,1-.65961.7592Z"
     transform="translate(-238.77402 -267.90176)"
     fill="#3f3d56"
     id="path82" />
  <path
     d="M876.65019,468.6948a.66541.66541,0,0,1-.39173-1.20367,91.70936,91.70936,0,0,1,20.24621-10.30643c11.1702-4.08948,28.15614-7.79687,45.64287-2.23145a.66533.66533,0,1,1-.40353,1.268c-17.12847-5.45105-33.80651-1.805-44.78176,2.21325a90.20269,90.20269,0,0,0-19.92141,10.13315A.66278.66278,0,0,1,876.65019,468.6948Z"
     transform="translate(-238.77402 -267.90176)"
     fill="#3f3d56"
     id="path84" />
  <path
     d="M846.19588,392.84452a.66541.66541,0,0,1,1.17233-.4774,91.7099,91.7099,0,0,1,11.7377,19.45143c4.88328,10.84668,9.80428,27.52154,5.51262,45.36366a.66533.66533,0,1,1-1.29376-.31117c4.20339-17.47655-.6343-33.84872-5.43247-44.5061A90.20263,90.20263,0,0,0,846.35082,393.225.66277.66277,0,0,1,846.19588,392.84452Z"
     transform="translate(-238.77402 -267.90176)"
     fill="#3f3d56"
     id="path86" />
  <path
     d="M302.04837,491.98387A36.091,36.091,0,0,0,276.157,481.41614l-.38349.001A36.971,36.971,0,0,1,257.136,476.384l-.58868-.343.47413-.48854a36.036,36.036,0,0,0,6.35491-8.99722,10.89679,10.89679,0,0,1-8.79423,2.84094,11.158,11.158,0,0,1-8.19115-5.24658c-3.47488-5.63805-7.617-13.638-7.617-19.73247a37.08367,37.08367,0,0,1,12.09851-27.36438,23.09253,23.09253,0,0,0,7.62843-17.21859l-.00192-.46179a52.37377,52.37377,0,0,1,1.55456-12.67369l.1049-.4186.43068.015a35.40633,35.40633,0,0,0,8.27909-.69358,27.94531,27.94531,0,0,1-7.42493-1.97483l-.46333-.18744.15724-.47478c10.83921-6.71122,35.3064-3.2358,49.50789-35.72792,11.51546-26.34669,52.14595,23.388,52.14595,52.1358,0,2.93338-2.903,6.80978-.72984,8.74859,23.49253,20.95874,7.283,34.41714,2.17243,47.9595-1.21255,3.2131,1.41661,6.74046,1.41661,10.21662,0,.58984-.015,1.19871-.04474,1.80963l-.04525.93927-.78332-.52119a25.94435,25.94435,0,0,1-4.28456-3.51435,22.61065,22.61065,0,0,1-.71712,19.52c-2.46194,4.64671-4.8438,7.97336-7.07922,9.88687a36.96338,36.96338,0,0,1-50.64771-2.43341Z"
     transform="translate(-238.77402 -267.90176)"
     fill="#e6e6e6"
     id="path88" />
  <path
     d="M341.37982,561.89113a.66538.66538,0,0,0,.65794-.57162,222.78689,222.78689,0,0,0,.31039-46.71056c-2.29665-24.51173-9.67211-59.81725-31.76611-88.81311a.66542.66542,0,1,0-1.05854.80663c21.90317,28.74546,29.21917,63.79193,31.49963,88.13059a221.27956,221.27956,0,0,1-.30292,46.39887.666.666,0,0,0,.65961.7592Z"
     transform="translate(-238.77402 -267.90176)"
     fill="#3f3d56"
     id="path90" />
  <path
     d="M323.34981,466.69582a.6654.6654,0,0,0,.39173-1.20366,91.70936,91.70936,0,0,0-20.24621-10.30643c-11.1702-4.08948-28.15614-7.79687-45.64287-2.23145a.66533.66533,0,1,0,.40353,1.268c17.12847-5.451,33.80651-1.80495,44.78176,2.21326a90.20269,90.20269,0,0,1,19.92141,10.13315A.66284.66284,0,0,0,323.34981,466.69582Z"
     transform="translate(-238.77402 -267.90176)"
     fill="#3f3d56"
     id="path92" />
  <path
     d="M353.80412,390.84555a.6654.6654,0,0,0-1.17233-.4774,91.7099,91.7099,0,0,0-11.7377,19.45143c-4.88328,10.84668-9.80428,27.52154-5.51262,45.36366a.66533.66533,0,1,0,1.29376-.31117c-4.20339-17.47655.6343-33.84872,5.43247-44.5061A90.20231,90.20231,0,0,1,353.64918,391.226.66277.66277,0,0,0,353.80412,390.84555Z"
     transform="translate(-238.77402 -267.90176)"
     fill="#3f3d56"
     id="path94" />
  <g
     id="g7692"
     transform="matrix(-0.6446377,0,0,0.6446377,619.87549,121.74805)"
     style="stroke-width:1.55126">
    <rect
       x="583.24847"
       y="113.90779"
       width="2"
       height="18.5"
       fill="#f2f2f2"
       id="rect7435"
       style="stroke-width:2.08358" />
    <rect
       x="708.24847"
       y="158.90779"
       width="2"
       height="18.5"
       fill="#f2f2f2"
       id="rect7439"
       style="stroke-width:2.08358" />
    <path
       d="m 747.41068,137.89028 c 0,0 14.61842,41.60627 5.62246,48.00724 -8.99596,6.40097 30.36134,58.67548 30.36134,58.67548 l 47.22874,-12.80193 -25.86336,-43.73993 c 0,0 -3.37348,-43.73992 -3.37348,-50.14089 0,-6.40097 -53.9757,3e-5 -53.9757,3e-5 z"
       transform="translate(-152,-76.01429)"
       fill="#a0616a"
       id="path7493"
       style="stroke-width:2.08358" />
    <path
       d="m 747.41068,137.89028 c 0,0 14.61842,41.60627 5.62246,48.00724 -8.99596,6.40097 30.36134,58.67548 30.36134,58.67548 l 47.22874,-12.80193 -25.86336,-43.73993 c 0,0 -3.37348,-43.73992 -3.37348,-50.14089 0,-6.40097 -53.9757,3e-5 -53.9757,3e-5 z"
       transform="translate(-152,-76.01429)"
       opacity="0.1"
       id="path7495"
       style="stroke-width:2.08358" />
    <path
       d="m 722.87364,434.46832 c 0,0 -4.26731,53.34138 0,81.07889 4.26731,27.73751 10.66828,104.5491 10.66828,104.5491 0,0 0,145.08854 23.4702,147.22219 23.4702,2.13365 40.53945,4.26731 42.6731,-4.26731 2.13365,-8.53462 -10.66827,-12.80193 -4.26731,-17.06924 6.40096,-4.26731 8.53462,-19.20289 0,-36.27213 -8.53462,-17.06924 0,-189.8953 0,-189.8953 l 40.53945,108.81641 c 0,0 4.26731,89.61351 8.53462,102.41544 4.26731,12.80193 -4.26731,36.27213 10.66827,38.40579 14.93558,2.13366 32.00483,-10.66828 40.53945,-14.93559 8.53462,-4.26731 -12.80193,-4.26731 -8.53462,-6.401 4.26731,-2.13369 17.06924,-8.53462 12.80193,-10.66828 -4.26731,-2.13366 -8.53462,-104.54909 -8.53462,-104.54909 0,0 -11.73511,-218.6996 -26.67069,-227.2342 -14.93558,-8.5346 -24.537,6.16576 -24.537,6.16576 z"
       transform="translate(-152,-76.01429)"
       fill="#2f2e41"
       id="path7497"
       style="stroke-width:2.08358" />
    <path
       d="m 761.27943,758.78388 v 17.06924 c 0,0 -19.20289,46.39942 0,46.39942 19.20289,0 34.13848,4.8083 34.13848,-1.59266 v -57.60869 z"
       transform="translate(-152,-76.01429)"
       fill="#2f2e41"
       id="path7499"
       style="stroke-width:2.08358" />
    <path
       d="m 887.16508,758.75358 v 17.06924 c 0,0 19.20289,46.39941 0,46.39941 -19.20289,0 -34.13848,4.80831 -34.13848,-1.59266 v -57.60868 z"
       transform="translate(-152,-76.01429)"
       fill="#2f2e41"
       id="path7501"
       style="stroke-width:2.08358" />
    <circle
       cx="625.28186"
       cy="54.408199"
       r="38.405788"
       fill="#a0616a"
       id="circle7503"
       style="stroke-width:2.08358" />
    <path
       d="m 765.54674,201.89993 c 0,0 10.66828,32.00482 27.73752,25.60386 l 17.06924,-6.401 29.87117,204.83091 c 0,0 -23.47021,34.13848 -57.60869,12.80193 -34.13848,-21.33655 -17.06924,-236.8357 -17.06924,-236.8357 z"
       transform="translate(-152,-76.01429)"
       fill="#386ede"
       id="path7505"
       style="stroke-width:2.08358" />
    <path
       d="m 795.41791,195.499 9.60145,-20.26972 c 0,0 56.54186,26.67069 65.07648,35.20531 8.53462,8.53462 8.53462,21.33655 8.53462,21.33655 l -14.93559,53.34137 c 0,0 4.26731,117.351 4.26731,121.61834 0,4.26734 14.93559,27.73751 4.26731,19.20289 -10.66828,-8.53462 -12.80193,-17.06924 -21.33655,-4.26731 -8.53462,12.80193 -27.73751,27.73752 -27.73751,27.73752 z"
       transform="translate(-152,-76.01429)"
       fill="#3f3d56"
       id="path7507"
       style="stroke-width:2.08358" />
    <path
       d="m 870.09584,349.12212 -6.401,59.74234 c 0,0 -38.40579,34.13848 -29.87117,36.27214 8.53462,2.13366 12.80193,-6.401 12.80193,-6.401 0,0 14.93559,14.93559 23.47021,6.401 8.53462,-8.53459 29.87119,-89.61351 29.87119,-89.61351 z"
       transform="translate(-152,-76.01429)"
       fill="#a0616a"
       id="path7509"
       style="stroke-width:2.08358" />
    <path
       d="m 778.1,76.14416 c -8.51412,-0.30437 -17.62549,-0.45493 -24.80406,4.13321 a 36.31263,36.31263 0 0 0 -8.5723,8.39153 c -6.99153,8.83846 -13.03253,19.95926 -10.43553,30.92537 l 3.01633,-1.1764 a 19.75086,19.75086 0 0 1 -1.90515,8.46261 c 0.42475,-1.2351 1.84722,0.76151 1.4664,2.01085 L 733.543,139.792 c 5.46207,-2.00239 12.25661,2.05189 13.08819,7.80969 0.37974,-12.66123 1.6932,-27.17965 11.964,-34.59331 5.17951,-3.73868 11.73465,-4.88 18.04162,-5.8935 5.81832,-0.935 11.91781,-1.82659 17.49077,0.0889 5.57296,1.91545 10.31871,7.615 9.0553,13.37093 2.56964,-0.88518 5.44356,0.90566 6.71347,3.30856 1.26991,2.4029 1.33662,5.2375 1.37484,7.95506 2.73911,1.93583 5.85632,-1.9082 6.97263,-5.07112 2.62033,-7.42434 4.94941,-15.32739 3.53783,-23.073 -1.41158,-7.74561 -7.72325,-15.14773 -15.59638,-15.174 a 5.46676,5.46676 0 0 0 1.42176,-3.84874 l -6.48928,-0.5483 a 7.1723,7.1723 0 0 0 4.28575,-2.25954 C 802.7981,84.73052 782.31323,76.29477 778.1,76.14416 Z"
       transform="translate(-152,-76.01429)"
       fill="#2f2e41"
       id="path7511"
       style="stroke-width:2.08358" />
    <path
       d="m 776.215,189.098 c 0,0 -17.36929,-17.02085 -23.62023,-15.97822 -6.25094,1.04263 -14.78554,15.97822 -14.78554,15.97822 0,0 -51.20772,17.06924 -49.07407,34.13848 2.13365,17.06924 25.60384,100.28178 25.60384,100.28178 0,0 19.2029,100.28179 2.13366,110.95006 -17.06924,10.66827 81.07889,38.40579 83.21254,25.60386 2.13365,-12.80193 6.401,-140.82123 0,-160.02412 C 793.2842,280.84517 776.215,189.098 776.215,189.098 Z"
       transform="translate(-152,-76.01429)"
       fill="#3f3d56"
       id="path7513"
       style="stroke-width:2.08358" />
    <path
       d="m 850.89294,223.23648 h 26.38265 c 0,0 18.42411,81.07889 20.55776,89.61352 2.13365,8.53463 6.401,49.07406 4.26731,49.07406 -2.13369,0 -44.80675,-8.53462 -44.80675,-2.13365 z"
       transform="translate(-152,-76.01429)"
       fill="#3f3d56"
       id="path7515"
       style="stroke-width:2.08358" />
    <path
       d="M 850,424.01429 H 749 c -9.85608,-45.34 -10.67957,-89.14649 0,-131 h 101 c -16.29919,41.10071 -17.31775,84.60708 0,131 z"
       transform="translate(-152,-76.01429)"
       fill="#f2f2f2"
       id="path7517"
       style="stroke-width:2.08358" />
    <path
       d="m 707.93806,368.325 29.87117,12.802 c 0,0 57.60868,8.53462 57.60868,-14.93559 0,-23.47021 -57.60868,-10.66827 -57.60868,-10.66827 L 718.60505,349.383 Z"
       transform="translate(-152,-76.01429)"
       fill="#a0616a"
       id="path7519"
       style="stroke-width:2.08358" />
    <path
       d="m 714.339,210.43455 -25.60386,6.401 -19.20287,113.08368 c 0,0 -6.401,29.87117 4.26731,32.00482 10.66831,2.13365 40.53942,19.20295 40.53942,19.20295 0,0 4.26731,-32.00483 12.80193,-32.00483 L 705.8044,332.05288 718.60633,257.375 Z"
       transform="translate(-152,-76.01429)"
       fill="#3f3d56"
       id="path7521"
       style="stroke-width:2.08358" />
  </g>
</svg>
