<?xml version="1.0" encoding="UTF-8" standalone="no"?>
<svg
   data-name="Layer 1"
   width="722.45196"
   height="364.19648"
   viewBox="0 0 722.45196 364.19648"
   version="1.1"
   id="svg96"
   sodipodi:docname="people7.svg"
   inkscape:version="1.2.1 (9c6d41e410, 2022-07-14)"
   xmlns:inkscape="http://www.inkscape.org/namespaces/inkscape"
   xmlns:sodipodi="http://sodipodi.sourceforge.net/DTD/sodipodi-0.dtd"
   xmlns="http://www.w3.org/2000/svg"
   xmlns:svg="http://www.w3.org/2000/svg">
  <defs
     id="defs100" />
  <sodipodi:namedview
     id="namedview98"
     pagecolor="#ffffff"
     bordercolor="#666666"
     borderopacity="1.0"
     inkscape:showpageshadow="2"
     inkscape:pageopacity="0.0"
     inkscape:pagecheckerboard="0"
     inkscape:deskcolor="#d1d1d1"
     showgrid="false"
     inkscape:zoom="1.39645"
     inkscape:cx="283.93426"
     inkscape:cy="211.24996"
     inkscape:window-width="1600"
     inkscape:window-height="831"
     inkscape:window-x="179"
     inkscape:window-y="1112"
     inkscape:window-maximized="1"
     inkscape:current-layer="svg96" />
  <path
     d="M891.45711,564.13287H342.14841a26.51638,26.51638,0,0,1-26.48658-26.48658V329.2084a26.51674,26.51674,0,0,1,26.48658-26.48658h549.3087a26.51674,26.51674,0,0,1,26.48658,26.48658V537.64629A26.51638,26.51638,0,0,1,891.45711,564.13287Z"
     transform="translate(-238.77402 -267.90176)"
     fill="#fff"
     id="path2" />
  <path
     d="M891.45711,564.13287H342.14841a26.51638,26.51638,0,0,1-26.48658-26.48658V329.2084a26.51674,26.51674,0,0,1,26.48658-26.48658h549.3087a26.51674,26.51674,0,0,1,26.48658,26.48658V537.64629A26.51638,26.51638,0,0,1,891.45711,564.13287ZM342.14841,305.025a24.1834,24.1834,0,0,0-24.1834,24.1834V537.64629a24.1834,24.1834,0,0,0,24.1834,24.1834h549.3087a24.1834,24.1834,0,0,0,24.1834-24.1834V459.054A154.029,154.029,0,0,0,761.61156,305.025Z"
     transform="translate(-238.77402 -267.90176)"
     fill="#e6e6e6"
     id="path4" />
  <ellipse
     cx="294.66589"
     cy="607.92128"
     rx="2.82511"
     ry="4.06109"
     transform="translate(-588.12138 544.08622) rotate(-81.72174)"
     fill="#fff"
     id="ellipse6" />
  <ellipse
     cx="321.09158"
     cy="605.34272"
     rx="2.8251"
     ry="4.06109"
     transform="translate(-562.94877 568.02927) rotate(-81.72174)"
     fill="#3f3d56"
     id="ellipse8" />
  <ellipse
     cx="287.42975"
     cy="586.52763"
     rx="2.82511"
     ry="4.06109"
     transform="translate(-573.14491 518.61211) rotate(-81.72174)"
     fill="#ff6584"
     id="ellipse10" />
  <ellipse
     cx="278.18048"
     cy="578.33571"
     rx="2.56661"
     ry="1.78547"
     transform="translate(-541.01619 584.23337) rotate(-89.56675)"
     fill="#e6e6e6"
     id="ellipse12" />
  <ellipse
     cx="274.28649"
     cy="562.01344"
     rx="2.56661"
     ry="1.78547"
     transform="translate(-528.55893 564.14064) rotate(-89.56675)"
     fill="#3f3d56"
     id="ellipse14" />
  <ellipse
     cx="304.56743"
     cy="590.7395"
     rx="2.56661"
     ry="1.78547"
     transform="translate(-527.2322 622.92957) rotate(-89.56675)"
     fill="#e6e6e6"
     id="ellipse16" />
  <ellipse
     cx="291.79739"
     cy="597.11543"
     rx="2.56661"
     ry="1.78547"
     transform="translate(-546.28142 616.48761) rotate(-89.56675)"
     fill="#ff6584"
     id="ellipse18" />
  <ellipse
     cx="309.57373"
     cy="608.89981"
     rx="2.56661"
     ry="1.78547"
     transform="translate(-540.42354 645.95872) rotate(-89.56675)"
     fill="#3f3d56"
     id="ellipse20" />
  <ellipse
     cx="932.08298"
     cy="274.37106"
     rx="3.60111"
     ry="5.1766"
     transform="translate(198.37253 842.58896) rotate(-75.77932)"
     fill="#fff"
     id="ellipse22" />
  <ellipse
     cx="898.23933"
     cy="274.15294"
     rx="3.60111"
     ry="5.1766"
     transform="translate(173.05426 809.61785) rotate(-75.77932)"
     fill="#3f3d56"
     id="ellipse24" />
  <ellipse
     cx="938.43394"
     cy="302.44956"
     rx="3.60111"
     ry="5.1766"
     transform="translate(175.94525 869.92612) rotate(-75.77932)"
     fill="#ff6584"
     id="ellipse26" />
  <ellipse
     cx="949.07942"
     cy="314.05614"
     rx="3.27161"
     ry="2.2759"
     transform="translate(292.79924 954.48891) rotate(-83.62433)"
     fill="#e6e6e6"
     id="ellipse28" />
  <ellipse
     cx="951.86235"
     cy="335.26393"
     rx="3.27161"
     ry="2.2759"
     transform="matrix(0.11105, -0.99382, 0.99382, 0.11105, 274.19651, 976.10735)"
     fill="#3f3d56"
     id="ellipse30" />
  <ellipse
     cx="917.26206"
     cy="294.84801"
     rx="3.27161"
     ry="2.2759"
     transform="translate(283.60443 905.79321) rotate(-83.62433)"
     fill="#e6e6e6"
     id="ellipse32" />
  <ellipse
     cx="934.29374"
     cy="288.44962"
     rx="3.27161"
     ry="2.2759"
     transform="translate(305.10362 917.03168) rotate(-83.62433)"
     fill="#ff6584"
     id="ellipse34" />
  <ellipse
     cx="913.31146"
     cy="271.16311"
     rx="3.27161"
     ry="2.2759"
     transform="translate(303.63095 880.81227) rotate(-83.62433)"
     fill="#3f3d56"
     id="ellipse36" />
  <path
     d="M535.37467,429.18554a84.29076,84.29076,0,0,1-21.6269,56.497v.01153a86.56041,86.56041,0,0,1-6.2416,6.26465,83.40511,83.40511,0,0,1-7.02468,5.70039q-2.5566,1.8655-5.25125,3.52387-3.19572,1.98642-6.5756,3.67357-2.50473,1.261-5.11307,2.34922a84.48558,84.48558,0,0,1-32.78575,6.59859,84.49842,84.49842,0,0,1-18.89764-2.11888,81.105,81.105,0,0,1-8.47569-2.41839c-1.071-.357-2.14194-.74849-3.20145-1.163a83.49857,83.49857,0,0,1-18.13755-9.731,84.61752,84.61752,0,1,1,133.33118-69.18758Z"
     transform="translate(-238.77402 -267.90176)"
     fill="#f2f2f2"
     id="path38" />
  <path
     d="M788.63254,366.28377h-146.252a4.60637,4.60637,0,0,1,0-9.21273h146.252a4.60636,4.60636,0,0,1,0,9.21273Z"
     transform="translate(-238.77402 -267.90176)"
     fill="#386ede"
     id="path40"
     style="fill:#386ede;fill-opacity:1" />
  <path
     d="M788.63254,428.46966h-146.252a4.60637,4.60637,0,0,1,0-9.21273h146.252a4.60637,4.60637,0,0,1,0,9.21273Z"
     transform="translate(-238.77402 -267.90176)"
     fill="#e6e6e6"
     id="path42" />
  <path
     d="M788.63254,490.65555h-146.252a4.60637,4.60637,0,0,1,0-9.21273h146.252a4.60636,4.60636,0,0,1,0,9.21273Z"
     transform="translate(-238.77402 -267.90176)"
     fill="#e6e6e6"
     id="path44" />
  <path
     d="M835.501,385.26038H594.65038a1,1,0,0,1,0-2H835.501a1,1,0,0,1,0,2Z"
     transform="translate(-238.77402 -267.90176)"
     fill="#e6e6e6"
     id="path74" />
  <path
     d="M835.501,447.26038H594.65038a1,1,0,0,1,0-2H835.501a1,1,0,0,1,0,2Z"
     transform="translate(-238.77402 -267.90176)"
     fill="#e6e6e6"
     id="path76" />
  <path
     d="M835.501,509.25989H594.65038a1,1,0,0,1,0-2H835.501a1,1,0,0,1,0,2Z"
     transform="translate(-238.77402 -267.90176)"
     fill="#e6e6e6"
     id="path78" />
  <path
     d="M871.34975,505.29571a36.99814,36.99814,0,0,1-24.04583-8.87946c-2.23542-1.91351-4.61728-5.24016-7.07922-9.88687a22.61063,22.61063,0,0,1-.71712-19.52,25.94482,25.94482,0,0,1-4.28456,3.51434l-.78332.52119-.04525-.93927c-.0297-.61092-.04474-1.21978-.04474-1.80962,0-3.47617,2.62916-7.00353,1.41661-10.21662-5.11059-13.54237-21.3201-27.00077,2.17243-47.95951,2.1732-1.93881-.72984-5.81521-.72984-8.74859,0-28.74783,40.63049-78.48249,52.146-52.1358,14.20149,32.49212,38.66868,29.0167,49.50789,35.72792l.15724.47478-.46333.18744a27.94531,27.94531,0,0,1-7.42493,1.97483,35.40687,35.40687,0,0,0,8.27909.69359l.43068-.01505.1049.4186a52.37377,52.37377,0,0,1,1.55456,12.67369l-.00192.46179a23.09253,23.09253,0,0,0,7.62843,17.21859A37.08367,37.08367,0,0,1,961.226,446.4161c0,6.09444-4.14211,14.09442-7.617,19.73247a11.158,11.158,0,0,1-8.19115,5.24658,10.89679,10.89679,0,0,1-8.79423-2.84094,36.036,36.036,0,0,0,6.35491,8.99722l.47413.48854-.58868.343a36.971,36.971,0,0,1-18.63752,5.03317l-.38349-.001a36.091,36.091,0,0,0-25.89133,10.56773A37.27947,37.27947,0,0,1,871.34975,505.29571Z"
     transform="translate(-238.77402 -267.90176)"
     fill="#e6e6e6"
     id="path80" />
  <path
     d="M858.62018,563.8901a.66537.66537,0,0,1-.65794-.57162,222.78689,222.78689,0,0,1-.31039-46.71056c2.29665-24.51173,9.67211-59.81725,31.76611-88.81311a.66542.66542,0,1,1,1.05854.80663c-21.90317,28.74547-29.21917,63.79193-31.49963,88.13059a221.27956,221.27956,0,0,0,.30292,46.39887.666.666,0,0,1-.65961.7592Z"
     transform="translate(-238.77402 -267.90176)"
     fill="#3f3d56"
     id="path82" />
  <path
     d="M876.65019,468.6948a.66541.66541,0,0,1-.39173-1.20367,91.70936,91.70936,0,0,1,20.24621-10.30643c11.1702-4.08948,28.15614-7.79687,45.64287-2.23145a.66533.66533,0,1,1-.40353,1.268c-17.12847-5.45105-33.80651-1.805-44.78176,2.21325a90.20269,90.20269,0,0,0-19.92141,10.13315A.66278.66278,0,0,1,876.65019,468.6948Z"
     transform="translate(-238.77402 -267.90176)"
     fill="#3f3d56"
     id="path84" />
  <path
     d="M846.19588,392.84452a.66541.66541,0,0,1,1.17233-.4774,91.7099,91.7099,0,0,1,11.7377,19.45143c4.88328,10.84668,9.80428,27.52154,5.51262,45.36366a.66533.66533,0,1,1-1.29376-.31117c4.20339-17.47655-.6343-33.84872-5.43247-44.5061A90.20263,90.20263,0,0,0,846.35082,393.225.66277.66277,0,0,1,846.19588,392.84452Z"
     transform="translate(-238.77402 -267.90176)"
     fill="#3f3d56"
     id="path86" />
  <path
     d="M302.04837,491.98387A36.091,36.091,0,0,0,276.157,481.41614l-.38349.001A36.971,36.971,0,0,1,257.136,476.384l-.58868-.343.47413-.48854a36.036,36.036,0,0,0,6.35491-8.99722,10.89679,10.89679,0,0,1-8.79423,2.84094,11.158,11.158,0,0,1-8.19115-5.24658c-3.47488-5.63805-7.617-13.638-7.617-19.73247a37.08367,37.08367,0,0,1,12.09851-27.36438,23.09253,23.09253,0,0,0,7.62843-17.21859l-.00192-.46179a52.37377,52.37377,0,0,1,1.55456-12.67369l.1049-.4186.43068.015a35.40633,35.40633,0,0,0,8.27909-.69358,27.94531,27.94531,0,0,1-7.42493-1.97483l-.46333-.18744.15724-.47478c10.83921-6.71122,35.3064-3.2358,49.50789-35.72792,11.51546-26.34669,52.14595,23.388,52.14595,52.1358,0,2.93338-2.903,6.80978-.72984,8.74859,23.49253,20.95874,7.283,34.41714,2.17243,47.9595-1.21255,3.2131,1.41661,6.74046,1.41661,10.21662,0,.58984-.015,1.19871-.04474,1.80963l-.04525.93927-.78332-.52119a25.94435,25.94435,0,0,1-4.28456-3.51435,22.61065,22.61065,0,0,1-.71712,19.52c-2.46194,4.64671-4.8438,7.97336-7.07922,9.88687a36.96338,36.96338,0,0,1-50.64771-2.43341Z"
     transform="translate(-238.77402 -267.90176)"
     fill="#e6e6e6"
     id="path88" />
  <path
     d="M341.37982,561.89113a.66538.66538,0,0,0,.65794-.57162,222.78689,222.78689,0,0,0,.31039-46.71056c-2.29665-24.51173-9.67211-59.81725-31.76611-88.81311a.66542.66542,0,1,0-1.05854.80663c21.90317,28.74546,29.21917,63.79193,31.49963,88.13059a221.27956,221.27956,0,0,1-.30292,46.39887.666.666,0,0,0,.65961.7592Z"
     transform="translate(-238.77402 -267.90176)"
     fill="#3f3d56"
     id="path90" />
  <path
     d="M323.34981,466.69582a.6654.6654,0,0,0,.39173-1.20366,91.70936,91.70936,0,0,0-20.24621-10.30643c-11.1702-4.08948-28.15614-7.79687-45.64287-2.23145a.66533.66533,0,1,0,.40353,1.268c17.12847-5.451,33.80651-1.80495,44.78176,2.21326a90.20269,90.20269,0,0,1,19.92141,10.13315A.66284.66284,0,0,0,323.34981,466.69582Z"
     transform="translate(-238.77402 -267.90176)"
     fill="#3f3d56"
     id="path92" />
  <path
     d="M353.80412,390.84555a.6654.6654,0,0,0-1.17233-.4774,91.7099,91.7099,0,0,0-11.7377,19.45143c-4.88328,10.84668-9.80428,27.52154-5.51262,45.36366a.66533.66533,0,1,0,1.29376-.31117c-4.20339-17.47655.6343-33.84872,5.43247-44.5061A90.20231,90.20231,0,0,1,353.64918,391.226.66277.66277,0,0,0,353.80412,390.84555Z"
     transform="translate(-238.77402 -267.90176)"
     fill="#3f3d56"
     id="path94" />
  <g
     id="g4753"
     transform="matrix(0.69498226,0,0,0.69498226,-346.53336,105.39054)"
     style="stroke-width:1.43888">
    <ellipse
       cx="931.9129"
       cy="801.52399"
       rx="17.342251"
       ry="138"
       transform="rotate(-89.93034,853.83627,804.62952)"
       opacity="0.1"
       id="ellipse4405"
       style="stroke-width:1.7256" />
    <path
       d="m 869.45086,723.0179 3.09775,40.92127 c 0,0 -22.711,40.2604 1.21079,39.66 23.92179,-0.6004 25.81329,-3.11611 25.81329,-3.11611 l 0.0153,-12.59 0.0329,-27.06846 -6.874,-41.55537 z"
       transform="translate(-81.08725,-74.97488)"
       fill="#2f2e41"
       id="path4407"
       style="stroke-width:1.7256" />
    <path
       d="m 964.493,733.20545 c 0,0 5.64483,17.00336 1.22456,28.329 -4.42027,11.32564 -6.34091,37.7623 -3.19418,38.39563 3.14673,0.63333 18.25089,3.79919 18.25089,3.79919 0,0 36.49563,12.63437 52.23923,7.61751 15.7436,-5.01686 13.2348,-12.57392 13.2348,-12.57392 0,0 -3.764,-10.70607 -15.7237,-11.35011 -11.9597,-0.64404 -39.60258,-46.00166 -40.21984,-56.07441 -0.61726,-10.07275 -25.81176,1.85711 -25.81176,1.85711 z"
       transform="translate(-81.08725,-74.97488)"
       fill="#2f2e41"
       id="path4409"
       style="stroke-width:1.7256" />
    <circle
       cx="805.10651"
       cy="79.939529"
       r="56.025471"
       fill="#ff6584"
       id="circle4411"
       style="stroke-width:1.7256" />
    <path
       d="m 866.32055,191.0865 c 0,0 5.00232,27.70409 -10.11485,35.23971 -15.11717,7.53562 28.30068,22.06691 28.30068,22.06691 l 18.8911,-5.013 11.99186,-25.79493 c 0,0 -15.10645,-1.27736 -11.3019,-23.93474 z"
       transform="translate(-81.08725,-74.97488)"
       fill="#ffb9b9"
       id="path4413"
       style="stroke-width:1.7256" />
    <path
       d="m 866.32055,191.0865 c 0,0 5.00232,27.70409 -10.11485,35.23971 -15.11717,7.53562 28.30068,22.06691 28.30068,22.06691 l 18.8911,-5.013 11.99186,-25.79493 c 0,0 -15.10645,-1.27736 -11.3019,-23.93474 z"
       transform="translate(-81.08725,-74.97488)"
       opacity="0.1"
       id="path4415"
       style="stroke-width:1.7256" />
    <path
       d="m 808.29183,285.441 -1.33247,60.43039 -15.863,103.21874 c 0,0 0.56445,53.50819 16.9276,56.67558 16.36315,3.16739 0.0696,-57.28442 0.0696,-57.28442 l 23.72993,-85.41917 4.79193,-74.43918 z"
       transform="translate(-81.08725,-74.97488)"
       fill="#ffb9b9"
       id="path4417"
       style="stroke-width:1.7256" />
    <circle
       cx="803.19965"
       cy="95.045212"
       r="35.881481"
       fill="#ffb9b9"
       id="circle4419"
       style="stroke-width:1.7256" />
    <path
       d="m 940.4086,349.8106 c 6.282,10.70914 4.37817,23.29683 -2.54632,23.28841 -6.92449,-0.008 -100.07659,-11.45267 -100.07659,-11.45267 l 5.69151,-21.39608 c 0,0 -5.65478,-8.81988 -1.87089,-14.48078 3.78389,-5.6609 -3.74868,-23.29606 -3.74868,-23.29606 l -14.39507,-68.633 7.55689,-2.37034 12.58849,-3.94424 13.86059,-4.34558 c 0,0 9.42565,13.86046 32.72248,9.48228 0,0 14.47618,1.9061 22.68263,-16.96893 a 24.03448,24.03448 0 0 1 5.243,0.66735 c 1.7431,0.45534 3.43557,1.2191 4.19569,2.49163 0.76013,1.26622 5.18448,2.134 10.20718,2.713 7.45859,0.85892 16.2272,1.09619 16.2272,1.09619 l -7.00944,69.866 c 0,0 -7.61066,46.57368 -1.32867,57.28282 z"
       transform="translate(-81.08725,-74.97488)"
       fill="#386ede"
       id="path4421"
       style="stroke-width:1.7256" />
    <path
       d="m 828.49856,233.84653 -5.036,-0.006 c 0,0 -20.16387,16.34249 -17.69332,55.3745 0,0 1.88391,3.77929 16.35933,6.31489 14.47542,2.5356 20.77806,-3.75174 20.77806,-3.75174 z"
       transform="translate(-81.08725,-74.97488)"
       fill="#386ede"
       id="path4423"
       style="stroke-width:1.7256" />
    <path
       d="m 922.86757,279.91476 c 0,0 -80.56978,-5.134 -79.95176,4.30931 0.61802,9.44331 -5.07349,30.83933 -2.56008,34.61939 2.51341,3.78006 5.55987,19.27223 1.8154,26.31669 A 54.70117,54.70117 0 0 0 837.16,358.49808 c 0,0 -5.03447,-1.26512 -8.8306,14.46777 -3.79613,15.73289 -22.7362,61.03387 -15.21053,84.33452 7.52567,23.30065 31.89553,171.89231 31.89553,171.89231 l 16.24838,97.59232 c 0,0 27.06234,5.0689 36.51707,-4.99161 l -8.6737,-114.57956 -6.14346,-124.64849 c 0,0 42.02951,120.91506 48.31991,124.69971 l 25.65334,128.44921 c 0,0 28.94472,10.10719 39.0366,-6.24754 L 984.12609,635.6568 c 0,0 -6.9023,-18.26389 -4.37282,-27.70332 2.52948,-9.43943 -4.3866,-16.37234 -4.3866,-16.37234 l -25.648,-132.8557 c 0,0 -7.53562,-15.11716 -1.22685,-26.4405 6.30877,-11.32334 -11.25446,-62.96369 -11.25446,-62.96369 0,0 -11.29884,-26.45274 -7.50348,-41.55613 3.79536,-15.10339 -6.86631,-47.85036 -6.86631,-47.85036 z"
       transform="translate(-81.08725,-74.97488)"
       fill="#2f2e41"
       id="path4425"
       style="stroke-width:1.7256" />
    <path
       d="m 967.57272,271.15611 12.50351,71.14872 c 0,0 1.87548,10.70378 -3.81144,28.32287 -5.68692,17.61909 -27.77066,59.76875 -27.77066,59.76875 l -11.3065,-20.15775 18.963,-64.186 -15.64637,-74.9295 z"
       transform="translate(-81.08725,-74.97488)"
       fill="#ffb9b9"
       id="path4427"
       style="stroke-width:1.7256" />
    <polygon
       points="762.521,152.551 764.397,167.705 774.423,205.487 762.695,211.472 749.91,174.612 749.932,156.495 "
       fill="#2f2e41"
       id="polygon4429"
       style="stroke-width:1.7256" />
    <path
       d="m 932.51948,221.56553 -10.28409,60.55172 -16.367,-0.0199 12.2482,-65.7364 c 1.7431,0.45534 3.43557,1.2191 4.19569,2.49163 0.76015,1.26622 5.1845,2.13402 10.2072,2.71295 z"
       transform="translate(-81.08725,-74.97488)"
       fill="#2f2e41"
       id="path4431"
       style="stroke-width:1.7256" />
    <path
       d="m 941.18809,226.42953 7.55859,-3.76781 c 0,0 32.05777,38.43848 22.59615,54.16448 -9.46162,15.726 -37.14734,5.62034 -37.14734,5.62034 z"
       transform="translate(-81.08725,-74.97488)"
       fill="#386ede"
       id="path4433"
       style="stroke-width:1.7256" />
    <circle
       cx="810.84015"
       cy="23.92099"
       r="23.92099"
       fill="#ff6584"
       id="circle4435"
       style="stroke-width:1.7256" />
    <ellipse
       cx="884.33057"
       cy="134.13864"
       rx="18.255489"
       ry="30.84548"
       transform="rotate(-89.93034,806.2539,137.24412)"
       fill="#ff6584"
       id="ellipse4437"
       style="stroke-width:1.7256" />
    <circle
       cx="768.43488"
       cy="212.08997"
       r="3.1475"
       fill="#386ede"
       id="circle4439"
       style="stroke-width:1.7256" />
    <circle
       cx="835.79126"
       cy="212.17184"
       r="3.1475"
       fill="#386ede"
       id="circle4441"
       style="stroke-width:1.7256" />
  </g>
</svg>
