<?xml version="1.0" encoding="UTF-8" standalone="no"?>
<svg
   data-name="Layer 1"
   width="722.45196"
   height="364.19648"
   viewBox="0 0 722.45196 364.19648"
   version="1.1"
   id="svg96"
   sodipodi:docname="people4.svg"
   inkscape:version="1.2.1 (9c6d41e410, 2022-07-14)"
   xmlns:inkscape="http://www.inkscape.org/namespaces/inkscape"
   xmlns:sodipodi="http://sodipodi.sourceforge.net/DTD/sodipodi-0.dtd"
   xmlns="http://www.w3.org/2000/svg"
   xmlns:svg="http://www.w3.org/2000/svg">
  <defs
     id="defs100" />
  <sodipodi:namedview
     id="namedview98"
     pagecolor="#ffffff"
     bordercolor="#666666"
     borderopacity="1.0"
     inkscape:showpageshadow="2"
     inkscape:pageopacity="0.0"
     inkscape:pagecheckerboard="0"
     inkscape:deskcolor="#d1d1d1"
     showgrid="false"
     inkscape:zoom="1.3266159"
     inkscape:cx="292.8504"
     inkscape:cy="227.6469"
     inkscape:window-width="1600"
     inkscape:window-height="831"
     inkscape:window-x="179"
     inkscape:window-y="1112"
     inkscape:window-maximized="1"
     inkscape:current-layer="svg96" />
  <path
     d="M891.45711,564.13287H342.14841a26.51638,26.51638,0,0,1-26.48658-26.48658V329.2084a26.51674,26.51674,0,0,1,26.48658-26.48658h549.3087a26.51674,26.51674,0,0,1,26.48658,26.48658V537.64629A26.51638,26.51638,0,0,1,891.45711,564.13287Z"
     transform="translate(-238.77402 -267.90176)"
     fill="#fff"
     id="path2" />
  <path
     d="M891.45711,564.13287H342.14841a26.51638,26.51638,0,0,1-26.48658-26.48658V329.2084a26.51674,26.51674,0,0,1,26.48658-26.48658h549.3087a26.51674,26.51674,0,0,1,26.48658,26.48658V537.64629A26.51638,26.51638,0,0,1,891.45711,564.13287ZM342.14841,305.025a24.1834,24.1834,0,0,0-24.1834,24.1834V537.64629a24.1834,24.1834,0,0,0,24.1834,24.1834h549.3087a24.1834,24.1834,0,0,0,24.1834-24.1834V459.054A154.029,154.029,0,0,0,761.61156,305.025Z"
     transform="translate(-238.77402 -267.90176)"
     fill="#e6e6e6"
     id="path4" />
  <ellipse
     cx="294.66589"
     cy="607.92128"
     rx="2.82511"
     ry="4.06109"
     transform="translate(-588.12138 544.08622) rotate(-81.72174)"
     fill="#fff"
     id="ellipse6" />
  <ellipse
     cx="321.09158"
     cy="605.34272"
     rx="2.8251"
     ry="4.06109"
     transform="translate(-562.94877 568.02927) rotate(-81.72174)"
     fill="#3f3d56"
     id="ellipse8" />
  <ellipse
     cx="287.42975"
     cy="586.52763"
     rx="2.82511"
     ry="4.06109"
     transform="translate(-573.14491 518.61211) rotate(-81.72174)"
     fill="#ff6584"
     id="ellipse10" />
  <ellipse
     cx="278.18048"
     cy="578.33571"
     rx="2.56661"
     ry="1.78547"
     transform="translate(-541.01619 584.23337) rotate(-89.56675)"
     fill="#e6e6e6"
     id="ellipse12" />
  <ellipse
     cx="274.28649"
     cy="562.01344"
     rx="2.56661"
     ry="1.78547"
     transform="translate(-528.55893 564.14064) rotate(-89.56675)"
     fill="#3f3d56"
     id="ellipse14" />
  <ellipse
     cx="304.56743"
     cy="590.7395"
     rx="2.56661"
     ry="1.78547"
     transform="translate(-527.2322 622.92957) rotate(-89.56675)"
     fill="#e6e6e6"
     id="ellipse16" />
  <ellipse
     cx="291.79739"
     cy="597.11543"
     rx="2.56661"
     ry="1.78547"
     transform="translate(-546.28142 616.48761) rotate(-89.56675)"
     fill="#ff6584"
     id="ellipse18" />
  <ellipse
     cx="309.57373"
     cy="608.89981"
     rx="2.56661"
     ry="1.78547"
     transform="translate(-540.42354 645.95872) rotate(-89.56675)"
     fill="#3f3d56"
     id="ellipse20" />
  <ellipse
     cx="932.08298"
     cy="274.37106"
     rx="3.60111"
     ry="5.1766"
     transform="translate(198.37253 842.58896) rotate(-75.77932)"
     fill="#fff"
     id="ellipse22" />
  <ellipse
     cx="898.23933"
     cy="274.15294"
     rx="3.60111"
     ry="5.1766"
     transform="translate(173.05426 809.61785) rotate(-75.77932)"
     fill="#3f3d56"
     id="ellipse24" />
  <ellipse
     cx="938.43394"
     cy="302.44956"
     rx="3.60111"
     ry="5.1766"
     transform="translate(175.94525 869.92612) rotate(-75.77932)"
     fill="#ff6584"
     id="ellipse26" />
  <ellipse
     cx="949.07942"
     cy="314.05614"
     rx="3.27161"
     ry="2.2759"
     transform="translate(292.79924 954.48891) rotate(-83.62433)"
     fill="#e6e6e6"
     id="ellipse28" />
  <ellipse
     cx="951.86235"
     cy="335.26393"
     rx="3.27161"
     ry="2.2759"
     transform="matrix(0.11105, -0.99382, 0.99382, 0.11105, 274.19651, 976.10735)"
     fill="#3f3d56"
     id="ellipse30" />
  <ellipse
     cx="917.26206"
     cy="294.84801"
     rx="3.27161"
     ry="2.2759"
     transform="translate(283.60443 905.79321) rotate(-83.62433)"
     fill="#e6e6e6"
     id="ellipse32" />
  <ellipse
     cx="934.29374"
     cy="288.44962"
     rx="3.27161"
     ry="2.2759"
     transform="translate(305.10362 917.03168) rotate(-83.62433)"
     fill="#ff6584"
     id="ellipse34" />
  <ellipse
     cx="913.31146"
     cy="271.16311"
     rx="3.27161"
     ry="2.2759"
     transform="translate(303.63095 880.81227) rotate(-83.62433)"
     fill="#3f3d56"
     id="ellipse36" />
  <path
     d="M535.37467,429.18554a84.29076,84.29076,0,0,1-21.6269,56.497v.01153a86.56041,86.56041,0,0,1-6.2416,6.26465,83.40511,83.40511,0,0,1-7.02468,5.70039q-2.5566,1.8655-5.25125,3.52387-3.19572,1.98642-6.5756,3.67357-2.50473,1.261-5.11307,2.34922a84.48558,84.48558,0,0,1-32.78575,6.59859,84.49842,84.49842,0,0,1-18.89764-2.11888,81.105,81.105,0,0,1-8.47569-2.41839c-1.071-.357-2.14194-.74849-3.20145-1.163a83.49857,83.49857,0,0,1-18.13755-9.731,84.61752,84.61752,0,1,1,133.33118-69.18758Z"
     transform="translate(-238.77402 -267.90176)"
     fill="#f2f2f2"
     id="path38" />
  <path
     d="M788.63254,366.28377h-146.252a4.60637,4.60637,0,0,1,0-9.21273h146.252a4.60636,4.60636,0,0,1,0,9.21273Z"
     transform="translate(-238.77402 -267.90176)"
     fill="#386ede"
     id="path40"
     style="fill:#386ede;fill-opacity:1" />
  <path
     d="M788.63254,428.46966h-146.252a4.60637,4.60637,0,0,1,0-9.21273h146.252a4.60637,4.60637,0,0,1,0,9.21273Z"
     transform="translate(-238.77402 -267.90176)"
     fill="#e6e6e6"
     id="path42" />
  <path
     d="M788.63254,490.65555h-146.252a4.60637,4.60637,0,0,1,0-9.21273h146.252a4.60636,4.60636,0,0,1,0,9.21273Z"
     transform="translate(-238.77402 -267.90176)"
     fill="#e6e6e6"
     id="path44" />
  <path
     d="M835.501,385.26038H594.65038a1,1,0,0,1,0-2H835.501a1,1,0,0,1,0,2Z"
     transform="translate(-238.77402 -267.90176)"
     fill="#e6e6e6"
     id="path74" />
  <path
     d="M835.501,447.26038H594.65038a1,1,0,0,1,0-2H835.501a1,1,0,0,1,0,2Z"
     transform="translate(-238.77402 -267.90176)"
     fill="#e6e6e6"
     id="path76" />
  <path
     d="M835.501,509.25989H594.65038a1,1,0,0,1,0-2H835.501a1,1,0,0,1,0,2Z"
     transform="translate(-238.77402 -267.90176)"
     fill="#e6e6e6"
     id="path78" />
  <path
     d="M871.34975,505.29571a36.99814,36.99814,0,0,1-24.04583-8.87946c-2.23542-1.91351-4.61728-5.24016-7.07922-9.88687a22.61063,22.61063,0,0,1-.71712-19.52,25.94482,25.94482,0,0,1-4.28456,3.51434l-.78332.52119-.04525-.93927c-.0297-.61092-.04474-1.21978-.04474-1.80962,0-3.47617,2.62916-7.00353,1.41661-10.21662-5.11059-13.54237-21.3201-27.00077,2.17243-47.95951,2.1732-1.93881-.72984-5.81521-.72984-8.74859,0-28.74783,40.63049-78.48249,52.146-52.1358,14.20149,32.49212,38.66868,29.0167,49.50789,35.72792l.15724.47478-.46333.18744a27.94531,27.94531,0,0,1-7.42493,1.97483,35.40687,35.40687,0,0,0,8.27909.69359l.43068-.01505.1049.4186a52.37377,52.37377,0,0,1,1.55456,12.67369l-.00192.46179a23.09253,23.09253,0,0,0,7.62843,17.21859A37.08367,37.08367,0,0,1,961.226,446.4161c0,6.09444-4.14211,14.09442-7.617,19.73247a11.158,11.158,0,0,1-8.19115,5.24658,10.89679,10.89679,0,0,1-8.79423-2.84094,36.036,36.036,0,0,0,6.35491,8.99722l.47413.48854-.58868.343a36.971,36.971,0,0,1-18.63752,5.03317l-.38349-.001a36.091,36.091,0,0,0-25.89133,10.56773A37.27947,37.27947,0,0,1,871.34975,505.29571Z"
     transform="translate(-238.77402 -267.90176)"
     fill="#e6e6e6"
     id="path80" />
  <path
     d="M858.62018,563.8901a.66537.66537,0,0,1-.65794-.57162,222.78689,222.78689,0,0,1-.31039-46.71056c2.29665-24.51173,9.67211-59.81725,31.76611-88.81311a.66542.66542,0,1,1,1.05854.80663c-21.90317,28.74547-29.21917,63.79193-31.49963,88.13059a221.27956,221.27956,0,0,0,.30292,46.39887.666.666,0,0,1-.65961.7592Z"
     transform="translate(-238.77402 -267.90176)"
     fill="#3f3d56"
     id="path82" />
  <path
     d="M876.65019,468.6948a.66541.66541,0,0,1-.39173-1.20367,91.70936,91.70936,0,0,1,20.24621-10.30643c11.1702-4.08948,28.15614-7.79687,45.64287-2.23145a.66533.66533,0,1,1-.40353,1.268c-17.12847-5.45105-33.80651-1.805-44.78176,2.21325a90.20269,90.20269,0,0,0-19.92141,10.13315A.66278.66278,0,0,1,876.65019,468.6948Z"
     transform="translate(-238.77402 -267.90176)"
     fill="#3f3d56"
     id="path84" />
  <path
     d="M846.19588,392.84452a.66541.66541,0,0,1,1.17233-.4774,91.7099,91.7099,0,0,1,11.7377,19.45143c4.88328,10.84668,9.80428,27.52154,5.51262,45.36366a.66533.66533,0,1,1-1.29376-.31117c4.20339-17.47655-.6343-33.84872-5.43247-44.5061A90.20263,90.20263,0,0,0,846.35082,393.225.66277.66277,0,0,1,846.19588,392.84452Z"
     transform="translate(-238.77402 -267.90176)"
     fill="#3f3d56"
     id="path86" />
  <path
     d="M302.04837,491.98387A36.091,36.091,0,0,0,276.157,481.41614l-.38349.001A36.971,36.971,0,0,1,257.136,476.384l-.58868-.343.47413-.48854a36.036,36.036,0,0,0,6.35491-8.99722,10.89679,10.89679,0,0,1-8.79423,2.84094,11.158,11.158,0,0,1-8.19115-5.24658c-3.47488-5.63805-7.617-13.638-7.617-19.73247a37.08367,37.08367,0,0,1,12.09851-27.36438,23.09253,23.09253,0,0,0,7.62843-17.21859l-.00192-.46179a52.37377,52.37377,0,0,1,1.55456-12.67369l.1049-.4186.43068.015a35.40633,35.40633,0,0,0,8.27909-.69358,27.94531,27.94531,0,0,1-7.42493-1.97483l-.46333-.18744.15724-.47478c10.83921-6.71122,35.3064-3.2358,49.50789-35.72792,11.51546-26.34669,52.14595,23.388,52.14595,52.1358,0,2.93338-2.903,6.80978-.72984,8.74859,23.49253,20.95874,7.283,34.41714,2.17243,47.9595-1.21255,3.2131,1.41661,6.74046,1.41661,10.21662,0,.58984-.015,1.19871-.04474,1.80963l-.04525.93927-.78332-.52119a25.94435,25.94435,0,0,1-4.28456-3.51435,22.61065,22.61065,0,0,1-.71712,19.52c-2.46194,4.64671-4.8438,7.97336-7.07922,9.88687a36.96338,36.96338,0,0,1-50.64771-2.43341Z"
     transform="translate(-238.77402 -267.90176)"
     fill="#e6e6e6"
     id="path88" />
  <path
     d="M341.37982,561.89113a.66538.66538,0,0,0,.65794-.57162,222.78689,222.78689,0,0,0,.31039-46.71056c-2.29665-24.51173-9.67211-59.81725-31.76611-88.81311a.66542.66542,0,1,0-1.05854.80663c21.90317,28.74546,29.21917,63.79193,31.49963,88.13059a221.27956,221.27956,0,0,1-.30292,46.39887.666.666,0,0,0,.65961.7592Z"
     transform="translate(-238.77402 -267.90176)"
     fill="#3f3d56"
     id="path90" />
  <path
     d="M323.34981,466.69582a.6654.6654,0,0,0,.39173-1.20366,91.70936,91.70936,0,0,0-20.24621-10.30643c-11.1702-4.08948-28.15614-7.79687-45.64287-2.23145a.66533.66533,0,1,0,.40353,1.268c17.12847-5.451,33.80651-1.80495,44.78176,2.21326a90.20269,90.20269,0,0,1,19.92141,10.13315A.66284.66284,0,0,0,323.34981,466.69582Z"
     transform="translate(-238.77402 -267.90176)"
     fill="#3f3d56"
     id="path92" />
  <path
     d="M353.80412,390.84555a.6654.6654,0,0,0-1.17233-.4774,91.7099,91.7099,0,0,0-11.7377,19.45143c-4.88328,10.84668-9.80428,27.52154-5.51262,45.36366a.66533.66533,0,1,0,1.29376-.31117c-4.20339-17.47655.6343-33.84872,5.43247-44.5061A90.20231,90.20231,0,0,1,353.64918,391.226.66277.66277,0,0,0,353.80412,390.84555Z"
     transform="translate(-238.77402 -267.90176)"
     fill="#3f3d56"
     id="path94" />
  <g
     id="g893"
     transform="rotate(19.06984,-62.99862,635.73339)">
    <path
       d="m 422.99456,628.07628 c -16.51077,-21.96123 -26.0537,-46.51942 -26.36641,-74.51777 a 6.04123,6.04123 0 0 1 3.676,-7.70163 l 56.27746,-19.91249 a 6.04122,6.04122 0 0 1 7.70161,3.676 l 26.3664,74.51777 a 6.04122,6.04122 0 0 1 -3.67591,7.70163 l -56.27751,19.91244 a 6.04123,6.04123 0 0 1 -7.70164,-3.67595 z"
       fill="#e6e6e6"
       id="path46"
       transform="translate(-238.77402,-267.90176)" />
    <path
       d="m 419.34763,604.04139 c -9.93022,-10.04034 -14.1809,-27.94788 -16.95072,-47.90679 a 5.65767,5.65767 0 0 1 3.44264,-7.21281 l 48.36574,-17.11311 a 5.65791,5.65791 0 0 1 7.21308,3.44253 l 23.46251,66.31069 a 5.6579,5.6579 0 0 1 -3.4429,7.2129 l -29.96157,10.6012 a 25.202,25.202 0 0 1 -32.12878,-15.33461 z"
       fill="#ffffff"
       id="path48"
       transform="translate(-238.77402,-267.90176)" />
    <path
       d="m 462.06578,570.9731 -37.67558,13.44828 a 2.4002304,2.4002304 0 1 1 -1.6138,-4.52107 L 460.452,566.452 a 2.4002304,2.4002304 0 1 1 1.6138,4.52107 z"
       transform="translate(-238.77402,-267.90176)"
       fill="#386ede"
       id="path50" />
    <path
       d="m 428.25374,569.06581 -8.28863,2.95863 a 2.40023,2.40023 0 1 1 -1.61379,-4.52107 l 8.28863,-2.95863 a 2.40023,2.40023 0 1 1 1.61379,4.52107 z"
       transform="translate(-238.77402,-267.90176)"
       fill="#386ede"
       id="path52" />
    <path
       d="m 469.16044,590.8489 -37.67558,13.44829 a 2.40023,2.40023 0 0 1 -1.61379,-4.52107 l 37.67558,-13.44829 a 2.40023,2.40023 0 0 1 1.61379,4.52107 z"
       transform="translate(-238.77402,-267.90176)"
       fill="#386ede"
       id="path54" />
    <path
       d="m 465.61311,580.911 -37.67558,13.44829 a 2.4002304,2.4002304 0 0 1 -1.6138,-4.52107 l 37.67559,-13.44829 a 2.40023,2.40023 0 1 1 1.61379,4.52107 z"
       transform="translate(-238.77402,-267.90176)"
       fill="#386ede"
       id="path56" />
  </g>
  <g
     id="g3294"
     transform="matrix(0.48707939,0,0,0.48707939,-73.407756,34.863463)"
     style="stroke-width:2.05305">
    <path
       d="m 567.38915,535.96462 c -23.39,0 -43.9,24.43 -55.21,60.91 -0.8,2.56 -1.55,5.19 -2.25,7.86 a 227.65016,227.65016 0 0 0 -7.04,57.23 c 0,69.48 28.93,126 64.5,126 35.57,0 64.5,-56.52 64.5,-126 0,-69.48 -28.92999,-126 -64.5,-126 z m 0,250 c -34.46,0 -62.5,-55.63 -62.5,-124 a 226.35768,226.35768 0 0 1 7.13,-57.46 q 0.99,-3.765 2.12,-7.38 c 11.01,-35.47 30.76,-59.16 53.25,-59.16 34.46,0 62.5,55.63 62.5,124 0,68.37 -28.03998,124 -62.5,124 z"
       transform="translate(-53.06788,-72.03831)"
       fill="#3f3d56"
       id="path2977"
       style="stroke-width:3.80597" />
    <path
       d="m 582.88915,734.81521 c -12.33691,0 -22,-32 -22,-72.85059 0,-40.85059 9.66309,-72.85059 22,-72.85059 12.33691,0 22,32 22,72.85059 0,40.85059 -9.66309,72.85059 -22,72.85059 z m 0,-143.70118 c -10.84082,0 -20,32.44532 -20,70.85059 0,38.40527 9.15918,70.85059 20,70.85059 10.84082,0 20,-32.44532 20,-70.85059 0,-38.40527 -9.15915,-70.85062 -20,-70.85062 z"
       transform="translate(-53.06788,-72.03831)"
       fill="#3f3d56"
       id="path2979"
       style="stroke-width:3.80597" />
    <ellipse
       cx="532.32129"
       cy="589.92633"
       rx="8.5"
       ry="16.732281"
       fill="#cfcce0"
       id="ellipse2981"
       style="stroke-width:3.80597" />
    <polygon
       points="513.821,421.926 513.821,362.926 650.821,362.426 650.821,416.399 "
       fill="#3f3d56"
       id="polygon2983"
       style="stroke-width:3.80597" />
    <polygon
       points="524.821,435.926 524.821,437.926 402.768,437.926 396.819,545.981 394.823,545.872 400.875,435.926 "
       fill="#3f3d56"
       id="polygon2985"
       style="stroke-width:3.80597" />
    <polygon
       points="397.029,721.948 396.614,723.905 326.614,711.905 327.029,709.948 "
       fill="#3f3d56"
       id="polygon2987"
       style="stroke-width:3.80597" />
    <rect
       x="505.3887"
       y="780.82074"
       width="2.00088"
       height="85.28775"
       transform="rotate(-85.29215,440.74781,816.25437)"
       fill="#3f3d56"
       id="rect2989"
       style="stroke-width:3.80597" />
    <path
       d="m 661.13915,618.12459 q -1.125,3.61506 -2.12,7.38 l -2.09,0.23 -65.04,7.23 -149,-15 155,-8 61.29,7.91 z"
       transform="translate(-53.06788,-72.03831)"
       fill="#3f3d56"
       id="path2991"
       style="stroke-width:3.80597" />
    <path
       d="m 627.06787,260.27363 c 0,0 -21.65829,-7.73511 -35.58148,23.20532 -13.92319,30.94043 -35.58149,64.97489 -35.58149,64.97489 l 12.37617,3.094 c 0,0 3.094,-21.6583 10.82915,-24.75234 l -3.09405,27.84638 c 0,0 92.82128,32.48745 134.59085,-3.094 l -1.547,-10.82915 c 0,0 6.18809,1.547 6.18809,10.82915 l 4.64106,-4.64106 c 0,0 -4.64106,-9.28213 -18.56426,-21.6583 -9.13857,-8.12318 -12.279,-23.57743 -13.35817,-33.23968 a 40.22386,40.22386 0 0 0 -9.26065,-21.90478 c -9.2527,-10.72331 -26.11236,-22.12066 -51.63822,-9.83043 z"
       transform="translate(-53.06788,-72.03831)"
       fill="#2f2e41"
       id="path2993"
       style="stroke-width:3.80597" />
    <path
       d="m 507.38915,289.46462 -9,-94 c 0,0 -18,-51 9,-47 27,4 11,43 11,43 l 15,98 z"
       transform="translate(-53.06788,-72.03831)"
       fill="#ffb9b9"
       id="path2995"
       style="stroke-width:3.80597" />
    <polygon
       points="407.321,651.426 384.321,644.426 374.321,678.426 393.321,694.426 "
       fill="#ffb9b9"
       id="polygon2997"
       style="stroke-width:3.80597" />
    <path
       d="m 514.38915,741.46462 -10,36 35,22 c 0,0 1,-41 6,-49 z"
       transform="translate(-53.06788,-72.03831)"
       fill="#ffb9b9"
       id="path2999"
       style="stroke-width:3.80597" />
    <path
       d="m 557.38915,549.46462 -5,10 c 0,0 -57,-26 -72,10 -15,36 -48,150 -48,150 l 29,12 53,-121 121,-3 5,-67 z"
       transform="translate(-53.06788,-72.03831)"
       fill="#2f2e41"
       id="path3001"
       style="stroke-width:3.80597" />
    <path
       d="m 599.38915,566.46462 c 0,0 -82,-17 -88,24 -6,41 3,119 4,121 1,2 -4,39 -4,39 l 36,5 c 0,0 23,-109 13,-137 l 67.65977,-4.18514 c 23.35564,-1.44468 42.43582,-19.89449 43.77891,-43.25619 0.51413,-8.9426 -1.7244,-17.05867 -9.43868,-21.55867 -24,-14 -68,-14 -68,-14 z"
       transform="translate(-53.06788,-72.03831)"
       fill="#2f2e41"
       id="path3003"
       style="stroke-width:3.80597" />
    <path
       d="m 440.38915,749.46462 c 0,0 -7,-15 -17,-8 -10,7 -33,22 -33,22 0,0 -35.579,12.52847 -4,21 28.08937,7.53538 35,6 35,6 0,0 23,4 26,2 3,-2 5,-34 5,-34 0,0 -14,-3 -12,-9 z"
       transform="translate(-53.06788,-72.03831)"
       fill="#2f2e41"
       id="path3005"
       style="stroke-width:3.80597" />
    <path
       d="m 518.38915,780.46462 c 0,0 -10,-14 -17,-8 -7,6 -32,23 -32,23 0,0 -42,12 -5,23 37,11 78,9 79,5 1,-4 -2,-33 -2,-33 0,0 -21,-1 -23,-10 z"
       transform="translate(-53.06788,-72.03831)"
       fill="#2f2e41"
       id="path3007"
       style="stroke-width:3.80597" />
    <circle
       cx="585.32129"
       cy="251.42632"
       r="36"
       fill="#ffb9b9"
       id="circle3009"
       style="stroke-width:3.80597" />
    <path
       d="m 612.38915,339.46462 c 0,0 -2,41 -12,44 -10,3 -38,36 -25,46 13,10 88,3 88,3 l -7,-52 c 0,0 -16,-11 -3,-30 z"
       transform="translate(-53.06788,-72.03831)"
       fill="#ffb9b9"
       id="path3011"
       style="stroke-width:3.80597" />
    <path
       d="m 611.38915,407.46462 -7,-33 -23,-9 -19,44 c 0,0 -21.5,142.5 -15.5,144.5 a 27.04163,27.04163 0 0 0 10.5,1.5 c 0,0 32,-10 42,-5 10,5 62,9 62,9 0,0 36,-19 34,-36 -2,-17 0,-112 0,-112 l -4.5,-42.5 -39.45686,6.17232 z"
       transform="translate(-53.06788,-72.03831)"
       fill="#cfcce0"
       id="path3013"
       style="stroke-width:3.80597" />
    <polygon
       points="528.321,292.426 500.321,258.426 484.321,201.426 445.321,216.426 473.321,285.426 513.321,336.426 529.321,298.426 "
       fill="#cfcce0"
       id="polygon3015"
       style="stroke-width:3.80597" />
    <path
       d="m 591.09461,327.77 c 0,0 12.37617,-17.01723 23.20532,-20.11127 10.82915,-3.09404 12.37617,-18.56426 12.37617,-18.56426 0,0 27.84638,30.94043 44.86361,32.48745 17.01723,1.54702 1.547,-37.12851 1.547,-37.12851 l -30.94042,-7.73511 -29.3934,3.094 -23.20532,15.47022 z"
       transform="translate(-53.06788,-72.03831)"
       fill="#2f2e41"
       id="path3017"
       style="stroke-width:3.80597" />
    <polygon
       points="654.788,443.926 654.82,444.892 655.82,486.892 653.822,486.96 652.854,445.926 559.795,445.926 556.821,555.954 554.821,555.899 557.848,443.926 "
       fill="#3f3d56"
       id="polygon3019"
       style="stroke-width:3.80597" />
    <polygon
       points="682.101,363.966 681.542,365.887 651.821,357.258 651.821,430.926 649.821,430.926 649.821,354.595 "
       fill="#3f3d56"
       id="polygon3021"
       style="stroke-width:3.80597" />
    <path
       d="m 714.38915,556.96462 c -23.39,0 -43.9,24.43 -55.21,60.91 -0.8,2.56 -1.55,5.19 -2.25,7.86 a 227.65016,227.65016 0 0 0 -7.04,57.23 c 0,69.48 28.93,126 64.5,126 35.57,0 64.5,-56.52 64.5,-126 0,-69.48 -28.92999,-126 -64.5,-126 z m 0,250 c -34.46,0 -62.5,-55.63 -62.5,-124 a 226.35768,226.35768 0 0 1 7.13,-57.46 q 0.99,-3.765 2.12,-7.38 c 11.01,-35.47 30.76,-59.16 53.25,-59.16 34.46,0 62.5,55.63 62.5,124 0,68.37 -28.03998,124 -62.5,124 z"
       transform="translate(-53.06788,-72.03831)"
       fill="#3f3d56"
       id="path3023"
       style="stroke-width:3.80597" />
    <path
       d="m 729.88915,755.81521 c -12.33691,0 -22,-32 -22,-72.85059 0,-40.85059 9.66309,-72.85059 22,-72.85059 12.33691,0 22,32 22,72.85059 0,40.85059 -9.66309,72.85059 -22,72.85059 z m 0,-143.70118 c -10.84082,0 -20,32.44532 -20,70.85059 0,38.40527 9.15918,70.85059 20,70.85059 10.84082,0 20,-32.44532 20,-70.85059 0,-38.40527 -9.15915,-70.85062 -20,-70.85062 z"
       transform="translate(-53.06788,-72.03831)"
       fill="#3f3d56"
       id="path3025"
       style="stroke-width:3.80597" />
    <ellipse
       cx="679.32129"
       cy="610.92633"
       rx="8.5"
       ry="16.732281"
       fill="#cfcce0"
       id="ellipse3027"
       style="stroke-width:3.80597" />
    <polygon
       points="665.821,364.926 665.821,352.926 686.821,360.926 682.821,371.926 "
       fill="#3f3d56"
       id="polygon3029"
       style="stroke-width:3.80597" />
    <polygon
       points="642.402,439.989 582.821,438.926 582.821,454.926 642.402,454.926 "
       fill="#3f3d56"
       id="polygon3031"
       style="stroke-width:3.80597" />
    <polygon
       points="489.402,431.989 429.821,430.926 429.821,446.926 489.402,446.926 "
       fill="#3f3d56"
       id="polygon3033"
       style="stroke-width:3.80597" />
    <path
       d="m 591.88915,464.14209 h -0.48608 v -13.316 a 7.70694,7.70694 0 0 0 -7.707,-7.707 h -28.21172 a 7.70694,7.70694 0 0 0 -7.707,7.707 v 73.05266 a 7.70694,7.70694 0 0 0 7.707,7.707 h 28.21175 a 7.70694,7.70694 0 0 0 7.707,-7.707 v -50.2581 h 0.48608 z"
       transform="translate(-53.06788,-72.03831)"
       fill="#3f3d56"
       id="path3047"
       style="stroke-width:3.80597" />
    <circle
       cx="516.76538"
       cy="393.7738"
       r="4.7208099"
       fill="#d0cde1"
       id="circle3049"
       style="stroke-width:3.80597" />
    <path
       d="m 689.46768,511.92839 -94.41317,-1.77582 c 0,0 -52.71967,12.068 -45.66742,-14.29988 7.05225,-26.36788 43.97374,-6.02575 43.97374,-6.02575 l 99.07116,-3.729 z"
       transform="translate(-53.06788,-72.03831)"
       fill="#ffb9b9"
       id="path3051"
       style="stroke-width:3.80597" />
    <path
       d="m 679.88915,375.96462 9,-7 c 0,0 15,-8 18,20 3,28 25,121 3,122 -22,1 -78,2 -78,2 l 6,-31 46,-3 z"
       transform="translate(-53.06788,-72.03831)"
       fill="#cfcce0"
       id="path3053"
       style="stroke-width:3.80597" />
    <polygon
       points="622.821,396.926 629.821,346.926 626.821,403.926 582.821,412.926 "
       opacity="0.15"
       id="polygon3055"
       style="stroke-width:3.80597" />
  </g>
</svg>
