<?xml version="1.0" encoding="UTF-8" standalone="no"?>
<svg
   data-name="Layer 1"
   width="722.45196"
   height="364.19648"
   viewBox="0 0 722.45196 364.19648"
   version="1.1"
   id="svg96"
   sodipodi:docname="people6.svg"
   inkscape:version="1.2.1 (9c6d41e410, 2022-07-14)"
   xmlns:inkscape="http://www.inkscape.org/namespaces/inkscape"
   xmlns:sodipodi="http://sodipodi.sourceforge.net/DTD/sodipodi-0.dtd"
   xmlns="http://www.w3.org/2000/svg"
   xmlns:svg="http://www.w3.org/2000/svg">
  <defs
     id="defs100" />
  <sodipodi:namedview
     id="namedview98"
     pagecolor="#ffffff"
     bordercolor="#666666"
     borderopacity="1.0"
     inkscape:showpageshadow="2"
     inkscape:pageopacity="0.0"
     inkscape:pagecheckerboard="0"
     inkscape:deskcolor="#d1d1d1"
     showgrid="false"
     inkscape:zoom="1.39645"
     inkscape:cx="283.93426"
     inkscape:cy="153.24573"
     inkscape:window-width="1600"
     inkscape:window-height="831"
     inkscape:window-x="179"
     inkscape:window-y="1112"
     inkscape:window-maximized="1"
     inkscape:current-layer="svg96" />
  <path
     d="M891.45711,564.13287H342.14841a26.51638,26.51638,0,0,1-26.48658-26.48658V329.2084a26.51674,26.51674,0,0,1,26.48658-26.48658h549.3087a26.51674,26.51674,0,0,1,26.48658,26.48658V537.64629A26.51638,26.51638,0,0,1,891.45711,564.13287Z"
     transform="translate(-238.77402 -267.90176)"
     fill="#fff"
     id="path2" />
  <path
     d="M891.45711,564.13287H342.14841a26.51638,26.51638,0,0,1-26.48658-26.48658V329.2084a26.51674,26.51674,0,0,1,26.48658-26.48658h549.3087a26.51674,26.51674,0,0,1,26.48658,26.48658V537.64629A26.51638,26.51638,0,0,1,891.45711,564.13287ZM342.14841,305.025a24.1834,24.1834,0,0,0-24.1834,24.1834V537.64629a24.1834,24.1834,0,0,0,24.1834,24.1834h549.3087a24.1834,24.1834,0,0,0,24.1834-24.1834V459.054A154.029,154.029,0,0,0,761.61156,305.025Z"
     transform="translate(-238.77402 -267.90176)"
     fill="#e6e6e6"
     id="path4" />
  <ellipse
     cx="294.66589"
     cy="607.92128"
     rx="2.82511"
     ry="4.06109"
     transform="translate(-588.12138 544.08622) rotate(-81.72174)"
     fill="#fff"
     id="ellipse6" />
  <ellipse
     cx="321.09158"
     cy="605.34272"
     rx="2.8251"
     ry="4.06109"
     transform="translate(-562.94877 568.02927) rotate(-81.72174)"
     fill="#3f3d56"
     id="ellipse8" />
  <ellipse
     cx="287.42975"
     cy="586.52763"
     rx="2.82511"
     ry="4.06109"
     transform="translate(-573.14491 518.61211) rotate(-81.72174)"
     fill="#ff6584"
     id="ellipse10" />
  <ellipse
     cx="278.18048"
     cy="578.33571"
     rx="2.56661"
     ry="1.78547"
     transform="translate(-541.01619 584.23337) rotate(-89.56675)"
     fill="#e6e6e6"
     id="ellipse12" />
  <ellipse
     cx="274.28649"
     cy="562.01344"
     rx="2.56661"
     ry="1.78547"
     transform="translate(-528.55893 564.14064) rotate(-89.56675)"
     fill="#3f3d56"
     id="ellipse14" />
  <ellipse
     cx="304.56743"
     cy="590.7395"
     rx="2.56661"
     ry="1.78547"
     transform="translate(-527.2322 622.92957) rotate(-89.56675)"
     fill="#e6e6e6"
     id="ellipse16" />
  <ellipse
     cx="291.79739"
     cy="597.11543"
     rx="2.56661"
     ry="1.78547"
     transform="translate(-546.28142 616.48761) rotate(-89.56675)"
     fill="#ff6584"
     id="ellipse18" />
  <ellipse
     cx="309.57373"
     cy="608.89981"
     rx="2.56661"
     ry="1.78547"
     transform="translate(-540.42354 645.95872) rotate(-89.56675)"
     fill="#3f3d56"
     id="ellipse20" />
  <ellipse
     cx="932.08298"
     cy="274.37106"
     rx="3.60111"
     ry="5.1766"
     transform="translate(198.37253 842.58896) rotate(-75.77932)"
     fill="#fff"
     id="ellipse22" />
  <ellipse
     cx="898.23933"
     cy="274.15294"
     rx="3.60111"
     ry="5.1766"
     transform="translate(173.05426 809.61785) rotate(-75.77932)"
     fill="#3f3d56"
     id="ellipse24" />
  <ellipse
     cx="938.43394"
     cy="302.44956"
     rx="3.60111"
     ry="5.1766"
     transform="translate(175.94525 869.92612) rotate(-75.77932)"
     fill="#ff6584"
     id="ellipse26" />
  <ellipse
     cx="949.07942"
     cy="314.05614"
     rx="3.27161"
     ry="2.2759"
     transform="translate(292.79924 954.48891) rotate(-83.62433)"
     fill="#e6e6e6"
     id="ellipse28" />
  <ellipse
     cx="951.86235"
     cy="335.26393"
     rx="3.27161"
     ry="2.2759"
     transform="matrix(0.11105, -0.99382, 0.99382, 0.11105, 274.19651, 976.10735)"
     fill="#3f3d56"
     id="ellipse30" />
  <ellipse
     cx="917.26206"
     cy="294.84801"
     rx="3.27161"
     ry="2.2759"
     transform="translate(283.60443 905.79321) rotate(-83.62433)"
     fill="#e6e6e6"
     id="ellipse32" />
  <ellipse
     cx="934.29374"
     cy="288.44962"
     rx="3.27161"
     ry="2.2759"
     transform="translate(305.10362 917.03168) rotate(-83.62433)"
     fill="#ff6584"
     id="ellipse34" />
  <ellipse
     cx="913.31146"
     cy="271.16311"
     rx="3.27161"
     ry="2.2759"
     transform="translate(303.63095 880.81227) rotate(-83.62433)"
     fill="#3f3d56"
     id="ellipse36" />
  <path
     d="M535.37467,429.18554a84.29076,84.29076,0,0,1-21.6269,56.497v.01153a86.56041,86.56041,0,0,1-6.2416,6.26465,83.40511,83.40511,0,0,1-7.02468,5.70039q-2.5566,1.8655-5.25125,3.52387-3.19572,1.98642-6.5756,3.67357-2.50473,1.261-5.11307,2.34922a84.48558,84.48558,0,0,1-32.78575,6.59859,84.49842,84.49842,0,0,1-18.89764-2.11888,81.105,81.105,0,0,1-8.47569-2.41839c-1.071-.357-2.14194-.74849-3.20145-1.163a83.49857,83.49857,0,0,1-18.13755-9.731,84.61752,84.61752,0,1,1,133.33118-69.18758Z"
     transform="translate(-238.77402 -267.90176)"
     fill="#f2f2f2"
     id="path38" />
  <path
     d="M788.63254,366.28377h-146.252a4.60637,4.60637,0,0,1,0-9.21273h146.252a4.60636,4.60636,0,0,1,0,9.21273Z"
     transform="translate(-238.77402 -267.90176)"
     fill="#386ede"
     id="path40"
     style="fill:#386ede;fill-opacity:1" />
  <path
     d="M788.63254,428.46966h-146.252a4.60637,4.60637,0,0,1,0-9.21273h146.252a4.60637,4.60637,0,0,1,0,9.21273Z"
     transform="translate(-238.77402 -267.90176)"
     fill="#e6e6e6"
     id="path42" />
  <path
     d="M788.63254,490.65555h-146.252a4.60637,4.60637,0,0,1,0-9.21273h146.252a4.60636,4.60636,0,0,1,0,9.21273Z"
     transform="translate(-238.77402 -267.90176)"
     fill="#e6e6e6"
     id="path44" />
  <path
     d="M835.501,385.26038H594.65038a1,1,0,0,1,0-2H835.501a1,1,0,0,1,0,2Z"
     transform="translate(-238.77402 -267.90176)"
     fill="#e6e6e6"
     id="path74" />
  <path
     d="M835.501,447.26038H594.65038a1,1,0,0,1,0-2H835.501a1,1,0,0,1,0,2Z"
     transform="translate(-238.77402 -267.90176)"
     fill="#e6e6e6"
     id="path76" />
  <path
     d="M835.501,509.25989H594.65038a1,1,0,0,1,0-2H835.501a1,1,0,0,1,0,2Z"
     transform="translate(-238.77402 -267.90176)"
     fill="#e6e6e6"
     id="path78" />
  <path
     d="M871.34975,505.29571a36.99814,36.99814,0,0,1-24.04583-8.87946c-2.23542-1.91351-4.61728-5.24016-7.07922-9.88687a22.61063,22.61063,0,0,1-.71712-19.52,25.94482,25.94482,0,0,1-4.28456,3.51434l-.78332.52119-.04525-.93927c-.0297-.61092-.04474-1.21978-.04474-1.80962,0-3.47617,2.62916-7.00353,1.41661-10.21662-5.11059-13.54237-21.3201-27.00077,2.17243-47.95951,2.1732-1.93881-.72984-5.81521-.72984-8.74859,0-28.74783,40.63049-78.48249,52.146-52.1358,14.20149,32.49212,38.66868,29.0167,49.50789,35.72792l.15724.47478-.46333.18744a27.94531,27.94531,0,0,1-7.42493,1.97483,35.40687,35.40687,0,0,0,8.27909.69359l.43068-.01505.1049.4186a52.37377,52.37377,0,0,1,1.55456,12.67369l-.00192.46179a23.09253,23.09253,0,0,0,7.62843,17.21859A37.08367,37.08367,0,0,1,961.226,446.4161c0,6.09444-4.14211,14.09442-7.617,19.73247a11.158,11.158,0,0,1-8.19115,5.24658,10.89679,10.89679,0,0,1-8.79423-2.84094,36.036,36.036,0,0,0,6.35491,8.99722l.47413.48854-.58868.343a36.971,36.971,0,0,1-18.63752,5.03317l-.38349-.001a36.091,36.091,0,0,0-25.89133,10.56773A37.27947,37.27947,0,0,1,871.34975,505.29571Z"
     transform="translate(-238.77402 -267.90176)"
     fill="#e6e6e6"
     id="path80" />
  <path
     d="M858.62018,563.8901a.66537.66537,0,0,1-.65794-.57162,222.78689,222.78689,0,0,1-.31039-46.71056c2.29665-24.51173,9.67211-59.81725,31.76611-88.81311a.66542.66542,0,1,1,1.05854.80663c-21.90317,28.74547-29.21917,63.79193-31.49963,88.13059a221.27956,221.27956,0,0,0,.30292,46.39887.666.666,0,0,1-.65961.7592Z"
     transform="translate(-238.77402 -267.90176)"
     fill="#3f3d56"
     id="path82" />
  <path
     d="M876.65019,468.6948a.66541.66541,0,0,1-.39173-1.20367,91.70936,91.70936,0,0,1,20.24621-10.30643c11.1702-4.08948,28.15614-7.79687,45.64287-2.23145a.66533.66533,0,1,1-.40353,1.268c-17.12847-5.45105-33.80651-1.805-44.78176,2.21325a90.20269,90.20269,0,0,0-19.92141,10.13315A.66278.66278,0,0,1,876.65019,468.6948Z"
     transform="translate(-238.77402 -267.90176)"
     fill="#3f3d56"
     id="path84" />
  <path
     d="M846.19588,392.84452a.66541.66541,0,0,1,1.17233-.4774,91.7099,91.7099,0,0,1,11.7377,19.45143c4.88328,10.84668,9.80428,27.52154,5.51262,45.36366a.66533.66533,0,1,1-1.29376-.31117c4.20339-17.47655-.6343-33.84872-5.43247-44.5061A90.20263,90.20263,0,0,0,846.35082,393.225.66277.66277,0,0,1,846.19588,392.84452Z"
     transform="translate(-238.77402 -267.90176)"
     fill="#3f3d56"
     id="path86" />
  <path
     d="M302.04837,491.98387A36.091,36.091,0,0,0,276.157,481.41614l-.38349.001A36.971,36.971,0,0,1,257.136,476.384l-.58868-.343.47413-.48854a36.036,36.036,0,0,0,6.35491-8.99722,10.89679,10.89679,0,0,1-8.79423,2.84094,11.158,11.158,0,0,1-8.19115-5.24658c-3.47488-5.63805-7.617-13.638-7.617-19.73247a37.08367,37.08367,0,0,1,12.09851-27.36438,23.09253,23.09253,0,0,0,7.62843-17.21859l-.00192-.46179a52.37377,52.37377,0,0,1,1.55456-12.67369l.1049-.4186.43068.015a35.40633,35.40633,0,0,0,8.27909-.69358,27.94531,27.94531,0,0,1-7.42493-1.97483l-.46333-.18744.15724-.47478c10.83921-6.71122,35.3064-3.2358,49.50789-35.72792,11.51546-26.34669,52.14595,23.388,52.14595,52.1358,0,2.93338-2.903,6.80978-.72984,8.74859,23.49253,20.95874,7.283,34.41714,2.17243,47.9595-1.21255,3.2131,1.41661,6.74046,1.41661,10.21662,0,.58984-.015,1.19871-.04474,1.80963l-.04525.93927-.78332-.52119a25.94435,25.94435,0,0,1-4.28456-3.51435,22.61065,22.61065,0,0,1-.71712,19.52c-2.46194,4.64671-4.8438,7.97336-7.07922,9.88687a36.96338,36.96338,0,0,1-50.64771-2.43341Z"
     transform="translate(-238.77402 -267.90176)"
     fill="#e6e6e6"
     id="path88" />
  <path
     d="M341.37982,561.89113a.66538.66538,0,0,0,.65794-.57162,222.78689,222.78689,0,0,0,.31039-46.71056c-2.29665-24.51173-9.67211-59.81725-31.76611-88.81311a.66542.66542,0,1,0-1.05854.80663c21.90317,28.74546,29.21917,63.79193,31.49963,88.13059a221.27956,221.27956,0,0,1-.30292,46.39887.666.666,0,0,0,.65961.7592Z"
     transform="translate(-238.77402 -267.90176)"
     fill="#3f3d56"
     id="path90" />
  <path
     d="M323.34981,466.69582a.6654.6654,0,0,0,.39173-1.20366,91.70936,91.70936,0,0,0-20.24621-10.30643c-11.1702-4.08948-28.15614-7.79687-45.64287-2.23145a.66533.66533,0,1,0,.40353,1.268c17.12847-5.451,33.80651-1.80495,44.78176,2.21326a90.20269,90.20269,0,0,1,19.92141,10.13315A.66284.66284,0,0,0,323.34981,466.69582Z"
     transform="translate(-238.77402 -267.90176)"
     fill="#3f3d56"
     id="path92" />
  <path
     d="M353.80412,390.84555a.6654.6654,0,0,0-1.17233-.4774,91.7099,91.7099,0,0,0-11.7377,19.45143c-4.88328,10.84668-9.80428,27.52154-5.51262,45.36366a.66533.66533,0,1,0,1.29376-.31117c-4.20339-17.47655.6343-33.84872,5.43247-44.5061A90.20231,90.20231,0,0,1,353.64918,391.226.66277.66277,0,0,0,353.80412,390.84555Z"
     transform="translate(-238.77402 -267.90176)"
     fill="#3f3d56"
     id="path94" />
  <g
     id="g758"
     transform="translate(-253.00309,-115.77188)">
    <polygon
       points="471.331,298.686 491.981,259.738 450.189,243.422 422.456,287.501 "
       fill="#2f2e41"
       id="polygon311" />
    <path
       d="m 613.09257,602.687 c 0,0 -15.7109,36.00414 -15.7109,46.47807 0,0 6.2189,28.476 4.255,36.33145 l -6.87352,14.729 -14.40166,-5.89158 -3.92772,-39.27724 0.65462,-62.84359 z"
       transform="translate(-164.66968,-105.52344)"
       fill="#ffb9b9"
       id="path313" />
    <path
       d="m 621.93,387.31683 c 0,0 1.30924,21.60248 -1.30925,28.14869 -2.61849,6.54621 9.81931,18.984 9.81931,18.984 l 19.63862,-25.53021 c 0,0 -13.09241,-13.09241 -9.81931,-27.49406 z"
       transform="translate(-164.66968,-105.52344)"
       fill="#ffb9b9"
       id="path315" />
    <path
       d="m 583.962,439.03187 v 34.69489 l -2.9458,63.1709 c 0,0 -18.984,35.34951 -0.65462,32.731 18.32938,-2.61851 12.11049,-33.713 12.11049,-33.713 l 6.21889,-61.86165 -0.32731,-37.64069 z"
       transform="translate(-164.66968,-105.52344)"
       fill="#ffb9b9"
       id="path317" />
    <path
       d="m 576.76112,689.75158 28.14869,-11.12858 3.2731,55.64276 c 0,0 5.89159,17.02013 3.92773,23.56634 0,0 1.30924,11.12855 -1.96387,11.78317 -3.27311,0.65462 -12.43779,1.96387 -13.09241,1.30924 -0.65462,-0.65463 -0.65462,-2.61848 -0.65462,-2.61848 0,0 -6.54621,4.58235 -7.20083,9.81931 0,0 -27.49407,8.51007 -28.14869,0.65462 -0.65462,-7.85545 13.747,-14.40165 13.747,-14.40165 l 11.12855,-17.02014 z"
       transform="translate(-164.66968,-105.52344)"
       fill="#2f2e41"
       id="path319" />
    <path
       d="m 671.68112,602.687 c 0,0 -15.7109,36.00414 -15.7109,46.47807 0,0 6.2189,28.476 4.255,36.33145 l -6.87351,14.729 -14.40166,-5.89158 -3.92772,-39.27724 0.65462,-62.84359 z"
       transform="translate(-164.66968,-105.52344)"
       fill="#ffb9b9"
       id="path321" />
    <path
       d="m 636.3316,689.75158 28.14869,-11.12858 3.2731,55.64276 c 0,0 5.89159,17.02013 3.92773,23.56634 0,0 1.30924,11.12855 -1.96387,11.78317 -3.27311,0.65462 -12.43779,1.96387 -13.09241,1.30924 -0.65462,-0.65463 -0.65462,-2.61848 -0.65462,-2.61848 0,0 -6.54621,4.58235 -7.20083,9.81931 0,0 -27.49406,8.51007 -28.14869,0.65462 -0.65463,-7.85545 13.747,-14.40165 13.747,-14.40165 l 11.12855,-17.02014 z"
       fill="#2f2e41"
       id="path323"
       transform="translate(-164.66968,-105.52344)" />
    <circle
       cx="463.80646"
       cy="266.73712"
       r="20.947861"
       fill="#ffb9b9"
       id="circle325" />
    <path
       d="m 631.09464,414.15628 16.25581,-8.44172 7.31053,5.82324 c 0,0 17.67476,-0.65462 24.221,7.20082 6.54624,7.85544 10.14658,27.82138 10.14658,27.82138 0,0 -21.60248,-4.58234 -18.984,13.747 l -3.92773,-10.47393 -3.60041,8.83738 -43.85959,15.05627 -19.63862,-33.38565 c 0,0 -13.09241,-3.92773 -17.67476,5.237 0,0 0.98194,-33.05834 13.747,-34.04027 8.58483,-0.66037 15.05627,-0.65462 15.05627,-0.65462 l 7.20083,-1.30925 4.61127,-1.63655 z"
       transform="translate(-164.66968,-105.52344)"
       fill="#386ede"
       id="path327" />
    <path
       d="m 667,412 c 0,0 -10.01434,27.98029 1.58842,40.59849 l -9.67242,33.23875 c 0,0 34.3676,103.10276 24.54829,117.50441 0,0 -36.65876,18.32938 -109.97627,-6.5462 l 29.78524,-115.54055 -4.255,-48.76924 5.89159,-22.91173 13.09241,-1.30924 c 0,0 -7.85545,29.45793 6.54621,34.04028 C 638.95013,446.88732 653,409 653,409 Z"
       fill="#2f2e41"
       id="path329"
       transform="translate(-164.66968,-105.52344)" />
    <path
       d="m 667.42608,439.03187 v 34.69489 l -2.94579,63.1709 c 0,0 -18.984,35.34951 -0.65462,32.731 18.32938,-2.61851 12.11048,-33.713 12.11048,-33.713 l 4.58235,-62.189 1.30924,-37.31338 z"
       transform="translate(-164.66968,-105.52344)"
       fill="#ffb9b9"
       id="path331" />
    <path
       d="m 689.02856,446.56 c 0,0 -2.327,-33.6185 -21.784,-33.50208 v 38.87822 c 0,0 14.58318,-8.64924 21.784,-5.37614 z"
       transform="translate(-164.66968,-105.52344)"
       fill="#386ede"
       id="path333" />
    <path
       d="m 616.64874,342.94043 c 0,0 -10.827,2.03656 -13.33084,15.53985 a 24.78991,24.78991 0 0 0 -0.212,6.89493 c 0.25,2.59923 -0.11264,8.08912 -5.75648,14.55341 a 141.51216,141.51216 0 0 0 -10.27621,13.19744 v 0 l 11.31328,3.01174 5.05475,-18.744 a 95.88677,95.88677 0 0 1 11.20451,-25.75249 l 0.10392,-0.16674 c 0,0 3.75752,10.04 13.82869,11.41637 l -3.10528,-4.08841 c 0,0 11.77326,6.80583 18.44347,8.88488 a 4.38253,4.38253 0 0 1 1.41421,7.6208 q -0.071,0.0558 -0.14455,0.11171 c -4.90609,3.72634 -14.9149,12.61776 -10.96075,21.219 3.95415,8.60124 -0.657,10.16948 -0.657,10.16948 l 8.50294,-3.23477 3.89178,-1.66655 -0.39325,2.87748 18.99854,0.398 c 0,0 5.1339,-0.0312 -3.98533,-13.73515 0,0 -2.20039,-5.13845 -0.394,-9.06405 a 20.85263,20.85263 0 0 0 2.10583,-9.55488 c -0.57433,-13.81619 -6.39453,-41.92388 -45.64623,-29.88805 z"
       transform="translate(-164.66968,-105.52344)"
       fill="#2f2e41"
       id="path335" />
    <ellipse
       cx="629.84216"
       cy="369.99768"
       rx="6.5462098"
       ry="5.8915901"
       transform="rotate(-82.21788,487.04446,411.58844)"
       fill="#2f2e41"
       id="ellipse337" />
    <ellipse
       cx="614.92456"
       cy="367.95895"
       rx="6.5462098"
       ry="5.8915901"
       transform="rotate(-82.21788,472.12685,409.54972)"
       fill="#2f2e41"
       id="ellipse339" />
    <rect
       x="635.10638"
       y="368.64755"
       width="13.35208"
       height="1.99985"
       transform="rotate(-3.53879,-1148.517,2982.1687)"
       fill="#2f2e41"
       id="rect341" />
    <rect
       x="621.0592"
       y="365.66043"
       width="2"
       height="6.5468702"
       transform="rotate(-82.217674,479.26325,410.52445)"
       fill="#2f2e41"
       id="rect343" />
  </g>
</svg>
